<mxfile host="app.diagrams.net" modified="2024-01-29T06:05:06.835Z" agent="Mozilla/5.0 (Windows NT 10.0; Win64; x64) AppleWebKit/537.36 (KHTML, like Gecko) Chrome/120.0.0.0 Safari/537.36" etag="wv2dHc1NQZbdDYWudZLe" version="22.1.21" type="github">
  <diagram name="第 1 页" id="QTj4JmhRzzFchio2PINe">
    <mxGraphModel dx="1434" dy="841" grid="0" gridSize="10" guides="1" tooltips="1" connect="1" arrows="1" fold="1" page="1" pageScale="1" pageWidth="827" pageHeight="1169" math="0" shadow="0">
      <root>
        <mxCell id="0" />
        <mxCell id="1" parent="0" />
        <mxCell id="x-KL9_7zVmia-TlLjwN--105" value="" style="rounded=0;whiteSpace=wrap;html=1;dashed=0;strokeColor=#82b366;align=center;verticalAlign=top;fontFamily=Helvetica;fontSize=12;fillColor=#d5e8d4;opacity=50;" vertex="1" parent="1">
          <mxGeometry x="62" y="233.31" width="649" height="440" as="geometry" />
        </mxCell>
        <mxCell id="x-KL9_7zVmia-TlLjwN--2" value="" style="dashed=0;outlineConnect=0;html=1;align=center;labelPosition=center;verticalLabelPosition=bottom;verticalAlign=top;shape=mxgraph.webicons.chrome;gradientColor=#DFDEDE;fillColor=none;" vertex="1" parent="1">
          <mxGeometry x="382.5" y="153" width="54.61" height="50" as="geometry" />
        </mxCell>
        <mxCell id="x-KL9_7zVmia-TlLjwN--6" value="" style="shape=image;verticalLabelPosition=bottom;labelBackgroundColor=default;verticalAlign=top;aspect=fixed;imageAspect=0;image=data:image/png,iVBORw0KGgoAAAANSUhEUgAAAVEAAAE7CAYAAABkGbJ+AAAgAElEQVR4Aex9B3wcZ532qkvuPYUk8B3tgLuDJLak1RZJ7pBCCOUI9+WOS7jyHVeAA+6AFMe9qG+VnQKEEi5AIEAOkkAghZBAKiHVLcXdliyrbJmZfb7f83/n3R2tJNuxJWtlz+o3mtmZLbNved5/ff4euA+3BU6yBTLgn2VvGZiWiUwmg0zGgmWZMA1D9oaZRtpMI2WkwGNeM9LcG+q1fD3fB8iW+0TnDeqrznPusdsC49cCnvH7avebT4cWUPBpgX8KSBV4EkBNy0DSTKI/M4BeDOAgjmAfDmM/enAIvTiCfrmWNBMwrTQsAVF+DuxP05/LM+7DbYHCbAEXRAuzXwryrpR0ORjQNIiaMEUepQwpEigMpJBED45gL7rxEvbgd+lt+GX/n3B/33Ny/IK1C/vQgx70IoWUALHApg2m/Ez+6Qe/3324LVBoLeCCaKH1SIHfTz6QEUQNG0BNWAJ6aZgieR5AN7ZhD36090H8/feuQ13r1Xjvmo/gz1d9WI7/5vYv47s778U27MV+HMYRDCDhAFM2BT8/Zx7IwLIs21TgAmqBD5Uz5vZcED1juvrEfyiBk+DFzTTNQRttmwmjH/3pPlHdB5DGQfThZezGL1NP4j8f3ITzVwRx1voGzGldjMmb6jGlqQGzmhdi7tog5n6lBtf89Drc0/8YXsIbOIDDAqQpK4W0RftpWswCyrZqIp2mjdWCaZhiU6XU6z7cFhjPFnBBdDxbv+C/m9KerZ7bTh/DspA2TdkM7q00kpkEeqwj6EECb6Abz+BVrHw4jkD0Uzh7jR/TW3yYHAnA01aLklgQpfEGFLV7MSnsx9RmL2av9uLi9ivxtQfa8HvjJexCFw5jAEesAaRgIJlOIpVKIZ02YGUA04LsKaUqF5TeF3yDujd4GraAC6KnYaeeyE+iRDfY5EjwTCMDbpaApQELqQy3DAaMNAxkkMykcdjoxV4cxvPYi2++dh98Gz+Bd6xajLPWBTCzLYCqsA8lUS9KOoMo2dwITyyA4qgfRaEaVIS9mBmtx9ymIP7PmkW4ePXl+PrOn+NZvIHd6JbPNjL03mdgZoCUSfMBxFJK8wENCOoZJdKcii/Sc8Z55kRaxX2P2wLHbgEXRI/dRmfAK4aT5BSImpkUzEwaBDKCaBoWEhkDvZk0DmUGsB/9eB1HcM+BP+DTP7gR71l/Of5P0zLMa67HlFYvJkV9KIv74Il5URQPwBPhcUAAtTjuQ3GsFiXhGlS1ezGz2Y9z1jXi3Wsvxf+946u4Y8ev5LNpHujJ0F5qIJExh4AogZRAnw+Zw/2qM6Az3Z94ilvABdFT3OAF+XUOtHE6jsTLbhl2TGcayBggqA4giS4ksBVdeCizA198KIYLVizHeS2XomK1F1Pag5gSC6A8VgtPZD48Ue698ER9mPT1Zai8eRE84To5V7LZj9JOJalWRQOY3B5A2cpqnLtxGc67fjE+e28THrJewVYcEFtrHwZgZGgXZSwqVfuMQKjAqNhHc9Io29r5ewqy7d2bmvAt4ILohO/CUfgBNohapoV0Op39wIxpwRJHUhopMym2T/rQqbo/h11Y/+S3URv+W8xdtxjTWhehvC2I0kgApTE/PNEaFMUXwBNbgKKYFyXxAIrCVOF9KGqvQ3HYj9J4EEWxOnjitSjezL0XJTEfKiIBVLb6MaONzqdGzG//JG58dDOewHa8jkPoQi+SSGMglYRhWjCsjGyMMyXwi+2Uur+AqOt4ynaoezAmLeCC6Jg068T7UAIoH1pyE0kvbSI1kIBpGkjCEPB8EXtwR9evsei2z2D6DbWY1dqAKeEgyiJ1KI7WwSOg6BVg9MSq4YlWozjiRUnYh9KQH2UdflSEAqgIB1Aa8av3xGvh6awVEBUgjdehNOpFWaQGk8J1mNbix+Tr56MmdhW+ceBe/BGvY5+E6qeQTKeQGEjCTGnpNCeJmkZKwvbz1fyJ1zvuHRdyC7ggWsi9c4rvjQBKj7uKxWQKJu2fKXShDztxED898Dv8w09W4h0bP4hp6+swPVqPcjqMYtUo2ayBswaeOKXKOiWNRmttEK1DaciHsg4fKkJ+VFASjfhsEPXC08n325tIsbYkG7kY5TEvpkQCqFpXg7dtWoq/+cF/485dD2AHDuAQ+tBPuTRDz72KIdX3L3lPGTqecsB6ipvU/bozoAVcED0DOvlYP5EqMAPaGT4kmr2VQdJMoStDp1E3HrdewU2Pb8afr78E01Z4MbOjAZVUy9vmozRag9J4LYqi1aK2F8V8Yvuk/ZPHoq5TQo3UoSjiFUAtjdSBW3GUTiZfDnTpgBInFAHYi+KYF2WdPpTF6lDcXo3ysA/TIw2YuqoWb1uzGJ97YBMewQvYif04hB4MWAlR5/l7lb2Uv8lV54/V/+71k2sBF0RPrv0K+N0Ch4PuT5/R+9xFCyadRsiAwfK0OHYjhT9hD2Iv/AgL43+P89YuxLT1PkzqCKAqHlQhS1EvisLVKKG0GfUq51GEgOmTrYhhTDEfiuN+e/OhhB75qFL9BXAFRDV42qAarVMATKDl53XUoETO1aE05sOkaBDTWgI4a1096mKfwoanbsNT2I4D6JX40j5GFABI0wElXnv1S/Xv1vvc73ceHf2q85XusdsCbAEXRE+ncUBR0mIkugVk6L3mZts67WhKRn0yzjKt2ZIosgnYpNCPAcllfwUH8P0Dj+Bj//NfmHdjA2Y3LcTUtiCqaM8M16GovRpVm4MoCdNBpCRM8b4LgNZBwJMAakujORD1oySe2/R5JbFqyTW3p6TKrSiitvItDfCEFKBSKq1s92NqUwDz1tRj6Tf/Gbfv/SVewD7sEXKTpATqC4zaTib+bsa50nXGY8KlPPLajWYAXnXhVDeQuz9aC7ggerTWmWDXxCnEoHTDgGmmJTTJMFWgOinmDAJIxkLSMpFi5lEmg4RJ8EygC0ewA/vx867H8dmfrcMHWj6GWWvrMaWtARUhet1pw6TDpw4l4Vo5prOoOEyAU+o6VXZR2wl8jk2fH2nvfO3QYz88dEDFggqcsyYCSr51KA7VoaotgNlNjXh30+X4ux9ejztf/7UQnlAy7UNK0gWShql+t7QBYOisJ647EoWgaPuYXmobNQRGs0A7wcaCe7unrgVcED11bT3m30SglM32SVOeyloEiQb2iWQyKbGWSVjoQQq70IPHrK1Y+ftbcFHzxzF3RRDT1wVQ2UwnkPaiK6kwJx0qmyYzj0RadIDmUCAcDKpv7roCUAKpNg84JdeSqB8VkSAqWnyY0VSPOauCeN/6y/GVhyJ4JP0ydqIbXUihD4aAKcOhiJP0N1FIFyE01zS6iYSKz5VFx3zInhZf4ILoadGN6kcQQJUtkGqr2ihxESwyZkY2SlpHEiSo68Ne9OAl7MfXt/8cl9z2r3jL6sWYttaPae31KG/zopLpmWHvEJDU0qbevzlQPBFAtQE0C9S55wRwmhUqY0EUNy/A9FA95jYvxAXrlqEhcg1an/4fPGG8itfQjW4MQLLxGYFgMAaWDjUlkTOVVbWZakNXoT+NJsYY/xQXRMe4gU/NxyvrHaUqmv/SGSBpKRBNW4qwg0DKQPpEJimkc9uxG78eeBaf+eEKzPmSD7PXNmJWeAnKO3wojdaijCFHHReLA4mOoLEHyhHA1Vbf6eUXCVRsrRpElRRM84Kn5UJM2RJAJU0Km+Zjansj5jQtxuyv+vGJ734ZP+v5vTBLkRiadHtpk1ZRto0ycfBZwjSzQCpC+2AygVPTle63TLgWcEF0wnVZ/g1rPZ2qvFJPCaQEAdo8KZmmkEE/DBxGCnvRiz9kXsEXf74BH1hzGc5ZEcTMjQyYb0RZxI+SzT4UbamBp3M+iuLVKIrWoDgLYAQ6DWA5B5ACtxFAMCs9nuD1YUE0gKIoNxWsX8qMqMgCFIUvlphVppGWxYOoDNdjWmsjzl67EH+x7jL8049vxK8Tz+B1HEYXBtAvridm3quNNmO2l24/Svbuw22BY7WAC6LHaqGCv06iEOWFFxufSZuf4v+U8hxgsPwAdqAbT2AX2l/5Mf5s1XKcvb4RszcFMaM1gKp2H0o7aiVLqJRB85urUXRzNTxxZhzV2PGf2uueAzAlHWoJ8QRB8lggeywQJcAzRjU6H8UxbgtQHCPwe0F7aXk4gEltAcxorsdZGxfirauWYtUzt+ORzFbswEFxqKVJBG1xM1Xb2d58gqgLowU/Acb9Bl0QHfcuONkbUCAqIU2SbWQimU6I2t5l9mA/jki8583bf44Pf/uLOGf1Ukxrpcfdj/JQLcpCNSilt52ZRxLruUCB52ZmHtXAE9FB9IUEoloaZhyqnRkVr0FxJ++XhCcE1VoV3E9TRLgGJWEvKqNBTG1rwKyb6rH4ln9G6E/fx/NgiZJuHEEvEpkE+pP9kuaq7KVusP7Jjs4z4f0uiE6AXlYWz9yN6udKSuJ/upkNpFMDSJr9Eu+5B13Yin24L/UMrr77RlywZjmmrwlgdnQxquIBlMRrZROpLaJSM5lRJJlCcR+KOu2NxyINaklTA5jjPK8fS6I80ev6u/VePmfwPXiYEcUFgGxRGjzt7ChZGKJqYSjqrJVg/VnxJZi9sRHnrGjAFd/+HH7W/we8iN1SC0qSSDMJpNIDztiGXOO7R24L5LWAC6J5DVKITzVo6nuzYVPsngpISVZMv/OAcMK/iv14MPEcvvJQGNWRv8G0FT7MDi+RYPnSMFXdamFYIstSESU4plUSnGygyoYxaeDi/kRBcMzfp+JIGQLFTCnGrHIj6UmxLA418ETnwxOfD0+nAlPylzL6YE5kMaat9OH9bR/Hv/5iPX7Z9xR2Yh8OoRsJ1nuyBrIVTHXbu3u3BfJbwAXR/BYpyOeDYdQJonSEkGG+Dwm8au3CM9iK+PYfwRu52qaoW4jp8cVi85x2WyMq4l6URuajJDIfxXTGRGtQ0ulHSSeJktUmYUMMHbI3AdgxB8MTA2qJUw37hVqv2AbR3CJQp0ifaSONLJDfzN9dEq1G1c0sV7IAM7cswbTmRsxZ3YCL2j+Ojq3/gyfxMnbgDSm2R8o9XcdUhsbgrijI0eLe1KltARdET217H9e3MfNo0GaayJimxCqR45NExExfHJBgeQOHkJQMnTt33Y+rvvt5nLeiETPXN6CqvRElkXrh8iyOU0KrFsKQktB8lIZJUaccMGJXZA67ljztnHWmdMpWoABK6XgkEKVUTVo+4TKlvTdM2281+NuLqN5HF6B4s1eul0XrUdVWj9nNjXjLqnp8+Bv/D9/YcTdewBvYC9aOSgmrPnPxJaNJh0FYuX6SJAc72eG4Otl90WnTAi6IFkBXDgLMfADlxDRMGMk0MkkTVsoQxiWWyjiAfmzFIdyXeg7X/nQl3r5mCeas8eOs0FJUtQRQ1EqnSkDKcXhifiHxkLRNpm7aJCDZ8CUNoCQMsXPWnftCVudVuJOq25SVmuX3EER1ZhUla/5uxQ5VRNZ9Os5YtiTqhwBpRwAz2uoxbU2tgOlH7/g8fnLk93gFh7AP/ehDWkhNjGRK8kbJtaoD9jWIipagM8dcUC2A2TX2t+CC6Ni38TG/4WggynAleZAnhEH0mbRU1dyDI2DE4w0Px/H+5o/i3I2LMaM5iCkdQVSFgyjpqEOJbSdkTSOCKKU2nuNexXuemApdUIBKFn35fQEUxRRrlLbtDgrBkmvO6ySQ9tqb3R7ttUK3VxXyYVprABe0LcP7Nl6OL93fjkcNhkR14RBtpSAvARczRuNCVT61yLCvqj1R/debG2uqhu/p/N8F0XHo3aGgqQBSCJVssNTHBFEjbSqyEGSwB314Brtx2+57Mb/14zhnbQPODi1BVXMdSlu8KG2vQymZlUK1KO1kmQ4SHVO1VUBRHKXEpgLVTwsgdYAof2PWJJGVRAmUBEzVBgK4NlWf8uh74QmTzMSH0lgQFUwfba2GZ+OFqGypxVmhxZi3MoC/Wv9hdO78mbT9HvSjB2kkSR2YNpB2lCjhmufcqPm7j9O7BVwQHYf+JVGwYmFXTOwMkncwX6hcd2YbkW0JhnB8diEpauWPDj6OK7/zJbx13XJMJ78ngbOtBhUxqqQBkTQZqqTsnDbDvAZRAVJHsLymqytgm+cxpV4BToKn3nJRBloSVSBKILWlVi2ha/apMNn5A/CEyF1ai8pOVe6kqKNaHHJT2v2Yvake569Zgku+/h/47u6H8Bz2Yh8GhNiEphVWQtUOKIfJVLLI1BBj4L76G4ch537lGLaAC6JvonG1Y1bv38Rbsy/leznZFAWyKgRnMdmdydvcBFD5CubRDEgQ+Os4gEesF/Hl38VxzoolmNu0FFPbGlHVEUAFKeoYJxmuyQWX204ikUAFQDWwaDVe708HdZ6/jWq6U1XXv3e4vf7t3PP3+1XlUTrRNCOVzcJPAmnaUcvIFBUKYErHQsxt+yDOWrEY//LLZjyQfA6v4oCE6rO3WMxZOZ4A9qkwRVEstUizR6A1kLLI6HpiDz3u9P7EPsV912i3gAuib6JF9eDV++N+K99gPyiLULrkxpxtUe0NwExZwrKUNlJIWP1CK8yiF0+ZL2Ddo3H4O67C7JsCmBNahqqOepSEGNZjkxYTNMkyTyeJ2Pl0wTiHx30iS5tjeu+5OFMBVAKo3Z4qeJ9B/HUoigdQHKtHWUcQs0LLMG9NI2paPo6bHorg0YE/YhcO4LAEmqWEZtBIG9kUUlZMNcw0khn2LY0AJ/bQ407vT+xT3HeNdgu4IDraLXqUzyOAWrBEGmFhNRJeUPVjoU3yXPanEziS6cNBdON5bMcPe3+N5V+/BmffUIs5a+rwltgSVGxagMoOFn1j+JEqw1HMcsTcOgmanPQMMGf2jg0AtA+OKRBN3M8XJ5s42wJ2WRNtP/XBw/ZkaFhcRTjwtSy2V7KpGrPa63FWcz3m3FCD4Jar8fX9P8cz2Ik96JbyKmqRVPyuip7Qyi6eJwqiRxla7qVxbAEXRE9R4yvpQcGoIfWMrKxDgrLJEaSwD71SwfJnBx7BP959Pd6+cQnmNAUxnSQhLTWoaF2A6Z0BlIeqURaptXPdKX2qOkZiB43U2HnjKndcsndcAB1xESEwlkRoSw7YDiZbEqU0qquWimTK1FKmx9agguWc26tR2rIA0yP1mL7JL1VIr/r+l/HDAw/hJezDfvRLn/ZbaSSzdHuW2E5dED1Fk+4UfY0LomPU0NoDz493ql+seWSk06q+Ozk+M8w2yuAN9OF31k7c+PiteNtNSzBjlU/VNWJN93AQk7YsRCW97SHSvc1HSUztPZGLFYtRxAGaYZbwyG06dlKX53Cl0pzkrEG0lECqbaJcdLIgqs0kjCmdD0/sYnjCF2HSLfUST1saDaIiUo/yTXVSi+qsGxrwhQejeNDYhu04jMMwkaD2YTCvjOZRyqUn/uC4ch+F1QIuiB5Xf2gYZIYKPT+55+r46B8ik8ce/JRF01ZakglZ/+cgEnge+xB69i40xP8RZ61ejNntS1EVbkBZNKi8xqxjxAqbnX4Ud9aipHMBimIXoSjKbTCIqiwjsr0rxneCqa6B5IJnDjx1W2gQFWnUBlFZdAiidsZTcaxW8Q1sXoDiLdUo3eJFcacXRVzU6OFn0bzNCwVMZ4aXYtaqhagNfRrrHv8Ons7ssqVSoYIGtRAVmcGxdPRxk7uqxh3Hnt4Gj8HcK92jU98CLoges82VCi7h0xkDsLcMJ4MObJHBnUsB1FIo9wzI5lxJGQzQZu1JUwrDHUIfXsE+3H34d7jsW/+GuSuDmNHUgKq2IMo6/CgJ+1Fk2z050UUyYvZNpxclcWbZkO6Nue/Vwp2pyhDbjiabhENCnUjEYavzriQ6PIjq2Fm2s24rtrcKkaJdmbyqJG0ht2otJIU2S1TtRxHrPzF/n6aBsE+iJqY312Pu6gY0bL4W3951H17BXnRlHU9pKSTIoWdxfAyTpZY7Rys6XZAsODh4/KmQfr2oH3Mguy8YoxZwQfSYDavdQRzEaSHv1QCqINHOUrFZ5ZmhYhok91XVI+ltpxOJHEt9SGI/evA6unHf4Sdx7Z3X473rL8XcpnpM6vChTNTIXJoiK2zqapoaRDmxFWCq9EUPbaBCTJwDCA2W2WDyEapwamnszN47Q5502JMOjVK59wRNBZxU7ZXNlOWe2W4ETsaXSllnxqFKlEQNymJeVHX4MGtjAO9Z9yFce+d1uPuNh/EaunBAKlwl0G8lZWwwHphgqsYMnY22Q0oqE6hwOAmfsoGU41CPQboqj0cbOuYwd19wwi3gguhxNp1F8glGAmYMGfipDOvxZJCUVEyW4IDUM5chLfq7iBlImUkcMXtxCL3C7/k4tmPds9/Ge9d/GPNW1mNe22JUtHlRwYkao1TJeE86MDSdmy1JimSkJjelJaVyckKrST0ECB2vF6nKdS6N6FxSmVsOALVtokoa1RKp3c66Xe32ZD/QlqrtqWTUF3KT2AKUx70ob63BWW2LcP66JfjL9VfgSw+E8Ki1FdtwACzpfDB9WKI1GBIlxQTtkGEZWxIOB7AqKzdGonJB5uLNsaiD+7PWpeMcy+7LRrcFXBA9zvYUCRMsambag1pXh2Q+u9rSdry8pP3JoE/jMHqxG4fwR7yGyHN3YmH0Gsy6IYCZzQtVSeKwH6wRxIlHpwXLXDhBlCp5VsV0gfAoQJiTxIcsKGPYbgpEc7SBJDihmaW4U3G2FkeqUdFRhymtAUxd58d565ZiYfxarH3sNjyFV7ETB0HTjs564iJMAE1YlmyM3JDxBYIpY4y1EYkwqmpquSB6nJN4jF7mgugxGpa2KT4IokwokkHNwczndiVNneanBVAO9F4kRdJ4Cbvx88QT+Oi3/gNn/Xcdzm9bjskMWYrXY/KtC8W+yZIWpZtrQU87j3MgahMMjyEInErAOR2/ayiIUqNgnO4C6c+SeA0m3RqUyAr2eWWzD3M2NuK8lQvhD1+NOw7+Bs9hF3ajx6bcM8GcJkqZsnBbGZAFkWONiW0cd2lGeDhe44LoMSbxGF92QfQYDZwDUZWVyUGsBjKdRiwKZ8FMK0eBkUmL7ZNqGhl/HjFexL/+bC3etWY5ztu0GLNbGlDeXCu2T6mqybLEsWoFnOIkUo4i5RBSAOrGeY6PhHm8gE8QHbzRW6/MMso8Q6eUqpzKJIiKzgAq2uows30hzmpajHesvwR/f9cK3Nf/jMSXMla4V+RSEyw0aDE0ylAppBxvTMogiBJkNdAeYwi7l8e4BVwQPUYDUxCVrCJmFtl577RICYmIZSKdSsJMJ2FkklKElz7YJ7ETLc9/D2+/aRnOa1qOqg0+TGHIUrsX5bShkQw5Uo2S7MbnahMpVNd51/Y37l1ptDDbwNlHdPrFaH5haZIa6d8yVg6ILJD+logK6WcvittrJYytcoMf8zYuwVtvWoZVT38dj1ovS9ZTH1gvawCWkYKVSiEjNlMLyWQqVxpbxmMu2OkYQ9m9PEYt4ILoMRpWg6hW2ali0eNOqZMe0wFrAD1Wj6RqbsdufPPlu/GhLf+E81cvwcxNjaho9aMy3ojSzqB41QmSJayuKUzrZFtnJcpaFIc58bxZEhFKNznHhguiBbuICIhq8hMFotQkSFxSGs31M5n1ubHuk6TkchyQLSpaj9JWlnRehLesXoQl8WsQ/+OdeAlv4AB6hIAmhSTMDEs6M0KEq7qiTuSinuWscX30x5jJY3fZBdFjtK2K11ODVjEsZYRggrV3WJKY5XalqubAk7jqji/i3Ov8uKBtOSZt9GFyhAHzAVR0BhUbEEkswirvnbnvpaRgI3gymD5bZM0GUvHQqyqcAqiuJFqQkqjE8ErfsQ/1IqgL5qnUXPZzaYibyiKT5AdKq2SJiqlFtrKjHlObgnhb6BKc9dU6XPHNf8M9/b/Hn/C6RJgSTpmiIXInvU+0x9uefHEwuSB6jJk8dpddEM1rW0aFDvpzBtLTyM+6RiZJQnqxDfvxm+Rz+NKv2/BXTVdg3rp6TG8OYEq4HmUhkvwyENsLT8cCeMK1KGOpYjsgu4REFnYNIwIoSYF1fCffoypVuiBasBKovagJiJJNSxZCBaJSdVQSJGjX5kKpF06VSUYSaMaZckx4Oqolo6wi3oDSDi8m2SVK5q6vx7s3fAj//L9rcF/fk8KpQJ6ow8YRxVzKsSggqiJFmdKR+3MjR/Om9Zg+PcNAlP5zUserGE7yPEoBOLuJVW6ICqFX/22qXTv4mRF6DJrfh8N4EtsQ3vkjvL/tY5j0tQWY3bEIU2ONqIgFUBpRNYx0HSNOpNJORXBByYMTT23aKaEDvpXaTjDle9Smgu8LHUzO1PsTLSGbIVYnC6G0haSN5uJ6VeVU1e/ZxdKuZ8VxQj7Ysk6fLJ5lIS+mxRoxM7QI01f58e4Nl2Plk7fhD5mtIpUOYAAG1Xsu6VzkhR2MI5aMpVzmhwnBlzFvG/h5LDNBwa49/N3dCbbAmQmirI3DLcMqmrQqARl62i16RE2kSaArVHUppKwkEpk0epHGAQxgGw7h1hfvxqe+92Wcu3qRpGpODTWiPGyX4pAMIpVNpDKL7AwkO8PleMBGTzK9P573uK8ZH7uxE0QH9ZcNotlyJcOYY/h6qvYEUdrKhQuWNIYcQ1x4I37hjp26sR5nr1yIj37r89jy/F2iATG29Aj6kUQKaSuFtJFESjaCqwqPElNU1pivMuicBChacj1B7HDfZrfAGQaiApd2uLI2yavVOZO2YCYMpAfSSNkVNRmNRzsUS+buQA8exA5c+7/rcd7KZZi8og5l67yYEl2ISRGq73UoEUo67aHV6ZnjM7ldUD117U4gHWK3HuS1H/5eNIjqMDaPXdaFn1US8aEsHEBFKCh8CpXr6jB1lR9nr1iET/7gOtxvvIDt6MJhVTZPpFLltrdd9tpQKk4o5ucz2y4tm6vsjy7+n3EgytU3aSZFwpQ4PJFC4+cAACAASURBVIlkti30aZZ1IFkIs5IMidfbi8MSDH3Tw7egOvxpnLXpQ5gZXo6qyEIhCaG0QACl40Cr79yr4+Enz7EAjvYy53as17vXT6ydx6vdnBKrACalVKb52ns5FjuqT1Vt7ahDZbRBxty0jqWYu3EZ5oevxtd+HcOT5g7sRrew6qcsA+mkARgcz2pjKqloWJm0jPmUlRL1f3Rh5Mz+tDMQRCG5ygRSIX4wLSFmMpIWUgkTiSQD5g10I4kd6MZ3Xvsl/C1/g7euW4ap64MobwmosJTOepRQRRe1q07Ffwp45lIAh0gnw6h04zWR3e8tDODVIEqbKY+dz1mxVULf5LwfxTEVEjWpvQFT1wZw9ooGLNjwMdy27R5slfIkVO5NCcGjrZ/alZVW9Hm0mFKrGlTjyXYRnNkQePK//owDUTaZSqfj4FINSC8n1+c+mMLv+Tp68JM9j+LTd96Ad6+9FLPXBDC12YdJIRIkk2zCh+JYHUqENMSL0ngdSvlcyCgUIYV2HLlgVRhgNWb9cBS1XYPi0b7bCZr69cr5qMxCpZ3kklUbtROOMWo+k0MBzGyrl7H5zjUfwie/9WXcueOBbC4+raVJK62SQmjAskzZOPbtYa+0+uyTkweTM/UTzkgQZVE4Sp7ppMp/J0POIQzgFRzAw5lX8NXfxnD+9Y04t2UJprfXY1LYh/JQDcrba1AVqkNlhxflIcYA1trkvCToVYxKOc/7YI/70SaSe20CA+0IDiQNiHo/Uh8rEHWYf/h5rI3FzKfNdbJ54qxaUIOyUC0qO2pRwRLZbdWoaK/G5I46GaPntCzFOdcF8S+/WIeHrBeFJYpheDRLCfNt2oSRNFVBRO2kZ6AKY07dx0m1wBkJoumkhYEBAz2JFA7DACXPx6xtWP/M7Qh0/h3mranHtJYAqljHPU4S5FqUxmpRFqpBZciLqpACUab2kaS3SFjObVo6qeWuATSPXs1V5wsyYH4kgDuu86MAos4oDuGNJRNUZx08shFQVUowF26CaGWoVupsFYfmo4zjMu6TsTq9PYjZq32o7vgkVj1+Cx41XsLr6BLHaG86hb6+JBJ9Om2UHnw7iUQgROv2en9SuHJGvXlCg6izu51lE/R5vXf2KNWZpGGI6n4ASbyAg7g7/TQW3vaPmL3Ch6kb6jD31qWokJrjLAuhpABKAhKGYheIE8ozqWvE0BQWMVMF49TE0yA6gSUsF/CPD/BPUp3neBkkrTo+T5NqF0U5Bpl4UYsSe6/GI8dkDUpZ6SBcLZy0c25ZImN49oo6+ON/i+8c+g3+JIXzkuiHiSTD+FSEqZCZcI7kHnYqlJPoebhJZL/hKJdyH3kGHJ02IKr6SnWr7lznnrFzaVjoRxq7jG5sxyHcf+RZfObHq3HB2mWY1dyIqR1BVESpTlXDE69BKVV0yXe2M1GkBDElA7uuux0Q7/S2Hpf04gLU8QHUGd5OelxpSVURcKsFOwuwdnZb+WbGKVfDE14gY3hymw+zmxpwweoluPp7X8M9h/4g5qrXDNKDp8QBlQ3yy5gSM50zkjpmjuMwHw/1pfzzZ9rzCQ2i7CzdkdzLc3qLHCd5SO5FVlw8jBTewBE8hh244bHNeMt/BfCWjYsxva0B5VKew4/yzQGUbaYa74Nn00Uo6fCCKZo6v13SM1kGQkpB5KVrnuGT3l1ARlfz0CBapMeb3ttpwkwX5rgsjwbgaZkvBDeVt5Lsxo+ijhohg57dsRDnbViMc/87gP/8TRsesl7Ca+iRuaDY8lk4z7STT+wJZc+l7ETS8yl7Xh2McDrvVaf/0wkPouwig/Vp7GJfqr4RwMq0PE/G8IPox2s4jD9iFzqevRONm6/FOWsaMXtTPaa0B4QIhNkiJITwkGUnTMmTgzOI0pAqGlfMwnERVnckY08AHm6sr0PJ1a1h5EqWY7CA6nGleBXU2OP40xvHI8clixqS6IbxpR6mkLJkDM1RcR+K22tkjM/aFMTZaxvgi16Npie+i6czb2AnumxWfVI5pqWoomlY4myiw0mR7/AgH1xdEHUuDQUNoqoTh6+iqa8RPAmWqVRKOjtj8thAwmRxOAO7rG68gH24q/t3uPz2f8dZNwZFdZ/cHkRlyI8yO+2OIUtKbaKNyq7caO+lBg/JRLI57+p69jztWGMwidzPdNtV2Us110Junxt72v5uOzEdji6mnPL95VG/jPXJ7QHMbGrAuasWwR/6O9xx8CH8EbvxRuYgyF/am+pD2jRgmRkYaebl2+VH7AM957jnvNObE1DOxOMJD6LODjUNAykjhX6RPgewA4dwX8/T+OzP1uO96y/HjJt8mNZajwopb8s4PNujLmS6do57PnA6DP0ENe0E4N7l+3RBbqwXOud4cx7L9+YBpnM8EkDF5CSpyBy3Ko65vMOPKS31mLEqgHesvQRXfee/8JMDj2E7DmI/jqDL7JX4UsM0pMS3xFIfA0QJpmfyY0KAqF7xnCshj/VSycMUAdRK4wgG8AZ68LvMNtzwxM14X/MVmPSV+TinYxmmtzegeFM1SmlLygJoDgz1INWrvCaP0OedewlFsQexDF5XEnWl8bEYA0dbxO2FXAFmjjFKjdOchCopxLYAUBL2obTVi+kdjZjdsggXtFyCd667HF98OIIH0y/gVRzEwcxhpEkEbdH15JxnOa1Qz0m9l/l4hiLpBAFRhZdOENWdxzozNJDT43gAfWBhuM0v3IUlm6/FeRsXYmZbEJPafGJkJ8dnGe1I+VLkcOq4AyD5ep2NpIF0dEBUD/SjS3TO73RKG9nzYzF53c88uUXBCX7Dja/jbV+HtMm+132u9/njUJ/XJikKBCWxgBrz/M5smrIfFSE/Klr8mLppIc5aswSN0WvQ8sTteNbahn3oQnfmCDmiJCRKyuHYKryeh3oOcq/PnYk4OnogOoLx+eiNqt6UVQaG+QzLsqTaoWRWkMGO9hqTjDTkWFLVNxkwvxOH8SvjT/ibO7+MOV+6GG9tW4RJTRejvONilMdq4Wmfj8qbG8TeWUQjPD2a4u20JdH8Qe2YBLmBqQaxVqWcgPbm1ToNoHo/PJA6v3vkCTP8e9/8PbmfM2ptJuNHm4tOol0d41DGm8OkNNI41GOGAKrBVO15P4xnJr+tD57QAiEOL2v3g7We3tr6QZz9FR8+dNs/4mcDj2ErDqILyjxGgr1UxkTaNGUOch5yY/E8btk5PGjCDzOh39T1QS8u2CejA6K6rYZvyaP8ePXG7Nv059jv4NO0ybxfCJBahgUjnUY6YwgB2AHxuvfgkeRWfPmXYby/5WOYsyaAc8OLMLm1GlVSCO5ilMQWoIhZH/RWxhWAFkWD0KEjenCO2gTKB+Rhn2vw1PvhJ5qeENy7IDp8G53afhvuHobpw0EgSvAaYbEedmwM9x0ndm5YEGUaKSvNxlW9J5q3KkMBTG72Y17bIsxcU4f3tlyOz/5sA+4//EcRUHZlusVRS8k0nUrBMsi9mxHGsxQBdVgHft6EHoQEvKaD+3k8cR+jC6Kj0g6q4ZmBREkzwRKxAPoTKST6+2EYA+g1e4SzhiFLkW134+03XYLpNwYxrbkRk0MNKGmpQUW4DpURL8pYvjZSDVZaLI4ryUAPLCWRDjMBxnhg5yb98X23BtLsRLQnZPb8KbvfE5vIud97Or5f96He278xC6KU/EZBIj2JPlbjXTmXWI1US6NCoBOpFRrHSdEAipurMSkclNpgk5vrMfmGOrxzzWXY9Pz38BRexS5QbOlFOt2PZH8f+pMkOclgwLRkjg4PpCOBgguiI7XMSZ63G5aM8w4Q7TNYlsNCH1I4iB7swB7csfPnuOy2/4dzVzVi6voApkUXY9KWhSiNs6qmH+Xct6sBwnQ5psdJOdtBoUy0FVEy5QQ4RRNcSyTZSeaQUgZdsyUXfe5U3Z/7PW9yLGjwtMeQ7i8BzhxgKeBy9PUpbme14KowPokfjdZJGmlp1Ctx0p7WBSiLKDJoT7gOFZ0NmBZfjOnNDTh7ZQOWbfkMbnmJrPq7cRCHhVOfvogEFIim7JLixy9TuiA6BCyPv/Fyb8336EmzivFTGar5yqRBHkRgr9WHrTiM/008i7/98Q0463o/Logsx+xoIyax4Fv7fBSFF6g6NQyAb/eiLNYIT0g5klQMqF0TXICUKzOvEUhPNYhyMg03wbTEkr8/RQB/iif2KVu43uTv0oTYx39/GkCd/cb+Ja+Cc+M5vmYc+jML7spJWmoThysCcRZVVJVoi1iVNOYHwbWoYz5KWudj3ubFOLttIeatCOAjd/wnftL3JF5GF3abrPlgSWRMblbrIxsRGB5FVX8IQMhst1X6IRf1h0yI/aio82yC7Da0tYZtiHwAlYa2uT5ppmbROBLMsvzBbvTiMWMHvvSbGP6q7ZOYsbYB00ILwYJeVNVLowtkK4lRba8Rb2RpvAHFsUYUxxqUpCmeTa7EGrx4nDO8H/+EOZEJoKUV264ZpS2qRuU6M99Zjvl8uI2v9eayomwGdG0jzar4bxIoxvb3nkgbFc573hSICjhp8FRjK9eP7NsF9qb7maB6Cn+rAzxVyB45SRUvqa7EoLU3ZukxCsXTUSOEJmXxGpR31qKMNHzttZgaWoipa+vx500fxb/d14qHEoyFOSJyacoukafK5jlA0T7UsKC9+IowiBon65g4Xj8sWhT2yVEDUTER54VAqAZTzNqaZYnn6HHnlkgkwTQzbV9WpQws9A70oA/92IVDeAo7cOu+X+DC9k9g1sogprcsQlWoEWWxBqnZzXhPstgILZ2AUK2tnjMtM6jSM5ltlB3sORDludGQQnPpeara49Dnzhx7/f2k0atGUbxa7Xk87Faj0vjs8BYOcqb3ZVP8WOTsVE7KMwysh/Zlfh974ckuimphpBMz27fs32wf8zwXxNyieOzPr3uT5oU8gJYQKTsVVLLutGNVa2h6PKm5oMOhCLCUVkvtkCg6n8qi9ahor8eM1kWYuTqIP1u3HK07vo/fYyteB7OeUkhkUkiYKfHip5n1RG4TC0gm0xIGxXmfwwUFogobcmFSOaDNaaSFDKOjB6ICoJaU3NCNoOPIGMtpynUV75lIKk5DCY8wLCivu4GkmZK6RrutLryMPfj+7l/jE9/5Aube6MOc1oWoagmgIlKvcoepfmwmSKrYN8a/ZQPoKWHGgyqv3Q5jUquwkhg0C9NogQ8ngga2oXven853Jpg6Jx2lk/xNSy56z4nJ9wz9DsmTdkH05EDmKIuCE+CG9qvuDy9IVZeTPhWQDu3XnCQqBelGGDPO79THJ6U1OEFUzFY274MIFgpI+du0Vqby9NVvk9hokp1Q4+N740EZy2UhP6ra/ZgVXoSqr16MS77xL9j84o/xAvZgN3pwKNOHvkwKA6kUTIOhUAoCDdNCPwUnCYtSWCEleoYVvgigSgArZADlvY0KiPKD9A/mXp4LexLEnpliqJL9nB73dEaFLkk2GT17iQRSZkIAdCv240Fsxz/duwlnfa0eM1f6cU50OcqbvJi2eQlKIkEBSHaokIDElGMoK1FqqUwkT6rPtqSWfT66DhvtIXdKiIMnnA9FWfISRVbCMCvJMhE1nWQnatAqCaXWzuHPpaVqsHSCdXaC6d91FDA4qUl4Bn9uto3zAM/Z14qsxqZKtKt1apq6bL9pCkVHfxcTuGjL55b3+fp79f6k+k+PD+6lL6mV6U2d02NYOViVfVef47xSzGUKfFnnqSQSkMJ5xc21mBtfjulrAjh/7TJc/p3/xC/xMrbikBBBD1hJCUlknScC6UDaRMIiq5ra0hkL3FLkv7BNeYIdpipprrCk8FX9UQVR1nGXeu62lUMA0wZQJ4imLIYvMXRJVdVkquYeHMZTme247jdRvK/pY5izbglmtS3GFJbnCNWjIhJEacT2pnNFHASiORUlO+Bk8GhblR5Ao7/nYJMVm0HQnBj5m0wURVmmVnmCOCXlgGxUn5SNKqdescaO1Nmxq34qwLUZesjSw81ljhozCVSPIbaxXuCG9KvuZxsIOQZywKOONShpGyv3LG4onxWuQ4m9aSDlef19un/lHsZzIaMmR03KZi7jvCuJBeEJ+VAS8guYVnbUY1JzPeZsWoK3r70UX7i3Fb83t+N1dIPRpf1WMguWDInKgWgG6UxGQJT4QI3VCaKCJyNEoMoLC+Tf6INohrR0AIu/UYoXk6edfitqPVm1M4bQwvagX8T/J/AGYq/fgwUdV2HOTQGcHV6GKR31KG5agMnxBikb62mtQeUti7OdyU6VrCNS09kZSINClQoIRDlZyPsoIKpzmAmUUi1U1dcRI78dTygTzQbQorgfnk4/PKTp0wBq70fLHKFBw90PXmSPF0SLQuxDOmsIgqy9pftULbCMDKFGJBR1jAxxgqcNwhqkCw5ERRJVc0zmHIWXsA8VNy+Cp6NOtqrORlSEAihv9uL8LZdh9qp6vGvtZWjb9mM8jtewCz3oztBiaii6PY0PBFTGgVMzFWHLDtq3JVFlB3hz0afjgaujDqIUwTWI6kwjRZxtgYUJmPHQjwQO4QhexSHcuftBXHnnf+OC5ksxs3khSNdV2laNklA1ymXAeeFhXfd4gwCoUwLN8ioWOIjS2+npqIUnpLdqiVnNxeupGjpS8iHKeNbcpFPckLRHURoYDKQuiA4GvdFeBEYCUYYBadCjBEqboYQFxQiayslJR2dJuFY2FeBeK8Xn6FgqjnhFCs2q8wRSW7KdECBqc+mWdDYoKTXMcELSSnpR2laDySE6gBtxzvplWP7Nf8ftO+8TRjVy6vchYbPqq3RRlTqqBK40fSdU6zWIiuf+DANRhiuQqIANIY3BFYeG5aQpaWJpGOjCEexCN36PbfjcvU04//rFmLG2EVM6FonTSCSyiMoyEo87HUZM1cxT4bUkmpNClW00O5HGURIV1Y6qWcgLT3u1SCalMcbikT3Ki9ItPhR3kvx5ATxtF8HTfhHKotUoZ0G8uKrr5IlUQ7bQAiGNEFWR0ulm254qv29sQSTbluOpTo7jd48EogRMgp6nvUZMOWSSZy0uVn9l/5V1elGxmd7tGnjaLoSn/QPwROaj/GY/yjb7pby2qimvzDwFrc7bzijnPNOqvd6LUyrMhaEGZRGGRHlRHvZjcsdCnNX6QZnjf/e96/GIYbNEifcjDcNMA0YGZsoUDz41VdpItfeejPvCul/gIVCjKolqENU2D5FIDQvk+ew3B3AAvXgqvR3rHvs6vG2fwtwbApjbuhjlLWTmZi57nZ3PqwpwqcJwdUMcSbrznB2rjpVRXCb/OIKoliq452QheLJWk6eDi4OqzlgWq0NFtA6Ton5MjvqkgmgFSzqEmUFSi/K4X8JLSBpdwWiDDq8w7os0ajP7uJLo2C4iI4EoF8ecHdwLT8cCkUBLI3UoJwly2IvKSB2qIl5Usi8JKtE6VDCIPTsmWCmBUmxOCpXxYttF+d16G9/FLGcuU9l9thlNV3cQhigdd6qkcFbIZTw2A/jLWnyY07wYZ69oxIXrP4IbH47ht8kXxYx32OgVbDBThoQ5MoKHIKqiehgprkrqFXoc6aiAKM3BlEAFRKFy3gmkDLAluWuv2Yt9OIyHzVdw+Tc+h6lfqRPVfUa4EWWtNVLDnSuYKkHMOEpODi1ZqtAKLXlqFd65z4Fp4YGoSCwdNSiPB1C5uR6VMTLqBzCpPYhp7Q2YFVqIOaHFmNnWgGnNAUxtCWAynWkdQQkjoWo0ORRAVYQT0KeA1Gkb5aQbR2ntdP7ukUBUVPj2GtE0mF5c1dmAqVsWY1KkEVVt9ajc5EPl+lpM3eTDXPZtaDEmt9ZjUmsQVR12yRnaGsNMR1bRGXrhLUR1nvNLZfbZjt1stIlyOqnrOnFFhRxSWCgOVctiUrJpAaa31uNtsctQ8YULEYx9BvcbL2Av1XtrQDKeGNRD8CQ7GyVSRb03MYLxRxFE+cO5cjhAlEG2Vhpd6MPvEi/iits/j5krGzC1fZFInh6ppMmMI7UxbVPsR6Spo2Qqm45rC2RryzgBlMeDAFcDypuSRPkZDgDmZ8j7VYgUbZTKTqkkH1Ff5PXKo66lEk4AOpBk66gTh1hZex2mhBswuTWIqU1BzNrUiDkrG/D2jZfi4shVCNx8DT70vf/ApXd+Hpf+z39g2Xc/C983rsWFmz+Fd7V9GG9Zv1iYqWau82F6cxDTwwtR0e4HuVFJsCuqoDir1D0qBnPFYk4TQO535B3rdjrT9tl+zbWH9qrnNBh1LSsJ2gXh6CAsDXuFk6EqHMTUSKMA5rQN9Zi9rhHv7PgIam+7Bou+/S/Snx/5wRdwyR3/jsCt/4D3h67Cn224BHNW1mNO6xJUNPlQ2uaVfPXB6rwOlyokSZTjXAFoCYWbPBDV81GDrRTQo32U2YOh+SiPelHSUYvi1lrMji3HjLULEYh/Bvd3P40uDGDASonARWe0E0R12OR4OIvezHeOMohSFFcgKhlMZgY9Zr+UHtj41Lcwd0U9ZoRo+2Q1TarpXrENFpOmTjbaAylZEdA0iHJvx7XZwKVDhfRevX4kELQny4hgoQFU720VUZw4KjCeDFBMJ9WZJhwkOoBeVDI6EMQzq2JCizt8KO8IoKLVj0kbfZi3cRHOW7MEH2j+a3zqjq/h9lfvx2+TL+EV7Me2vI3nuEY/gzfwW7yCu7oewarHtuCj3/x3/NX6y3HODQGcvb4BM5uCmNymiHVLaI/iQGWmTHiBmANK6MQKMwi8DkVO777EMo6tGlxo0ilDi/Q9CTDa5hAd7TBI+nNI+VyA1BhjXnlA6nFVhryY2hHAtKYApq/04R0bLsOnf7oK3zv0MB7DNryIPdiKfdiO/dhu78nL+SL241dHnkbzk99CTfNVOGfVIkxd58f06CKxHyo7Ok02NGUpCZVEIMOO7RHH8lj1q5obWeHBrjaam39KxVfCTEBpSxx7oQWy0WHKks7lW+pFwJgaW4wpN/pw3W+3YAe6cSh1RECUmKHUeRVkf0aBqATNSxhTDkTpWKKBmIENf8JeXPGtz2Nu8yKUhVQYiDPDQ5E06HRIPXDYMQRQrdbnBoiWEPReT5AT22vw1PuhIJoDeZXZUWRLmwpM+Xs4+GslZ78sHERVWxCz2hZh8o3VePuG5fjUXV9BdOuP8Tu8iq3oxn4hFEsKJ2pSCjGwGANrgafFdzkAljlJ4RAGROV5DV1CkPuw9SK+vusX+MLDrfBvvlpJqU2NygQQCig7HG2pHMBttNPVobSTTjmHd19LYqd8Iub678T66cTff7wgSjDNgqxUfvWipLMepdEGlHUEMTUcxIxmH+auDWB+/Cp85cnNuDfzPJ7HAeyVPk1hAAn5S4J/POZ/A/1CbpzCPhzBk3gVm1//X1z1s6/hrDUNmLLJj+nxhVKeu4zOx0itlO5mIL84VQusr/S8U3v2ixNE7XmU1QQ5r+2MLu5FeApgRvtiBDs/g6clQjwhgh8xQ8yA4kgqfK+8llZHTRK1w2RB8hA2hAbRI0jicezExS2fwIyWBkVuwPxhYTHSwfB675QaNahxf+IT6Pjeq7/L8T0ihXBSMZ1UbXR8iYosajtVd6V6key5lCmoLQsw5+YPYsqaOpx9ox9Xfuuz+FHXb7AVu7EbXTJcemRyGVm6BhI20ATCPwZ4cKNRhMkIpBobAGkATVF79qEPr6MHL2E/nsQb6Nx5Dxqi1+K8mxZh9rqg2FdLWmolnKpiS704PAjwIuU4SztzgI95mxbOd+SDqDZxOCXRIU4dSqSdfkz55nJ4mqoxo6MRc5sa8Na1i/Dpn9yAB/AC/sRKmTiMPkkaMaVPOf7Zo9zYk6o3Vf/yeAApdAmZeBeew+uIvvJ9vL/9I5i8sgYz44vFgUgQpaefWpmkiBZ0f3HuaBB1zCMHiDJ6QWUOElDVb5rSsRDvbr4Sv8q8jB6JErXjyiVRR7wsdsqOhqrC3Y8JiDIjSYMoMxYexQ68b9NHMK21QSa0NKROx7RVdKW2OCaedELObjUekz634iqwVDZPFSxNAOVgl+DqTuWdnNG5BFNW1+H97R/Fqie24Cm8gjdEljyCVIbTh0Fe2uM40kqrznMYcWMwsk5cSMBEP9KSm7wHR7ANXXgCr6Nz209wxbc/h7esXoQp6/yYGluEkohfHFkSq0h7lB3bKL/hDAJQjpt8EJWFkIsKgdL2hjtBVMYapffNKpuMRd3mbWjEB9o+iqYXviumllcye8G4x34rgVQqrTqLKpnuuCyY2pkmjvMDaUZKJ9CFw3gV+/DTvsdw6R3/jhlr61HZ6kc5JWKGv0UVYYmAfsH2mQZOvbfncBZE7Ta2n3siiguisj2Ic9cswy+s50XjIkS6kqgsFGodpiQqUJDJyEBj1sJfNF2JKc0clI5KmwKgw6xiHDCOThj/QUSQ9KOUQf/MTrEBVEmodRLCVNURwOyNjfjL5ivxg+5HwFJfElicScAwEjBSCRhmSrK1srRVg1LaOMvYajkyMW0mSZuqDEM6bSBtqPIoSRhiKulGAvvQK+QPzX+8A+/bdCWmrAsIOzkl45KOGqEMLA+zSF/OETUei1IhfKfWJLQdVBYVHVZEzUKDq203rYo0YM7GRrx37WX4zu5fYRsO4tUUDTKqHxi+l0mzfo296rEb7blgz4JBwCr9a6XQe6QLyRS5ylT/PYlduOL7/41pa+olGkOqMVD9ZVUG8RM4BIyCA9Q8AM3OXz2P9Z4py1Tta1HZHsC5qxfjfryAQ+iXFlPZSwpDsm1nt2Yh78ZEEmU+rJZE2UC/xQ78RctHMbWFKmaNEGyogcHGH2cQParEqwdHQEgXaM8lhyltjkJay5hPxnmGgpixzo+ayKfwnf0PYKsULxlA2krDGEiRbUXyX2koV2VoFVgOHShKXBE4lQqKKkxM4m1ZDMy0kEkbUnDKMgxYlinfMWANoBv9eAUHcHfvH/DRH/8X5q5vUPbGcgAAIABJREFUwGyy7HT4UUaC6uwCoEwSAibO315wE3NsQIO/W0dT6D294xpURTKVzCMfKiJ+cSCx7Hbn9p9Kv9KbnGDaciqt6gylCKLkjLCl0EGzXfVnTjrlRQJuGlYqKf2YSpE+zhDO3PuNF3HFD7+MaRvqMKUzIBSPShqdwGFs2TFGk51mMKsFhY5zVy/CL6znxFTFliFmEDv4N3RuDGrYgnoy5iDKQfdb7MR7m6/E5OaApD6qcCE2KieKBiruHRMn2/j2Kua8NprH8j0Om2z2s/V9KZBXkijBqFYCpz1t81XcZ7sfF0QvwZ+tWIz/PULr735ZWXvMAeVpNO2sLWp1tv1TDRJ7gh11OOjXqBhcySUmHY7J4GQTlmVIWJmRSUteMstG78JhPINX8dVHw5j8pYswu2OR1BmX/P2QF+VCeGITZNjS1vhL+o5+z7b/2JxzgijjbrkRRHXqJvdl8QDKO+owJ9yA2ddXY/UfbsGLoPqewAArzRqKI5O9Q+kpZSkjjRY5da+N3LXaZgoh36D5i3Zv0sgxIuPC2MdRtbEalewfUeknNogq6kmHgylaK6RC565dgnuMZweBqOtYkjWEgypnE6UR/VG8ive0XIlJLQGVwmjnhhfK5FWlQ4YbqApIGdohUovkQjPIuloyUyjhzWxtxNyv1CHy8g+wB904AkKZgYRpiHLO1VXLnRK+Ya+zI08w5xVyKvITGHTMmWsiQwA1Ddnzmt4Yo5s20xhAEt3oxTPWNoR23oUL1i3D3PBSRRAR9ivmIJsEhe3PDCihRpPFbGyAa9DiOMYgmf9dBM1saI4s2gxPs7OEbPIPDaAEU4kFDdVhRrgBZ6/z41M//CKewHYcQB+OGEkkkoaAKIGUEz5pmUhaylGopadjgSivpzMmes00+i1TSHoGUkn0Z/qF3Ljp5e/i7R2XoKq1TjLdhmgN+nfYAoj6jXl9J/2q1ei8a6eyD+Q+lBSa9dJHazE53IBz1y7Fz9LPuuq8c8pzJeaf5gek+qocS6+KJEoQVd7G4SS/8elo5ySTwaoHmACMuk9h4REnEuNFF8ATWYBJW+pRvqkW56xbhKu+9WU8j93CoigyoQAaJ5biS6SKIkw1zMggs/eb8DuyDbMSTpakVhHWUp1XpLYqtCxjpWGaSQyke8VnzHjTTc/egbk31GNqUz2q2sgDGVQsQxLCw1jdAEo760UjEFVW//7TZC8LYETZtBWPpuJ0Veo7AVWBrEQztM2XFNvKkB+zmurxVxsvxz39vxcWon0D3RI7wWoMmr4tRS5MgqDNGaH6afCM4LP8/qbmzznSz+KL1CiEY4L27gEc5gKIN/DBWz8riRnlHcy1D4jWNphMPLfAq0VC0+/Z88heINUiOT5ziwuaBnilfdrqfGwwiFJb5YPigiF1RNhiOd/A0BYtrDOjos6rn5T74U4QZV1AxkdSnSczfeGBaC4bg4MxK8lkQZTOhhopucx6OSz14InXoCoexOT1dXj32kvwi8NPiXOHzh4hYDE4HJjySsZUJZWLhz3PUcsWO9ZDVwng65zH+rnJUitiP7UASqtmGhnb+XQYSbyEA1j97O0S7D+ruVFsUczfFqcYKz7akhrNKqc1iDKzTQOLkCPTa0xwUb87C6LhOkyhjfumOlzzw+vxIvaJuknAHEgkpK3JNkQplGFoEpRml7wYqS+HA1EC8UDGQkLs5BmIjZuSLgbAuOA79j2MCzZ8UNJIyaOr7l05ZnKOJpVqqWj4ChxE6bATOkCyWdWK41NLooNAlCuKbRNVItlIrVo458cERDlACCOUogodRDmJdEqbss/mVnIZrBIozNIOBNAF8MSrUXIziUOYsVKHq394HbaLDMrgahPJdBqsFUUdLWNS/WadGVUiwaQ5UwZJTjo5FpAq4MwNGF3wi2d4zI0SaVatp53UtGCYJpIZQ0hfKJH+6z3r8eetHxZHCZ1jXBgkv9nO3dYAyn3+ll1YJqB0ykWCICNahkxi7SFWnni1iCj+TzoMy9pqMK09iPPWLMIdu34ldspeJEWDSKZTkpZIFZ6gKkQZdr0w9tPxPjJ0EtpaCRdBGSNGGpaVkijig+jFiziE5Xd8HtOamdFEch7aR5VnW+1VnSbtENN73Y/ZBUOr9ePYd6rth4LoOWuX4qfpPJuoC6JKBHeCKL3GtIkWqiSqgNMZIZAPolRBWGysRiRQSqFFnV7xyM+7MYj4tp9gDzjNGGwt2JkFUQhq2p5bCorcHHNNr7lHm3waRO2qK/IZ+vXyefxMfo9NAMOFS4CVQA4IqzhttU9Y2/HX3/4izlu7CFXNXlSRUq+FFHxkEmJKq7IJ5wBUF1SjQ2D81MGTBXAFkraUJiBqp/I6EiekPpdN4VbaUo1pzfWoiV+N57FXMsdo4+aixBblf0qgNLLIw1KFF98UiIrmoIBUOlSAlN/BSGJl134NPVj1/Hclz5zM8Qok7bTQLJgOBVLdj4UEotKHtmanF4LJkQYIiBq0idrqvMgeelacYeq8+tn8r3JeadegJErVVoPoe5o+Ikw2MiELyrFEFX54ENUdzj2lUlFHWHI57sfU9ka8c9WHcF8/BwEVeeVW0HNL7e0BocfF4Iu2BZkXR+EhzW/bC2xPFkOiUlYa3VYv9qAHfzC3Y0n7p3Ee6QdbazDzlsUobqdEmnOqCYhKTSA7Vc/+7ScLZuP5fqkUQEmMfUgAsrPlREKK1EkpFpXZVYvyNi9mbFqE/3vPShDICKDKip3roxG6M/eCYxwNeb+cUGepwvIbDyKJ2w/8BuevX46poUViF1VcuzbbGTWJuO1b0AkDTmlTmy4KQBLVIKo0O7WIkZSHIPqTYUBUCQLUrognbJfCfoyKOq+7Pwuidh0VgmjWOz8RQTSi1SdbGmO9GQ7UeBBTWxoQDP8dnhOfPOXQfLeCapX8s3o4KHsPp6d2HOkrJ7GnKiSbQnSaFeh4Yn7+fqMbu3EYPz/4e/zlhsswc70fFU21mBSvF0eTLq6mgMZ2ANgSz0SWRHnvkrEkCzd/FzUK9ic5L+ml94IVBkj8UUqO1zYfZm9Yio3b7pKa6kzVZF+d/CM3HlTf557njxGaCZgKeV/qj3jPpg9jettCYexikgcJj0sYgB+pRslmLgyObLpCBFEN4rJXXnouZE4QPWhLohy6DBkjbijzlAui0hgFD6JSUlnR7alQH6W6KilFpXUSYKS4HB1PtjOCtHZXfutztj00ISWhc1PNOUHUFNFQqa5wGmkA1VdOZpranyohTxx4ORBlne8EPfZI4TAG8AZ68OPuR/HuVctxfuelKGolOzsXC1XSVyYlJTaHbXQ8pciT/m4BUdrj2If274xTs2B+ukrdJcEMIy74fFJbEOc1XYrv9j8mzkK6BU8eRO0OyQa72aqC/VyNBb5GPRSIpoQV6gNNV0qpDdIelkqiRw2KQ7zXGpRsrkNxpyLAobovY1YDaaFIooPuwwVR3cdD9vYUlplLEVzyvflsiDqv2OuVWM8GLQBb25sCUVKisRJnAFM3+vFP96zETqkWpby2uYZRLaIlDOeU0W2lJNDRAFB+Kz+VJBeqPAtBVOyl4tBS5weMhPA29iCBVzJ7sPKhzZi3oh4zI4tU8kBkvgISsuzYHvscT6SKWlDnHbGHdv9lz+sJzP0gCWQc+/mYIMpcbvLYqppIU9vq8daNl+KuxJMSv6ioYNi+J/NQ/aMMPs7RoI6HA1GyeD2N1xCIXI3pm+pRHg6AqbslId4nFz6CqFfs8xLx4oLoyXTQSb13VNR5dQdqoDhBlMeDbaIM1bDtOHqSOSfeuBwfxSbqVOe1Fz/sR0VnPSatqcWXH2zFqzgoNGfa8ZPrDa20KTmGrTN4Kg49k3vviRyp2FGnDYnHpkHbknJiyHOY6MUAdqIL/3p/E+asbsC0WCNKYpS6qSZSQqM3W9EQCqclawo5Yv4IkDr+0Hmex1nJcZAE4jjvfM2pOB5GnVe2RKXOe/h7N9MmzOKINZjZ3oh3NX0YP008jcMgRdtoLnS6z4fb5/qckihB9E/YheU3/wNmbmxARSioeEfJHRtR/LtFrNPVSRMFtzyhpIDaP7egDpZEz163FHcbz8JV57N9z4FBVTInifJYhzi9p+kKTG7VIDqOk2rIxD0KiGovKOnwJGvJlkTDPszY4Md//GItXpdkQFUjJtsUcuBU2dk2Y/+QkBuHIV6eW6y7YGMBPfbiTSa1Xr8wQH3qR9dhxroAqkJ+lHYoaczTWo0yVldlOiTbi0CUB6J6YvB8Ngfd2baFMol532RkkkVbx1lStVegI6aaTlId1kqF2Zlt9XjnhstwzwBBlF7j0QLR4+9/jpY+pPE8dmFZ57WYtaEBFe0BlEnGmapjRMlZQHSzDaK2JJpdyAqo/UdyLLkgOmRMuCA6uElOHYiy5aX1MzTK5yTfLKhqh5Md8c/CYANWUmJIfz3wR1SHrsK85kWY0upDcfN8VEUDklNeRIeLeIDVoucEUufx6QCitJGWhmswwwbRnyefHTcQ5Tjqh4EXsAtL49coEA0FURbxC4ctJVGpYtBZK+q8hGgxZXWEhU4WEOcCNx7H9iKmSUjoWHJBdDBi6Gl8xkiiMzcGCkYSVcuXimGkG0RvWRlKg6i9N9ImUkYa/ZkE9qIHP+z6LS5u+wTe0r4MpRsXSAVSVrAsv5m1ruiEOf1AVP8uLYmKoylcg+mtQbxj3aXIgejQuIshQ3+UT7A/CaIvUhKNXaPU+Ug9yljnSLzzyhnIeOWiTjvCgCAaUVpBVhodD7Ac6TtdED2eUaKm8umkzjvtt3QmlcaCQolHgmOq85+7b31OnefPH/Q4tZKo1ti5HwKiGmXtTJmUyZx+FTR+BAnJDb9957046/p6zI0uQ0lrNcrjdfC0XgjWx2EIECdmicM2qr339ApPNEmUACoby7ow8kLsitVCLDOtNYh3rb8Mv0g+ix4MKOKXPGv2oG4egycKRNMCosvj12LmpgYw9VNJmpoMnOq8sjFK+7sgOgY9cXwfOeaOpYlsEx0JRBluokH0DXRJDZ2h8+zUgignnt60Gq9Ve32BjiWeG0iTYV9lV5FtqhcJ7MBB3PTEbbhg4zLM6GhAEck4WEgwUq3iKakq2iojJVPtWCKYCsDaqmTBOZaGsYnmg2ixBtFwNZwgSpuoypJny56ah+5Dkj6/RMdS5zWYvimogu0pzdnVFIT7IE57ta3Gu+r8qemgYb7FBVEhHRk+Y0mDKENInI6lQpNEh+lXldftcDLp14inXgBUlR1RRBomutGHl7EX13z/Opy7fhEmtflQtdmH4s4aCUT3tNdgys0LpdY6AZT1h6SKqE1iou1xExJEGXzP1N6QAtF3r78M9yaUTVTVrh1bENXA6dyzWCFBdFnnNcJ3QC2g1AZRZYrg4mXHhrI/XMeSHuKnfO+C6AmA6FBJ1K6xk9d9lEX5Nx4PZ1hT/vczAJ/4apBk3b491hrtYiVKaxuWbPkHnNe2DKVN80WtL4/7UR4PoDhUKxNZnE1bAihm/v1EBVGq8pJQwIqaDFgnT2wNprXWY7xBlP3lBFFWA2XV1rK4Xy1oLGJHKVQWdxU9UbAhTtpG6tpE86fhcM85G0+vEKeRJNHjB9H82NDh2u0UnLOBkjvZbAmVOzJMMYqHTFDdyW7sQRceSP8JFzd9HOd3LMO0SD2K2qqF8ams04cSqvhUf+O0J9K2SCl9GIdGAYXY6BAnkaDt+6UtlyBK04Rct8tes5jiu9dfjnsTfwQTE061Oq9HAzPMXsEeLI9TEg2iNF4vjPsETiWJqjhX4bq1JVHtAMyFFDmSHjSYjdfeBVHdtUfbn8kgmhoWLTVoHa3VTuU1fT9KEuUzskopEGWefdpISiD+VuzFnfsexHvWXYJZG1S99eJQDUo7GWdZLTGVwrEq9jkFolmPsB1Tqieytp1m1fxxmMSDQdRWgW3SDt6XAlFW2PRiqoDoh3Fv4jkFouRoPdXaRIaSaApbBUSvdYBoUKTPHIiyHLb6PbIgjEPbHne/uiB6PFPdBdH8VtKglX9+vJ7r+8kSOVN3sFNErXQGEj+aGgA99q/iEG57/R68fdUSTN3gRTlLLke9EvZUTI89i/WFWbRPOTY0aIpk53QyyeQZ3+QKF0THt/1zY8PNWDrG3HdBNL+BNGjlnx+v5/p+GAKlQ6EUa47KtafLnhJpX6JPpLCXsAcrHuvEvBV+iZ8sC/lQGmOdJoKno4IoJSBbfdcgOsTRNI5SkguiLoiO5ZxzHUuj4liaGOo8BxKBlAXzuKVgSa0f1n+iRKrTQ8kDkIKJQ+jD09iJLzzYhnk3MYZ0OUrayCbkk4JuutSwqPIuiI7ePHXV+TOPCk+NHjULT8dg+/wQp6GOpYkDouwrwwZRDabMyaF/SUhU7Kh9xpMSSEnm/FvzFXzk9i9g9k31mNa2ECyepiRN2kiVTTSnsuXy7J3n5HicpFFXEnUl0dFb4YZ+kiuJngGSKJc350MLnfnnxVHvOEkg7c0ksRe9eApv4MJ1H8XZGxajqiMIYYuXvHrtJbYnqutYcjb1iR27kujElkQTiQTyt+MbCWpqupJorrXYIg5Myl04xUf590HHkjiXTBZJY3yTosrT6aLisadkamYwkEohAQvbzQP44f5HML/1rzGzeSEqY/UoZcA9GeI1S7w4lEibx/N+yWqSsKKYZlFyhNxoh5Pej6GU6kqiriQ6llNukCTqBE9+af7zo9+IC6L57ZMPXvnXx/s5wZKVQcUgagMppU/94DGl05RloR+meOyjz/0A569aimmtCkgViNaqstKSR88c74AAqYdAygBxbjwW3kvS0OUcUaciBMoFURdE9Zgei72HQKkfGjT1c+6HO+e8njt2QTTXFuqo0EE0/37znxNEdQgUCUsY+vQaDmPlk9/AOauXYF7sgyjp8KJM+Dhr7AwaSqIqjVakUKHTc0E0v22P+txV5yeWOn8sEGVnHx+QuiCaPzEmOojq1FHJaDIzUjaYjOvPYjeuuesmnL16Iaa2BFAhNagYhM+ib0qVl3pV4rFnlVRFWMLURJ0lpEOiXEk0f9QoG5AbbD+Bqn1qENVAqZ87u1Zfc54beuyCaH6bnC4gakn9a9pIGfpkYQ+O4A/YiU/+z3/hnHULpY69VKG0q2hKaWlR2am6O9R3nWrpiCt1QTR/1LggOuGqfTpBcySwHOn84O53QXRweyinEltloj7EZppR4U8kK+GWRgakaWPo00OpF7EwfA3mrKlHVasPZbE6FEvxtFp44ixNzNx6Eggzq8l2OEk0xDCOJtexlBsmrjrvqvO62udEr7F0/AQkEytONDdbj37kBFEG5HNjJnk6Y6An04fX0Y3v734IF7X8NWasC6IqVIeSWDWKO6tRFF+gtugClEa8Um5EOZxoL3WA6BiCp45NdR1LrmPp6CP95K6KY0lLo8NJnPqcfs3IX+dKovltM1HU+RHvMxv6pAA0rR35hoG0lRIy5+04hG/ufQBvvWkp3nbzpShvX4BpXw/CE7kQno6/RGnkIpRFalHG0hUReu1ZNluFP4mX3gXR/GEjKoxrE51gNlENkBowda/q53qvzw+/d0E0v11GBKf8F47z85HuUzuW6KGndsGNEVCZtAmLQIo0DqIPL+AgVj5+G+Z+zYtZLX6UtFyEKbcx1OlClEUvHgKiEu6k40O5FyBl1dWRNv2aE9uftpIoHXkui9M4zx5gWElUgyrvTgOo89zwd+2CaH67jARO+a8r1OcqxIm/QlHmEVTlYbGevQETlpRG2Wf1YisO4XM/34h3bvoQqjbVoWpzPTxtH0BRdAFKmBoaJmVbAJ6IHe6U9dyz5ruzbHUAxbGgY7PV/5OQWE8fEA1IeRDamYvitSoawgVRNSbH8f8gEOV9aNB03tNw55zX1bELovltMqogauNX/ncMeq6/UO8HXVRPskDovDbC67MgSgnUtCQwn+83TFO2ZJq+ekVo0o0EnrJ24hPf+k/Mpce+I4iKTjLfq/IizLUvYsnfWFAF3mdBlNLlYBAtsuNMc3tePzEplO87fUDULwz85HR1QdQ5gMf3eAiI8nY0aA63H/l2ORPPVGb7U+RYYhM7HoOwL++avMxxTqvmJwKiBFClwpsCpEwZTZsmUpaJJCVSi2QlFnZbXfgDduAvNl6BeR1LUdLKSqEkO64WtVOBaD08EZ+UFZG40SglUV3jaqS9C6KK2d4FUcfwL5jDYUGUd+cEUP386HfNGeuCqLONBoGc88KJHjtB0c7Ll1M0WtpOoEFgOdL5/O8f4UbzJVEBU7tiKEGUbFAmJVPDEjDtRwq7cBh39T6Kv2z7CGa1NqAi7EMpg/EjtSqTKezPA1EWWeO5nDSqn+u9klRdSZQ1llgLypVE8wfw+D4fEUTf/G1xJrog6my3EbDJ+ZLjPxa0VC/Xn6tPCbjZ6rYu/SES50mCaP73jHSzfF3KzIDllw+aPdiLHty89S68ZUUj5kWXoSpej6pbG8GKoWViF2UWk8pscoLnyBKpK4m6kuhIo2/8zw8iIDm52+FUckHU2YYahJznTviYH2Y/9OdmT+WBpX7dcVNI6Q/MvlEd8DRtniNczr6a10lUkjQU0fN+4xC2YQ9WP3Er3tF0CSo2eiXEqTzKgHxblXdBNNt+Qw5GDLZ3JdEhbVUAJ1wQHeTUcEg8EoLDmjDM9yZnJomIAygOszyGDzM2+PG5+9bjDXQhgVNvE9XAJvuMorLTbEzHRL38gac/LO+8Ps39UR/2C5nRNGAZQlRyAL3Yhv340n3NmH5dLeZuXgpP80VS5E7SQkmjFw8oidS1iQ5uXhdEJ1bG0uDeO5lnnEmuJOpsQQ1CznOjeWwhI2FGKRiSRWRadPyYQ6jtlKBKRiaCLWXLvMcINzrC6bw3K1E1OZCUONL+dApJmOjJDKg69omX8bc/+hrmrPFjVqwBlVuoxtfBIyCqg+5z9lCq9AyF0tvJ2kNd7/yJ25JPJiJiyHuzQokq+Twl3ICz1y3F3cazOIgBGVMcp6rmF3FkAgXbD50RJ3rGBdH8ljtuEMp/o/2cgCdbvkrNgPdMRoLdB5AQyY/57GmQVpkcoQpICZrCVm+r5cPAp/qmEW50hNPD3i15SQ3TQNo0YFgWDPD+LHRjAI8ZL2Bx9GpMvuliTIr6pdidFLSLM/zIhyLNN8pMJslsCqIkEpR69ir19uSAwA1xOrn2GwKIJxJu5oLosPMm76QLonkN8qa16sHvp9RowuKKbFfn1PZJK23BNEzKn+iyDuOeZx7Aj5+6D3sz3ehDAgljAKlUUkCNBEw6753B8RZ4hn3leIyAliOcdrzReajul6BvmRmp18TY/ATS2I8u3L3vN7g4/HFM3xTA5EgDijpqUSqlROpUHCdVe07OWEAAVINocYwmlZMDARdET679XBB1jvOhx65NtGBtojkQVdBH1Z3nMrBSpgS/9xt9OIDDuOV3d2LZVz6J33Q9jdclEbMPJlICvZRGNXEIP4fArEGU4Mw/eeThKs8dL4iqUCgLlmXAMv4/e+8BYFdZp41Pb5n0BBIQRVhWd9ddC8mUW6ekgSDg2vhWVz/9/LO6u7J8rut+4AIBkkzJ1FumJIB1FSuiUlVURKkioUMCIYX0mUy//fnv83vPe++ZO/dOn8lMci6cnHPPOffMvW953l99fiEpK0KrAdWzUCyCfvTjIOvYv/UgLqz5IJY1VCK/2Y7s5jLk+h3IaC4R8Mxoo42UqrwbWSKJkvlJFb6bykS2QNQC0ZHQN31nLBCdByBKCdJc/ygyFBaECsSGcIjg9PI9+LuvbMSVbV/AQ71P4TCBNNorJCFapRdKUMM8oIePglBDvp0iiBJyCdCRcCguiRJEpZ4TwuhGH17CEdzy1Nex6pZKLG+uwiJfBXJaypHX7paA+6x2FzK5kaTET3XeAtFN7Z/Dou0uWCFOetTOvb0FovMARJUDSTmGOIRioSiCQwEEEcQBnIDnpR/g3bddilU3OPDxu76M13EYx8LHEBHVXUmExEgCmvk1XSCqnsnvR/MDv63xNymNRmKS3URnUxcG8CqO4YsP16Loa2uworUSuQ2lKGivUIAprPgMgaLzSeXMCxP+ZGxwps9YkqgliZrH/XQfWyA630CU0l0wgnAoJCC6D8fge/NurNrswqqmdThnSwX+7301eAUH0YU+kWApjfIl2UwmNX1GQBRR8bCy/l0kTKKSmATiD4ZCotoz9Ok3kRfw9z/6dyzZXI6lnipkNpUjR9R4G2gDZTqohD9xLw6JqYGABaJTa7+pmFLin7UcS+PBbpE/xJtskTKr9mKLKPgaT/sl32O2ierwJLrlVSljUdMRxls4gcbXvouVt9qwzONCcYMNZ22pwi27vgVyffYjIO4knbJJzzlV+4R6T/uqsrHSw64znpSdMyH9Jn+7ke/1942q4nbGD+eOPKTq70HCn97CSTyG1/G3DR/BssZ1yGt1IrfdiSymNHpLVK79Dtfw6qAmyTI+Mcd5zgJRC0RHjtfpO2NJonNWEqXkSEDS6rHKjxcQJSiRBARBHEIXGvZ8D6u3VyCn/gNY2OlGUYMb72r5e7S/fDcOoBsDCIjkys8EhcJOZRip1FDWnjdA1KhHLxKrkSOvpdjxDLl4SFbSykEA1ae474+xamgXfjzwJN7VcCXO8m5Ebks5sj0lyGkvR1ZHOTI8a5DdqcosW955yyY6nvF3qu6xQHQOg6geFAQeATN6avi/CUTfQjdq93wPS7Y5sJS2xcaLUbC9HOc2bcRf3LQBP+16TPz1g+EhYV0aCrBKknqG5HTquCmTmq//7nTs5bsngSiXhR4MYg+O4Ot778Xbb6rA2a3VyGstQ0bL+5F3hxOZbSoEihR69NBPVPo0329JolNrP3NbTvrYUufHM53UdKE0Yqnzqr0ErMbTdGPcIy1Lu2YaEN225y4sqXEjr7EcBT47FnqdKNyAb+9KAAAgAElEQVRWivOaN2HDndfgkf4XcBT9GEQEQ6EwWL0zxmJJWkTkH0gCUS2NjvHVxnU5uR0oXQdiAfSiD/twFFuf3Il3SPllBwpI5kzS4bZyZDHdVsicpwYCFohOrf0mDZzmxc8C0fHMFZnq024TzfM4wW1aOtLcqfFjc8rh3MydHx1ET6Jmzw+wrG4dFngrkdG0FvmtZVjU5kbu9lIU32LDx394PZ7CARzGAIJU06Vsp2GoNLpWAx338iJgc5uGl362flQwGEL3yW4EwgM4iZN4HYfwbw9sw5LNDizwViGztRR5nU7JbMrykRF/aiBggejU2m9a5p4Fonr4j7bnVJm+3HkNnjMLoBxc8xtED+Ekal77Phbe5kZBawXy2l3IaP4AMloulhLGS9rWYeWWKvzzLxvwKk6ADPTBaEgBpBHypHouwdhE8NT0etMBpMkgGmKNpgjBPIRAbBBHcAJPxnbjIz+5Hstqq1HcWoEcjx1ZXrtRanlqIGCB6NTazwLR0XAPmFM20dkDTvOgmv8gWrf7B1i2rQr5LW5kS6wl672vRYZvDXJaS7HMvwFnba7Ezb/fIcxKfQhgMDyIwdAgApEgwgySFzITI39JS6F6P/oYGsfVZBhVH+FZ5tj3S7xrDx4KvYj31X8cq5svQX6TE9mtdmR6aRM1aQiTkEotEDWP91N0bEmi45gniGFoaGDa1flpWQVHnXjzHUS7Ubf7LizbVoH8FqcQemS0lyKzg6U5ykQazWouxyrvJlxw83rsePWn2I8TOIEe9GEQ/eEBBJmuSYYn7cBid6fGvfEMhKR75Kkm15ISgkmMIjXsocKeKCHvRQ9+cOyPeNe2K7Cifh2KWiqQ1Up13gJRK2MpaVjNobfTKolqEO0bGET/0BAGB2nzGsBjeBN/tf1KLGii13VihBJm6XRmVPv5D6K1e76LZXUuFHgYrE6nDCXRUlWSw1uOwo4KZNWuxbktG/A3NZfh10PPCpDuCxxWhCWRoPL+E+rowDIBKA+n9hoJomEG5CMmIEow5R0D4SCY8b8PPfjekUdwwU0bsaKxGvmtDuRI6ZDJS1CWJDr5tps2IcaSRMeeRkNDgyKJEjinwztvBs9p68iUEun8BtG30IVtu7+DZXVOFHjKBUQlYF2IpO3inMloLkWh34Xs+rVYWeeGo+kTeLCXJeWOoIfOJoQlyJ7B9iyFDNpKjTx7etKn/jKhsrBKRSR7SQL/o8rRFQ6F0R8cFOq8XaF92PrEN/C2W9dhcYMbBR5S46k8erUIK7JsHiuCEl4zrksfs08T0qsFohaITn0Mp3/ClCTR4cXslDpPEKUkKtEzseiEJNFk4NTvLRClCpw6xOmQESe6tIaSqF1qkWtpnwCT0VqGhTuqkNG4Fgt2VqCouRxv216JK7/zRTyLN3AQx6RSJx09pNcjgEqQf5TKtimINP0YmvAVDan8TfJ3gxEIvV80ItR5VO3pBPvnB7fjbVs3YUljlWQ1ZfrKkcF66zvKkdlRLmFQmT4bsn2kzyP7kwZP894qmTyz82ecAH2mSaLDwXF8cyRZEtXq/JGhrjHVeQ2W3LPDze/1uZkbCJxwulRvQnpROdtK4jnV5UFEIR4FROv23IWlNZTYDNZ4X7m0I8k7MrzlyPHakMtQoTbWOirH4lYbzt3mxDU/uxHPY78UOAlEySROoKY0GkIkEjJAlP3PbzCDL2K14DVTUsmTGkUXgngS+/GJ71+PZTe6sLipEnn01nfakLWjDBntJWKyYCxpjs+JHIM6T0mgFojO3HwZJ2gma31nEoiaAVQfj2f6EEQ5E5LVeYLoI0Ov4T11V2FJg3tcNlEzcJqPZ2ZgnH4gygVAVFid7UOgMQZxtr8cBd4yLG2y45xb3bj5T3fgNYnWJHgpA2UoSBsp2UcVqBk++/EMg8nfY+C0+ruqjv1h9OGxyG5Uej+L8xs/iPztNmR6ypDVUYbM9hJk+UqQ4y1Dro92Uy2JcpJrEFUT3lLnJwl8yUA4lfdnGojqmTBeEOV9SlpJgCglUaqFk3EsmYHTfGyBqAI5c9on1fl0kqgGD21H5HtKbtmetVjgtWFBvQ0XNn4I/tfvxW6QFZ859kFEoxHJzRev/czLoXq4yV7MFhL6FMEgAmBa68+7nsDFdR/FippKFLe6BTiz20qR4y9FjrdUKonS+ZQuKF+3Q4ZRaVTu89lAUwDHlFw3pPaFTRV4V80VeHDoefSAY5hmjRmWxIe1gPpzgwhiNw7B4hOd5bZP7otxvB9hE1WAqD45HhBN3M8fq0B0Kt55gqYZOM3HqUB0rOupPjP83OkpicZ/o0gALLuhNoJonqdUtvwOFxZ7q3HWTVX4Ue/jOEbYCPdL3GgoEkWIAfHjGETTdQtHUGKj/BtFb2wA+3AC39p9P975tfVYWVuFokYHculE85XKlu0tQ84omU0WiFqS6HSN0VTPSQmiGhj1PtUHec58XdtEde78ZCXRZFBMfh8HB5Pt1Hxu4senOYgmqWAE0Xy/DfksELfDjrx2J5Y3V8PZ8Y94IvAiunCS8igGAqzeOVIGE7tpugExhfMJ8NTuLGZNRRCOhdET68ebOIG6p76Fd229HEvrlaOJJooMXwmy/WXI8bOstVblh4OGBaLD22Pic2QaPn+mqfMER72Nf14Ml0TN3nmzTTTP60CeN3UuPAEzGTRTneMg0OeT75/4ADmzQJTOpmzWMqKdVEDUhoUtNrytpgJXdVyDF/AmTjIIPzgoVTvN/T+dpCTDnjtMAlVXtAw8FBxEKBbC0XA3duMYvnTfdhRdb0OhpxoFt1eLt570eRmta00gyj5NTHwLRBNtYW6XWT0+k0CUQzgVgJqlTvMESBwrEKUkOll1Ph0gmgHTfDw9g+A0B9EkdZ4gmtXOpAeGQ5Uhx1uC/Ja1WFpvwzs2V+Krv2rGbhwVIB2KBeKF7AigtFeytv10v7QUqp9LRZ4gKp56iRKIYSgakPIiT8b24hM/34wlteuFKyC33YUsXxlyae+NO5QYpUDzBfcO4/eyxj35SQ1CE7GJElyM65ZNdNjCMz1zywTeZxKIagDVew5s87Ee6Ml7rc5r7/xE1fl0ADrtnWmSUNSzT38QFYeKAaZUeSmJkqeTYU95XhvyuTWW42zPBpz1Xy7c+vjteBEHJC2UZZk1yKmCeYokWvW/cUXfkDwo4p8ccWHMEwpGVS374FBQwLs/FsBB9OJXoVdQ1vpprN6+CYWNLhT4KySUizXrZYFgHxMwZWMqLAvfqTA2uYdlRwREVd/LZywQtUB0zFGZ+oYMM0Caj3m7fq/35kfoc3qvvfNTtYnOPGiaVse4De30ihMVKUwvFkmSKEGUW47PLnGXuR6bpFXSu53ndWFpUxXeXfNB3P7Gz4TrkyykIaEnYQ9TPjS7mqYJRNOAMCXfUISRApSAWTI6il4EsR+9uPvY4yhr/iQW3ezAIt86I9jecKAZ/cryywTPLNkSWU1ZAqLlyJB0UheyeJ8FohaImgFuAsejgmgykI7+XM6EBBXeRCXR2QdPDaantySqQVPv2c48piSaTcJjr00ktsxON3J3VGKBvxJnb6/E39Vcjl/2PY1jkl0fFgCThXIYx6jqc0i+PY8n+RoDREOxKLgNBlnfNIKeSD+OoBc/OfwIPlD/ESypqxA7O39XBrkZRK1PACgXCC4adEDRhMGkA9qEKZUKyNK8YYGoBaKTHL7DQJTPSEiWiSfqc3qfuGI+skDU3Bo8ToMNybeN+V5adgIZS2ZJVIOnec/rYhslgHrLkUHw6XAis9OFTE85FrY6cdZWJy7p+DweGXxeMuxDCCPCVFCW8aTXniGrkl9PG2k85WjM35LyhjQNRUk0GI0gyGoJQtWnakuR6KYf/diH49j6xzvw9tvWY1nrOuT7lMNM7JySS89MJicobecxc8tPZqtSAdIMvwZRyyY6KwLMaWQT1Tio92lBlDfwpW/U+5STQE4qENW585YkOjdAVEueySBKINXnGIyv7KZK5WWaaHGTA+dsq8T/+sFX8ZLUFO3DUHQIAWamKX4ScTTpvCbWnFe/OP0ISXtlFBAlzykhWvaGYysWi8h3ORbrkYqmX7qvDqtvrsCS1kpke8uRv8ONDE8pFuysRk6rDfmtzNIqRy4D9DvLDJYrLh5KCreC7bVWNoP70wBENQaa9xzTcRDlBf0y32Q+r6+n3isQ1d55mVKTzFialZVR2wxNqp9SA42BFO90m6h+9Pxm07bmdSDba8eSWgf+7aEaHJDM82BK/EiDDambb5Sz0rKTlERFKuVvMdR4AqdIovL7DBui0BMq3k7xcLdRcrNjcZMbq2524d/ur8Nz2C8S6WA0IODJrCnx1ouESE+62eE0yo9JdSlNQ+nn698vEQJS1jmMYCQgGU1k9n86+gY+9u0vY1VtNQqbHchoLkHR7ZWyz/EwuaAMuV6V4USqQFHnKYlaIDqzKnx8jpnHGdu9DMXeCqzatgH3hHfhOJgyrnhmyQDH1F8ulErTYe/P3ktjX6q/mO6agCg/MH6wTPV4npOhLj98OqjwZg9IT2+b6DDANIA0DqwmIFVSKYFUhQCJo6nJhsX1bpx32wY0vvZjPI/DeCvSI7XjWZ+eJZjDomonat4NHx1p0HH4TWlFdoKoouKj7cAwI0RUiedAcBCBWFDSio+iD4/HdqPq9s9jeW0FlnZUI6P5YuR3cvEoUbn2baXI9pUhy1OGbMM7r2yiljo/K3MtLpScOhBNB4Lm4TjaPemujchYMj9wYscWiCa31zghJPljI95Ly05BEjWHOMUB1CwlGFycCSBVjifWOVrUVo2F2ytw4Xbm2P8Cr+IYepnTFAtJ2BGBlMTK3Ea+ptYCw0CUHKc0IzAdVbSmKIJhOppCOBntwwF04yfdj+Fv667C8roK5GxfizwG4bevRdbt5cjawSgEO7JbSZ1nR6aPduFEiJNmvFrYXIG/tHLnp19CPYUgqsHPvB85VoebLke7zmvmZ1kgeqao83QmGZsAaRxECSQGmAiY8pggYxOJjR78Ql8limtdeG/rx/D9E7/DYXQhRObP8BCi4TDC4ZgIiqN60qaGpwlplUIpw55CISTYpmLoQwhvohvf2fcrnH/Tepzj2YjspjXI6ihFZmcpsjoIng5ksW6TAChBlB58FeKkQbS4uQIXWSA670CUoJbulXxNA6D5fvO55Pv1ffqe5L0Foqc7iGqwHBVEdZws9waoaslBaPQcYsNadGs5Nt75efxhaJdRN3RQeEeDwTAiYcUwpQfcsL0G0JTS6rA7078xP4PHuoie8Ux68I+FerAXXdjy5J04b3MVFjU7hSNAQpuoylMK9TpUOBNDmlJIogRRSxKdAQeTHk8ML5tmm6gGtVSDJ9215PN8r1/J18Y6b4GoBaLxbJ44gBJ4Cbr+MmRy85WhyO/ASk8llvznGlz9reuwC3txHL1g6BNdSrQ26JfGO/1+VAk1ftPEDsxEKMRTKTWCiES1voSDuPbBOiy7xYmlvmpk1a/FgjYXslrKkMv+9rEGVZmEefE364wlhnctIhXetivw0KBFhTetttJZAFEzEOrRNFFA5OdG+4x+rnlvgagFognpU9rC8OS3O5DhVQCa22FDVsta5DeVYEWDE+fe5MKXf9WIV3EER2O9GIqFhBVfA9sIEDWPuGk4ph2W9lK+9N8Kh2krDWAoPIjDOIE/40185Af/geW3urG0qQIFzeXIY6qntwSZ/lJhxWfAvQJRJZ1aIDoDEqhJE1K8ttMriWrA0/vk4TXR8/x8us8kP1u/t0D0jAdRThxtFzVNIkqikl9ejoyWNchvtwmZc15LKZa1VGL1LRW45Qmy4h8X8mICm/lFQJ0uUNVAmW5PSVTMCcwFCEek8N6b0SP4bfBFVPk/iyWbbZJAkOsjgK5Bhp+lRShlOyRrKafDJb81w1OGRS2VeFftlXFS5nRxB+bfOu3HMcAiZR5fiBMBj690wJfuvP5Mqr4b7TOp7rdA1ALRtE4EDaKZZI9vtyOnwyb7PI8NS7a7ceGWS9Cx52d4E13oxVA8IF4PtGQQVbKjvjr+fTJ4Kq+9YpXiMfPqhVyKdfYiQCgSloz/Q+jDjw49ghLv1Vha50CRn8XtLpaQJ4JoFms20blERxMzt7zlKG6txEV1V+KBwPM4CU7QKSQRjP8nDr/TAtEJx4mmA75059ngvJbulepaumdZIGqB6KggKjnm3lJkeBmkTo+9HVkt5VjqX4dFt9nw3qar8N0jD2MPjqKfMiBjR6MxBIIqBCocCRm1mkhfotTvdAN3Muf1M7mPRIyNNlLEMIgwDuIk7tj7C6y+wYYlHifyd9qQ2VGCTMaNtpRhQXsl8juY4UQ7qQ1Fnkr8Rf2VuM8C0bTjYlK20hm0iXLcpAO4dOf1Z9KNuXSfSz7P9xaIWiCadrJI2I94sVnPnt5sldVU2FGJjLqLsbJjPRZuLsUl3/kC7ht8WgCrNzIoAfgMxg+FQxIsL0H5hh2TkiMBbyovbSrQe/1MMvEzXpV7UfERQw8G8BoO4dand2DlFofYdfM7bcjtKEeR34mc5jJktJYKcQnz6Rd4KnEhQTT4nHCqWpKoycSj7ZuT2c8wiHI8JQOcHmOjndf3JO/Tfcb8d/Q9FohaIJoWRClxSJqo2EZZPtrw2reUYvEd65FRvwaLGh04u7YCV37vWjyL/TgYO45ALCBOHoJcmBlG8Ygkqt7q/VSBNHnQmyOeeMxXLMKqoWGhmGZp6C8+XItzt6/DEq8LOa0lyG0tRR6zl9rKVB17XxmKm914Z+3l+EVglwGiVqG6SUmeyUA7x0BUA2DyONLvx7qu7+PeAlELRCcEogzYz24nj4Ad+W1O5LfYsaDRjlVb3fji/bdJ6FMvA41YXiQSEYmQGZuyGWmcxLhpBdGYsoUKwZQRrio20jDQ09MD5jWxKuqjkVdw+df/GWdtdWC5rwILvA5keUqRvdOm6th71mJxSwUurP2QgGiP5HRbNtH5DqIEumRQTH5vBkV9f/K5dO8tELVAdMIgSjtpNqnzKKG2liHf58BybxXOutmGbbvuxBs4It5lgR8CaFila5JUglQlU1fok4YzEZmqfJI6T2KpcCiME13H0B3qwTH04U94Hes7Po2lN5dgSbNbYkcLvlmJrJ02ZHl4rgIX1X4I9w5RnQ+oB08v5Cd9+RRvLcfShB1LbMXRgFFfM+9TtPykTlkgaoHoxEFU2I/sAqTCy+ktRV5ruQTjX7B1Hb6+l3Xsj6CfgfiUEkMkDSFhCZ1MM6AeS069AlHaQ0MGmNLRFA5FJDWVXKgkLDmKXvz02G9xcf2VWLmtEkXNLuTtcCGzowzZnhIsa3LjL7ZdjvuGdqFbvPMM3ZpWuXnsiWqB6LSD6NiNPvk7LBC1QHRMEBWPPG1cptRRycNvV/n4ZH5ivaacRoJQJd7T8jH84OQTYIjRQGRIUkOjYXrrwwiGKd1NPygRrAmeoRgQNDYeM1KAL9pnyQg1gAD24ii+8fq9uPCmTbiw48PIbihBDssut6zB0kYn/rLmctwfeA7dljo/6tiYkJo/CzZR9jMlzdl+WSBqgeioE0V55A0H0yggyljSwp1u5Lc6sKRhHVx3XIPfDb6IY/SPxwYQjgYRiYURjjD4iMCmt6kNeT5FkTYnQJSyrt7orSeOSoJTNEZ+fnRjAHvIiv/4t/DOmzdi6XYXClrLkNdSgmXNLlxUexnuC1ISHbDiRJMdRJN9P0sgOrXRNLlPWyBqgeiEQFTl1NsUoTHVegawGyWLM5ouRkF7BfKanVi2rUKcOI9FX8ERFjuODCAcY9E5ybQXvnpy1k/VPqpBlEBKsKRdlIDJje8Tm8qgolW2JzSAw7Eeyba67mf1WHWTA0ua7ChsKcPiJicurLsM94aeRTf6DTjmX5nFl6XOT0qdn8UeGvanLBC1QDQtiErGUgrJIxE/qmJHmWOf0bwWxXeukxpNCzqrsLi1UsqL/Ntvt+OZyB4hTyb3J+NHlQyqITQ1QKl7xlb8eZ+2WgpwRmIS2sTwpqixEbglltSIUWXdpgGEcCh0Ei/iID71w6/ibTUVWNhgx9KmSgHRX4T+jJMCoiHjLwybNzP7xgJRC0Q1sz3rLR0Z6sIjQ6/hPXVXYUGTE4qEYJoCeFNM8AnZaeTziktT1SU3uDR5Pq5+zPPyILqNTKq4/DZ9fqp7aScHiu5Yh4ya96J4ZxUy6t+PvJZyLG6twNKbbLjlyduFou5ktAfRcFChnkkNF0QSNFTSoqRygqq32lLDbAoc088Q9nvlzIoacaryDP5DO2kkgiAdTYjgBAbw6OBzcDdcjdW11VhZXy3q/L2hZywQnerYMH8+Pp+ml4AkxSiY9VMzJomyUF0yiC5pcFsgOokuVtigjXsq5pLSVciIf6zbcxeW1rhR4HGkb98ZA1EHdH13VYa5HLnkIPWWIdtbhoWNTryr5jLsePUevMUgo1CPqs0UjiFAspBIVECNxCHRcEQIRNhETB8lR+i4ozQNgFQG0OEmV31Jm2EJrBqoSfRBCpUHu5/Ee7d/FOfXXoa/q7kSv+h7Aj2WJJpWS5mwsHKmg2g6j5eOuVK4IFNdaiz1DQwiVbVPC0QngaAGHnDSa4Bg4PqcAlGyIbU5kNXJksWlQjXH2kY5HeVSafPs7VV4H4HpyO9xQjifVLE7RoxStWZNeeEDpdpNoyalVMnBZy3RsVX6sVo1DqLGjfTUs/1YH4oZTUMYkCJ8dxz4Ff7qxitQsvnD+FXv0+hCN7+hpc6bJcrJHlsgmjpsYDIgmkdmcTboZDtj2j9nqfNT6os2h9Stz+p0IaOdmT/lyGwnmcdaqW9UsMOBgoZyrN5WierWf8Tv+p7FCfRLMH4QEZE0BUQpdRo2y5jhDVJhSYTAqb2SQZRATRClpBtiAkA0iBPhk3gBx1Hz6Lex6eZP4tGuZ9Ev3vkZiGsd6+dYNtHTzyaaShLVAJq4ZkmiyXMjefImXx/ve2nZOSuJMlbUgYwObnYB0QzfWgHRzM4SqfNe1OHCktYKnFNThQ9/+zq8hKNSJrc/RqtkFEMBhj8xxjMmm3jZw5RKRyk5Mt7GS7qPzUinE+nzhmJRBMgxFSMHaRBH0Ce224Yfd2DXsVflXMJtlfSgmXxrgejpBaIJkEyMGjOAJq4nQJSOJcsmOl2RkOo5c1edZxkRm2JBItOTkB1TpS9BVvtaZHeUIKutBHm+chRJjn0VvnR/A57DIXHqUJ0OhBiIr/iSGCAvTExhgyOUw2oaXyLdhimJAv300ovdNSq5/kMswRwdwFuDx3E81INgVKvy0/wlxvo9FoieGSCqx0E6EKVDIJVjyVLndcuNfz/nJVEhO9bVQZVTKcfLOu8lyGlbi6z2NQKmdDYVN7nwtppLsOW572I3jqMr0o9AWBW6k9LyIpGqzKPxCqJsn9E23dK6HSMmEO0HVXqCagShSETspCo5lfZYjuLpsMrqbzDOvQWipw+IaolztK5PB6JmSfQxvIm/2n4l6FgiiOZ5WVVyrthFLZvolPqCXn8fazGVg+WVs1vLkOMdDqSZ/ouR2a7KcuT5nVjQVIF31FyK23ffiwPiAw8iFA4LXhFIdeomrZEE0tFeo4GnvsbP62OtztNkQEv/kIT9G2mhQkSq/pr6s/pTo32DmbnGqAHyoG5q/xwW1buQ0+5GbjtrQbE+VInYnbPayqWsNekK08X0Tqlvp3OOnqmOpQRAph8oCaDlgIuKd96szp/EADSIMk7UAtH0bZnuirTsHLWJmvlGswiixpbjsyPbW45MTymypLYR7aSlArb5PieWN1fhb8iW1P80DqMPQ0zINMp8EDgDBpgqX33qltEQx32614h7pDGNMDGdj2S0LUlSuAnipnvgLJ0fRAiv4CA2dXwOS7ZXILfdjTyhIGScpQWis9QN4/ozo8aJWiBKwl4r2H40acYMokKNZxA46/PMZspizXddpthfBtaBJ5fniroKuNo/g4f7X8BhDGBQ3ExKgSaQamU63UjWAJnuuj4/DGRNIKpTQmknJeFplPynpH5KyK36EbO+TwbRvGQQbSuDJYnOerek/INpQTQhYab8XPxk4j41OmMS85dwLFmSaLypJn0gLTtHJdGRufSKAT+LqqeocHbFO6rZ8an6e9cgp3UtilvdOK/lclS2fQGP4SAOYxBD4i2nB93IgTdB2qQb0PRB3ZZ01BE8VRiVsn+SZYqbSkhleurUc/tNf3pCh8kgOkISJYj6LXV+Qo06QzePCqLj+ZtjgSjTPrU6b9lEx9OiI+/RE39uBtsb3nkhIzGISQieBFHWrhebKW12CkyzaDv1lQgBclarDTm1dpy3/Qpc+zs/duEwuhDAEIlKJMSJ5qFEVU8z8In0qEXJkU2W8gzbUbdl4lkMcVIgGibLVGzugihtogROiXwwQJQ0hJZNNGV3z9rJKYMov6lS+2V4xm2i6bzzVu78xPtWT/y5CqJxiVNLniP2yiQitHo+co86ZMvyO5DrdWFRUxXevu1S/OfDbXgFx9GNgHjsBwcGJUuLgKc3LT3GQZSNMy0vPijVNi0Pn/BDKIm+jANiE11Km6jfiWy2q59VV8sMIC1XTj1ZqGxzyFmbwmksY4JayhmSO69Acfz9rqTRwWGOJbEsxaLC3qMlUYuAZPxtar5zToPoWB7c+ORRjE+s8Z7jcSDb4zCkUzvyPS4Ub3FgTdPVaH/hHrwpo4ZSIQvJa5XbpH4zPZRsUIY6bm6r9MepAHI859I/cSavaBDd4P8M4iBKEmx/qdiU6ayjTVTici0QncmuGPFsrX1rnEwpieqLIz6d5oQFosGUHl09RdM027hPz3cQFZVeS6dkwPcQSLWtVIHqUs86LP5/pSit+SgePPknvCnJoQzCT4CnBk2RQk1y49gNKS1oxHzS3z+RjZ+d/ZcG0WrvP8ZBNMsC0dnviKS/aAZQfTwtIKr+jmop+nkAACAASURBVBqo2rFkSaIJ5TCpHyb8dr6DaGYbnUzK0USmpxwPgdQWdzhl+WwoaHHgrKYqnHOTCxt9n8NvB5/HQcaQxkISAG8GUEkLFe99TMrejd2g8xNEX8IBVHk+ZYCoCyNBlBwFdDCliBPVi5bej6UxzPT1uEYyd9V5DYp6nzyuUp3nuREgmurG5Ielfm+BaHK7sEW4TfUlLTtXvfNjTD7aPc1btt9hkkS1OspA/XIUNtmwunU9Vm124rLbv4jncQhdksGubKJsRwIog/CljpJkG5lDkoa39PD21+8muh/+zNl6N4gwXsB+VLR+EotrXcj1E0RJ9qJsokqdT4AozSRs53g4GlV8hue1qWiJ+Pkx+mvG7pvjIJqMe8nv2e/pzqUE0ckNFJnqwxxLlEqTQ5wsx9LEW1da9rQAUaXCZ3sZiE9JlCBQioz2MuR0MNupFMUeJxbV2XFB7Sb800+34JnofhzHAPojQwhEggYPqALRgCZtZppTiuVKw+XEW/zUf4Ig+jz2wy0g6kae3z0MRDPFJqpoB7kwZXrVYhUHQQtEx92JqcCRH04+z/epXiNANNVN4ztngWhyO03XJJ7PIMpJrSRRVgsgcCqpk4TNAqBtJVKuOJMeZ5Ze9tqwyOfGojon3rZlA2758zfxMo5KzfghhBTvqFHZk9IopVJ67k+3lwWiERHItP17Jvs3GSz130o+b4FoWjXGyp2PSy9p2yhFyMp479U2OWF4UkXtVAYTc8BLkdGm9gx9yW63I9NTJvbSYn8lFtS7cEH9ZWh/4+d4FYdxPNZDGBW3EDOaBEANEJ2NyaYn12zsR4Coz41sQ53PZoyoIYmKem9JojPSJRaIjneSW4XqEna0cbfZBEB1mFrJwHCyPTFlsQyUPjPaypFFgGV6qGE/ZfpoBolMPA4sbqzEu2svx909f8QhdEOK3TGXiCDKXHuSlET57+n1YiG957Avoc4TROmcM0KcsslD0MatXNlCLXV+WgdAMoDy4anO8bylzlsgOosgqurXM76RIEoAFceHj+DKuFGlFWS3OcXjTMm00OvE4q12VOz4rIQ+0T5KshLJMjKY8M8UEM0hiPoUxaAFotOKmSMelgowU52zQFQkL0udn2l1PhEnyrZ2iOQpmSviPVbhOQROgmiWnwDqEMKSHH8pcjxrUeixSyG+Td+8Fr8Lk4V0AIFIQPLco9GIFLoT+/OI4HtFLEIHpzlEasSMmYMn4pKo55NYVOtGrt+QRC0QnfHeSgeW6c5bkqglic6CJKpKiBBAZZOwG4bf8LyOcSS4EkiVIyrbX44csuN7L0aOvwxFLW6srv8gPn9/HV7BMXQTSGMBFQ1C9iXi5TAQZZA+nRMJB8Xw6zM+F6f0BzSIugiidSYQpTpPeyjpBWlPFnWeUQ9WiNOUGtz04XRgyVtSXbNA1ALRGQfReG69tDW99Cm2uFZAaZSAYENWG1McS5HlKUVhqxOF2xxYvXkdbnx0B95AN46HWX45gmAwKHZRgiTTQdUrBhWKr+NIVZCpAGnKgCjTLJoDhwTRXdgHgujieubOGyFOvhJke0sESAVE22lb1guRyVad3MYzYe+eyDPneJyo7vJUIKmvca+vc6/fWyBqgejMguhEJpr5XmPSZfttwpSf12rHAo8bKxqr8a7aD6Ft989wCH3oRwDBaEjl0kchJZcFTIWZiZ58+vCNECiKq0wjTZwxz49Td5ziC2kQdRogmpMMol5DEhUQNXgJzO03145PExDVwGkGUwtELRCdmyBq9Eu23ykZTvk+B/L8dhT7K7CydSPe5/kEfnLsj5IaKqz44QhiRsyT5CVIhSTWEqWqr2yiAqBGXftTh5gp/rIFotIo8YgL6a+EGSZFi83IKTMwJh+P9gctELVAdA6DqAtZPhdySJ1HSUbCe8qlRhdZn6o6Po+HB57HW9EuiR8VspIoQ5+iwgClSJYTkzFe/mO0GXEqrlkgKq0+F0F0PMPBAlELROcciAorvoQ8OZHh0bn3JHwuAWva53Q4UNDixNk11fjY976CV/AWTqIPA7EAQrSRRkMIRUNGxouykdJWmrCXjmdqzOI9FojOCRCdbI9bIGqB6JwDURVypeJGJeyp3alSRhlbSiD1lyG/zSXll8/e7MJ1P9+GF2Nv4qhUDg1gMDokDPVSLykFld5kJ8uMfc4CUQtE1eDiSKDtKSqZJBYVnkWFN6X4U3qc/YqliN7nuMfer/PvbShur8Diegcu3LIOmx9rxx4cxRGhvBlCMBJQlTvDhjPJxI4/Y2A42QdbIGqB6BkDoj4nsrwOkIVoSa0D1z5UgwPoAokxtAPYPI9SzA3z5XEfy/JkioFUtqMoQghKKmTtnrskGL3AQ87OBPWZAh4j7EXHZIqX1BQKM9e8uAY3ZoavXFIaJSg/XuTOBnKPMnMnv8OFjMaLscBrx7IGJ86/rRKdu+/Gy7EDotqHYyFEQxHEQjHEjOL1EvQU5fI+x14pBko/QngW+6C988NCnBjmZMSJMnWWabNMlWV/T2nhmsnPzxPv/GRGhqXOj6LOiyTE6pRkHiIPps+JbANEl9Y5BUT34QTIQi5sbCN6IMXsGHHP2Cf0U7gnHoRipIKLCdPmQXSBILqkxo18E4hqANV7iSU0gFTiNGdywkzHs41Jp76/Q9qffSCkzkx/9JRh0dfXIaPpYhS12bC8yYGLtqzHT08+KiykDMSPBCMAiw5IlRHm2UcQiYXiAU66XcfugRm+I8UXIYj+mSDq/SSW1lUgz+uS3HkhHDGC7WnaYPosw8CyvBaIznAvpX28BaJjgCg5LwVEfSNB9EsP1UgZiwGEMZKNjTODTg1uPJ78i5+OiDqqQFQIiU93EDWAWJOSKABVIJqob09WKJIUl6DIV44VtQ5suP1zeHTgeRxDD4YiQQFSXX6ZIEoJlRKpxq2p9czk+3TYJ/WXMZ0kiD6DfXB4P4lltRUo8Kq0T2YosdpnfPOVIscCUVPLzf6hBaLjBVFKQSZ1npLobICornKp9orZPRRNSKJvoQt1u+/Csho3hqnzWm037XWa5byQRE3SrAZSLVWb9yQpoTSW77dhiceFFbc6cNU3rsUfg6+iC4MqEJ/iexRSSoTee72s6f3sT7ukvzgGiC6tcaPQ6xZ1PaOdZg5V7VNKJzOXniBqqfNJjTp7by0QHQNEM7QkmgJEaRNlQTVyP86UJGoGUQkiFwo4qvQxsYkSROsJottGgugw0JxHNtHx2PVYfpn35XTQTl2OXJ8N+a3lWOapxNm3VeJffr0dqkoTw57CsvpQmg9JJlNCP5gTkmiK+d6HEP6EfbBTna9xY4GvQjQiAVHJUiKrfYlidRJnW0Kd14vMeNpx1u6xbKIpennEKQ7H08s7r73DdHJQGmL2jHYsLat340sPbsV+kXdmFkTjgopxQMdSKELlNCTe6O17vi8gSto4FjMTSTMZNJPfmyS9WZtIM/A3aSPNpZ26uQwFbU7ZL+3ciIWb7bjp6Z3YjaPoRT8ikRBCkQgC4YQkOpcAlKmq5lcPAniaIOr7JJZTnW9xIstXDoIoy6lktDHUi3GzJcIzoBcVDaB6P2f61gJRc/emO+YgOHNAlOr8db+sFe/8bEmicRMrFCExQZSl3EQSFZVPx1MmgFQDKvfDJNMZALQZmbAmc4T5t6hjFYif3WqUYfbbkNvpQnaHE8s7NuKCmo24fe/P8RZOYAgB4cTn4mOsRVO0VKebB9NznpIoQdTh/1QcRLlgxEG0nbWpSMpMAhImIqSPypC2OtX9bYHoeAbGmQOiWZ5yLN9egX+9fwuUd35mJVGt0guIRoBwMIZQiBKVAtGmfT8W77xZEtWSiN7PZxDVVSv1IqD2DmQI0ztt1Y64d5o20uwOOwp9Dqyod+FvtlyCX558CsfRh77okEijlOTVlqgiOp4RPlP3cOZoYmlhmYrFoCXRstb/hZX1VShqZfqrHVntBMsyAVCCqEil7QpE2S7s5+Q+t0B0pnpOPXcWbaJXYUGTlpSMVZOdfqpXSClJQSJgp+K61N+HkhurUcpmVuftMmEX1TnwqR/8J/aiC/TOc1KOfGmZZ+SV8Z4hgDIXXPLCIzEh2YiElSQaRhj7cBzXP7sTS+rowXVBxVeqdjU7ZE5bEG1zIMNLL72yCVLlzfaVIc9ThoXNDpxTW4nLdvwTHgu9KsXuBhEkJYkUt9OLkwau8fbJdN+X/D34fXoRxGN4Ax9o/ChWbK9CYasLuVw0WA3At1ap8lTpRb23QHS6+2Qiz5tlEHUZweAE0YT6cSqBVAGNAlEe6+/C1VyFN7H2jx1kXs9pc6l4xTYHiuvtqGr7LF7FCfQaxdM4GWRC6qCmJAxNejuuflITTElOjEXlRmdzMBaVIP89OIarf34jFtVXIN/jVHV4RCJRjP3xxcGQUkQqmROL1zgX0OTvPew9QYW12BWA5vhsyPWUo8BjQ35zOfJb7VjUUollm9246jv/Fy/jEI6jR+JrI0KfRw2CJigSOo/SHRPsOH273usnJ783xGF9WdH5xWKIhKPoRgD3De3Cu2qvwLLGdcj3uMSxRBCNhzex0J9f8YnG+zVJEo2f18LBqdpLv3HOl8t3LvZWYNW2DbgnvAvHMShtQEFE6madIhaneEdM8GCWQdRtOD3mFojSYSROozQgyjhRLdWRQZwLwMJmF97f8FE8Gt0DxSGUiAblZJGXnjXGCf1WXx7PnqCcUD+NEKdYDAPRkEQFvIwjsHX+bxRvJ4gyIJvSvmaSp3SdJGGfqkk0U3+Xv1XsgTaJl6QEWthSjoIWOpycyPO6sah1HZb8lx3/ct9W7Iq9Lhn2IbC8CHlIyfLExW+U3kjTcfq0ORpYnzPv9ZP1Of0+ea8JUsKRCLoRwjcP/Qbn3roBi5ur5bcoQKTUrZjtsxgj61OLvF785+zeAtHk7k71nkNkNMcS1fn5B6IcpApEVfkFekEz/OUobnXjwq2X4lv7f41DGAJ5rjmZ4i+ZMRRx4mfUsfm9viT3GuJr0rEC0SgV0LgKSim0LxaUEhkPHHsSb791I4qbq5DvqxCwVyU4KOkZ5ThmCsDmwnNlwaDHmtJoOXK8ZSjw2JHbwiweJ3L8FchpdWG5dz3O3VqJhlf+G3txhFTOoDkkFA4mlRVJ3026u8z7pO4yXzId67uMU3Hbz/DzBFGeCUTDOPE/5H43/LFTpOiilgpktyktTmcskd0+x1uKbKmSOk6p/lT2lwWipvGQ9pDdPz9BVBVHUwXS9Equ1XkBUQ/rfKv8ZJb2zeywo8jjwuot1fjaH3aAsg0rojN2k7NA8VZGEIuERdKJN5kxZ7RarvcjRE09t0TNJHiqjaonjwPREMh8vh/H0fDEN7HsRgcKm93I9bqMQm8m7/ypnDiz8bfNINpG4CyXuvU5Hi56TmS1uZHhsaOorRLFjU68/bZqfGfvA9J2J9FvlGBWnKPsJzY9zSUSn2/iK4j3Ie/RZhtjr22aem++l8eUdqPRMGIRjgm1kWFK96cslJEoQiGyIYSFQoUaxiVf/xcsvM2JglaWBlH+BKrvlECzuXnLkO2llmSBaHKbz+b7aVfnOQxp1xjJ4nQVChtZiIwZF3NHnae0pkFUSW7GgKRtiZNSUurKkc3cZMbp0QbVYUOB342V9dVw+T+LP+MtHJNCvkocjYUigEwSxapOwUPwlczrpmoVuqM5iYYBqaxH6pxW8TjheA/3wWgAx2LdeBZv4LLOa3BWfaXYQ5nbL3bd+Ko/DybXVAFAQFSFb1HdFfu11GjiQqJspuxXevDzvE4sa6jE2uZP4N6+p8Qp18esJvKQhgOIRMLiJQ9Go7Ig0mMufaM7KgWAakDVAJpqzz5T4EkgDSMSDkml0nAsIk7DKB2GkSiCwSGcCHRhP06g86Wf4h1bNmJhYwXyPOxXZUaiTVFKTvsJnoYzbaptOBufj49JyyZqGk7JhzLzZS2fbyCq7IZJtkOj0wVIvQTRcrE/0dmU4StFXpsLixsrcfZ/VaBp1/cNL30IEZapYCxiJIJINCKeYEqoUpXCyDM08NCEm8ohFT9hgCgnqJ7IMcMwGo6FMYgh7MVRfOPA/bioZhOWNrskY4f55bIQGIsUJ57ZWaal7NNqLyDKyqGGo1L6zXA4GQBLMNU27cJWN5Ztq0BF5+fwi67HcQAn0BU9KQuTLFRGDC7jSQmICRBVC5gAojg+lNbF91Hea5QdEUk2XiJPlcrTwCrjgSWeucUikj0V5t/g+hiNIhAZRDf68duB51Hl/ywWUwptcSJXSkmzcJ8WPvR+Hi2SFogmA2aq9/MUROndZaleccgkvPPKOcPBSgYnSqFlokJRlVLn7ChoduOchk34q5svxYO9z0hsn6qHTvVNlahgmmFAJBvlWae+SDzUQqnaq8mmpRq2rgCoSPVRxRBlFGEj7d4R9OLRyKtY47kaK5uqkNe8FrltZcL4rtQ+JZFp4DitgVSARdPmsb9U/KjEkJokUaVxKBKZxe3rsWSbC3b/J3Ff/1NGwkQIgRCZnygtxhANJyR/0pUwPyxRglkdK3oohktQ82DohJoXBM0I+87YyLgVQAyDMbUFaPc0mLhE4AirsdId68EeHMGXf+/FOxovQ2GDA1mtNjX+4gBqMtUQmGZDipyOv2GBaCrQTD6XGkRZH/yP2It3b0+o8yLdpRsU0th6cMyCYyR50ukBY9jaRH0yQFQZ8gmiNvGCZzSWYWnLOqy4yYl/fqAGL+IgTqBPuSxE4ohKeiYJQzgnlQ1UmTsk911iQBPSihlE4xORKqUAKPO+w5Jk+uf/Kc923e9asfhWJ/KbbShoL0d221pk0tRgqLIKQEeGbs2bSaf7Yaz9WCCqpXPuBVTtktXEEsxn11XC7vsHfG//r8FQMQa4D0YDoHecQEqNgisenXoqtjQhfZol0rgGYWgL7Md4/0EBKIGTzsfBmAZQhqlpIhmGNA1gH47hOwcfxAX1H0RerQ1FHZUQG7x5rozVHqfkumme6vmr9/J9DOHE+B00icVDnCJWiJMJSUcD0TfwV41XoaCBJR+0LYe2HZNaEl+peI4gqjtG7zWwTvNe/m5igsVBxjQ5xc7mtUsMYo6nHLntLuS0uyVulBRlixursPy/nKh/8bt4CaQE6QMlUkozpK/UVSiVYZTTUan5GjS5l4loOKXYqJyEbFGq8+FQBKFIWBIXX8dx3NH9MM6uWY+FnkrlXPCtRRY3EvSKnSxh543HiZ6SyTXNfZXqNySPm5T9aVbvbcjZYUdeWzmKWxxYvs2Fv6m/Eo0v/xDP4AAOohc9sUFV6C4ckZhNbZ6K27bpeIqqxTAYiYjEScmTfaYBlQBMbUTA1Ih/FD8BtQwtvAqwxoTWex+68aMTj+Ddt23C2a3VMtaymYlkpHWq8KZZaM9UbTzqOT0/jX1yfwybx8rPkOEtFRBdXbMRP7VA1IShMuWV0U8POq7WXGEfxR4B0YUtFbKyinpsxPYNC7o3g+qwxmcHzfIAku9C1nDl/czy2qV0L72+QonH2NJ2xpc6kO9zY1FDBd6+dQNuefp27MFhnIh2IxgNIjSkVMQobaXRECIEV9KxiXhpTDpOuGBIOaNMtlTCbSASxGA0iJMYxF4cR+fue7B6yzosaK5AHr3P5JP0rpUtW5wNyg6qnWVKlT8F7Tfb/TXW35PJrZwzWW3k4CyVrKaiZgeWbq/Eqlur8fEfXo+7ux7H6ziBbrE8MwiK5piwqOcERGX/5J4gqtm0lHmGQKoXRAHRMJ1I4bjNNEwSlFAQoWAIwXAYA4jgKIbwMo7izr33o9RzNZZvc2IhCVXaSpHZoWpKyRwZ6/edsuujgKh8J9N1w1lLv0JhixPn1G3CfXjJCrZPwGhqSfQkBvA49uKvt1+BhY0uZHpoY1Q2O2V3JDjqhjbZe4Z1wCwDKP+2AaKK4IEpoMxgYsqnA5lkSyKAGfeROSnXY8eS5kpcULsJNzzcjNfE0sa8kwEEY0OIxIKIRoOIkCiYIS+iLlJEETEFCIURCQUxONgvlSo5bQOxIHpjA9gXOIrdOI6aZ76Jd962AYsaXcj12sXZRRNDnqdENmbsKGeS/n7aoXIK2k/6b+78XdEmyPjkswt4Mig/VzYb8n0u5Dc4cU7LpTj3xir88y9q8BReB6sG9GIAJ0M9CESGEGVwflgtdoyBosov5lCTjZvSpoAt+zgcQjQYRHBwAOHgIMIR1n4aRCDcjwEM4igG8ML/wOhXf9+Gc29eJ+TLi72VyG4pQY6mu9OS6Bxrz+FCzRjzd5h0yjjrMnGYrbZANAGf6ig9iDIH+D3br0Jxg6ohnk0wEgAyQNMMojJYTJ1yqgaPCUSFAMPPzieYKhCVFNB2phxSYihHbqcDZBNaVOfEO26swOd/dD1+3fME3sAhHMZJdIETZwhDUfJbspif8kdI/Z+ImnBUDIMIoTc6IF7aQ7FuvIku/Kb/efzLvTU4b3MVljW4kddCIl5mqzBWsBS5XkqjpSCIUjJOOJS0g2nugNnwyTdb30u1CcOcSJuX18qNmoUKW8vudCC30y3nlzdXY/UtFbA1fhw3PezB/Ucexes4TN0Cx9GNExFSPQ+J3ZsEz3QMsuDIsC1m2FAZzh9jjwYwSDBGL47EjuMQTmA3DuHbu+/HR771ZZy7ZQOWN69HsbcSeZwLrcpRmOFZozQhjsVTNQ+m9HfVPJaFneGCRniWWZ2/x1LnzUCqQJQqvOK6pIc5il4M4Q/Ygw80fwKLmiqR6bHFpdFsieszh25wUmkA1fvhE03zJs7koJK65waIKpC0IaPDjowOBzJIAmykiTKTSTJIKC34SrFgZxUWeFxYVu/CuTWVeOfWdbjusRb8Dm/gRZzA6xGqiUFxMHDScQKK5EKVEUEBWQaAH8VJUd2fxgHc/MSdeE/dVVi5xY1lLW7kNa1Bvm8tcv1rxJlE1ZTfQYKwmeMvG0GDAKrbdngbzmTbzb1n64ls9JvPhWxfBbI9bmSzpr1XSUa5OxyyKGU0fAALm+1Y2ejGylttuGDrOqy787NoeeMu/AGv4Hnsk0D94+hHN4ZwPDqAY+EBMpZiCDEMIYqg9GdYoLYbvVLKmbGf5DbdhYO44+B9+ODXv4C/rrscq2urUcyFsdWJjNYy5HWyjlcpcn1lss2bjCQT2HL+yDyVOGuOQ4cQxNCMR5MT1flFvkqcv/2DeAAvyZwgkojNWfZ04KlkBDGPmGFmDh5Pe7A9gZPAIEb0WBQ9GMAuvIVNt38RZ7VsQg6LqXnKldeRKZWUqERlMYLwBUR1zncidlPSLZlyaTCaz+RkHQGiJE2gkV82BfRqYKgBwe+fw2vNa6Qeel6zDQtanChqtGPxNhf+rvVqfOlhD76x92H8+uSLYgV6A704gEEcxAD2o0fiTF/AAfx+8Hnc9eZDuOE3Xqy//Qs4h+p7rVvAOc9Xhhz/WuT518RBNLO9FDm3O5GzQ5GPKBA1JFBZCLSjzgJSZYJxIYvpsb5KSQulrZuTmosRazXlddokXCzXUyqVRFlyZFmjEyu22PG3zR/C1T/+CrY9dQe+uec+3Nf1NB4NvCbj+xWcwBvowZvowz70YS9O4hUcxpPR13DfySdx59778NXfeHD5t7+Ed9RuwrIaF5Y2VqCgwS5JAHkdzEpygFR+lEQL2x2Swjo/MpK0wKP3yhwmCzvnjpGaKou6LA42LNzuRKn/U3gKB3ESjF1QEWIqwOFMBlFj9TCDaH9sUFTSmqe/hRW3VYDBzuRFzOmwI4uG8zbSehnUXn7SfFFlZmaT3riq8ZwC0FMBoux82kg1kNKWK+YIZl9Jbr1yQIlkysB8v01+Ix0/LOuwuKkSK+rX4dy6S/AXDVegdOenUfntL+CDP/p3XPXT/4cP/fjfUfWta7Cm7Wq8u+FynLelCqtrq3AWVbwmpWaKvVMme5k4Heh4UItPmcExyVXerjgn4zZnU/SDSVKYyQVozj3bCMbXfSYF73wEUqbIkhnJDqqX2ZJOWSJmEh5TYsr1laOQjsPWcixodWBxkxMk415VV41ztq7D+XWX4KKGy/Fe78dQ8e1rsOGua3H53f+By37yFaz/3r/Cdsdn8Lfev8dFTZfhvLoNWLmtUigLi5tcKPK4kWOQpOSQkZ9xykZqMaVjzhFmycX9B3O2/zg/uSXmK7VJ8kuQsi+7vQzZpOvz00mmKpMu8Feg8Gtr8dXfesTWfyLcp5JKDGmUTtczVxI1QJRpc1RVKYrTIsTYyd/07kL17Z+XbJGlvmrki2OkDLkddIYwxpHlDpgNxMYf3ilmEI3zRpoGlVJdkyStuDdW212Trps+nzzxE5KokeYpYKmIRzg49IQkaBJEpQ6TSH0kzVUDSJfp4KSlR580dfktLuQ3OZHfaBcJpLDRhaIGNxY0uFDc4MSiZjcWNNpFgi1qdQqJhkQDUA0i2bAUZVMquo615V5fM0uh/I7KOXaGS6JxEFVONwFRU6ovNYrsNgdyqHpK0TdTn7JvvaWysaJmjpdUe3YUeFQmUR77qtkpPLmFDew3FxY0VaCw0Y2CBp53oVDuIbeBA/ktTgFOmrQImmpca81GL8w2ZDIShMBqqMGyYI8yXpPH76y81/OLgBmfrzzmoqSSHwQ8adf10TxhQ2G7G4v91eJAW9PyCdx37AnQLDIkZawTvAUKRBMxuXNQgx/2laZJndf2UJXqqI3sjKWjJ7on3IvD6Mavh55DddvnUHDd+3GO5xIs9VQhp7EUxZ1uyQYSIPWtVcBkqAAieXIiGJ5nM1Bo8DTv4wNIJk8ipzp+fryD0QRC+vkKmBKgnPK8HlzGdyboK+mH2TIqYybPR4o2B3JbHchtsaPI6xLqtvwWO8hOX+B1ymQVEg0jmkH/7uS9/g7J+2Hfld9pvL/7dLvP1B+JNlKOJmV/N0wf2oYsdmTVx8LzIAtluWLOp2Qomwp3o5NKQNXnRJHfjUK/Wy2WxKEPfQAAIABJREFUHqcc831uK9V15dBi+ibHgP4eCfu/6h99PtkxeKr7ToQKY1yYNUJSECouV2XzVAKQKllCJ1KGpwSFnW7hdS1qdOAszyYU/sdalDf/A+7rfUoiqvtjA4IRpEAj6YukSEvM7RkIojoljnnBTHEjkBJEQ8EgwpEguiM9OIBuPBp8Gdc/4sPf1V6FVbdUYnXrJhQ2khyCqy8D8Ol1Jl9iqThrlL3KPNBHHmtg4SCMD7ipgqj5WZM81gMu/p0MNZsOBAn1MiYlvcTDNpo7jI2qnf59qfZ64pn/hnVsGgeT7Du2oSzgWsXmIp5qM6vexnFcFdegG3f4JcbuvOsj02KkF2hzORIxa0nhvLXIbCsFEwVEaGiwY2lDFVZtrcZf112JLz20HQ8PPCdY0BPrE2wIB0LCI0lRjFwCKnFBq/TiXRkm+c21N9MkiSpPvFB+SVla5g1rEA0hFGClxTD6EcAx9OJNHMVvep/Fp797A95+4wac1bQJRR4V3pHXYUOuv1S2LA8zcUrFy6w7Tvba5mfsNbjMFxAV25enXDnYkgCV4Bq3jRm/TwNluv28m5BTALbZ/K3jBVEudNJvnoTEqt/rscm97r/Z/A3T9rdMQom51hXno3IYsYTzWmT41iC3kwKRA/neSqz0fBDn3bIJV+y8Fj8/+rj4R6jCs2xgiMkHQ0xICak0W8kE08QvZxiI0vbJTbI52BBG+E6iNhAQCasVJgSGfgziGE6KUbntlZ/BvfMarKrdIN7KomY7ClniQQh2Dc5E2gSNMhB69dOgyoGpByqP44PG1OkaeOPXzPfN4HE6SVSDJG1Huj6QPse9nJ+lSITZbpP59PfGBaKGpKrHoLkfeY5gosFz2PicwXE33W0s7WDMp0yx+Ss1XtR5MbMpgh6JVW4tRSGdcM1VOKt+E0ra/zfqd30fL+M4jhmx0vST0O7JhBOmRkviidBFxuIlUhjlw/xY2c810TPp+0ybJKpyhqEaRjI4YlIHSGwcBsmtkN1S1Y+xtMWQ5JgfRA+eir6Bpufuwvtqr8TqLZVY6d2AjLq1KO6sFIN0ZkupxNAV7Kw0Sl8kbJ1zGUTTDeb4ZEqhIunFId1nrfOmhXKGgWg8IGoGTTNY6mPpL3M/z/B3nrHxYRJKaPssuKNKLfatZWCYWCHJUmrXYLlnPZZvqcAFt2zCLU99Hb8Pvip8BCeNotUUohR7hOIeYIq4IuPREqgiflHkLySAGVYvIgm+5sbbaQNRLhw0DqtVhVJnVECUNGDxwHJNAxdRojybcxAByc7Zjy48GnkF//SLLTh/6yU4q3EDFjQ4hUG+wEMDvlKZODi1OqElTJ7T6lJ8EJk6Xd8Xv3YqB7JpQunfIft21hRPLA4WmM4eWKYbF+MFUd6nnSzxfkvRz8OuncoxOJm/bZpP2ZJwYpdohZwWG/KaHShurMCqpk04f+ul+PQ9t+ChwAt4DUeFdWwQIYUHUXIGUAqNIWKY/YgPTE5gFh/PUxgjgCoQNQBjbmBl2m8xZRDVyZ6UMqUN5ECJ4Zp4Nu6tp51UUsVjQjdGhiJ674eCg+gJ9UnQ7Ss4gp8P/Bkf/Oa1eHv9JiysteOc2y9BXlMZCqTiJhl5hgPpfAPRYeDJ36IBVO+N3yeTbjID3vpMwqwzhbYYN4gaXmoNpCP61zReeW1e9qvpN2QzEYChTPUX46zOjVhS78Z5NRtR3XkN7u55Ci/jGI5TOIoOYCAcQFjSnGMIhMPC5K/NfwROvdH0pxmwBEgJJvPkNa0gKtkGQk6rQJQAycahk0kcTcbCEgoxpYu1iGKIhshgFEY4FMJgOIjj0X4cQD+ewUHUPP8dVN35f7Dka6VY1bIORY0MHVFFu9RAVcHkNGxrZqi4GpXEE6rP6z2lD/NxOmlk2s+bBmN8smnw1HsLRKcFBKfadyJhGjZPs9qefBwHTw2mqfrYdO5Ugag4gIQq0Tz2dZaR2XbLmFqV604+XXO8McP1GPO8oMmJVZ71WHRDCZydn8Gtf/o6/oQD2IceKffcExhUc5/EOmEKS5Q+gUAoJP4TAqlggwAsrydAVIPsfIHRKYMoFwv+WPMPVo1AIE2UV+AxHU8snxEOheUDDG0QyjDSirHGTIQ55FTxw0JF9iaO44nga9i+67/x11sux8ot1VjYVI3sFlUWWDEsMXMnERal6OA4MFSRskxmpbBsMElPyGUqfKaJQTTrQKolkfHupyBJTRVErM8rk4IeI+n2Aorj7U993yz2K+M8FYBy/DM7S88DI1DeNEeEBNqr5hO97Znta5HRXoLMdmbl2SS2eVlLNc7aUomLbtmIzY/vwKNDL+ENIbUewgACMoeVhKnsngTIQIDsZVGEhB5QVX4QtiuDwFpjBffz7TUtIJruR+uGketsG5UYm0Bco71GXlLlGGiE7sIA3kQPfhl4Hp/7xVZcVHcFltdVobjZhSK/A3l+srqXSHgF40slXa/TLVkUOe2UWt0GbR0JJlSdJD0ZtEeV7y3AsNrgdB0DGkQVeI4E0ez2SuTvXGekwKqUV4nVbluLnM5S5HUw/ZXZWQ4sqXHhL+suw6d+dAPu6SY/WxdOCHSyyJ/kKcaZhQ03iRKy0oCjxoj5CJ4a92YURPUfSbUf3mim1Sd+SCCFlAbuQRBvoVcM1T84+DCqWj6Fv6y9BOc0r8fCVieyPCXIaCuRXPws5ulK6qjdyEdWPKBUwSSflyU0jNx3C0Qt4DxdgdP8uxSI0vlqpLTKHFAlwCW11GNHppSYVio9A+VJDJTTWS4VAAqby7C4phzn166Hu/WT+O6+h/Ai9uMweljDQWI+OW3NOCnvkzRUMw6cDuCpf88pA1H9BSiWMttJXPtcsyitSoeouNJANILBCGNLw2B5W8aXkjl++5N3wuX7FM6tWSdkz0VtFchlHi8JbdscKKA02rJG1ecWOxDtp+XxqpBaGtV786Czji1wPZ3GgAZRqvTC9RAHUUWWQ6Yobrm027aSl9aOgnY3GBVT3GDH6m0VsPmuxs1/bMMuvImDOI5e9Bvc/1EEwxGlXcYFoMTs1nNZnxkuPOmz83s/N0AUUamnmNDz1RElUZZRoB0lSIbw0BAC0QH0ohf7YofxVGQ3bny0E6tvqMaymvUo2F6BQl+V2G1yWktR4C9Bju8DyNb1h0h20qm8+5wkFoBaYHk6geVYv0XMVtrBZUilJPcmvWKufy2ymj+AQh/5G9woanBhRX01Vn3Njese2I7Hwq9gH46gBz0YjPUphv5IEEOhEEJGHDhlIImR15go3uM0yKrvOQ32pxxEWY6NirtS3g0p1FAD+E4cUcGIUUYjgkhIZeZTidgfOoo96MJ9g8/jUz+9FRfWX4UlWytxlncDChtLUehdg1zf+5HlW4OcjnKhjMvuIIgazEbayM+9ZRe12uB0HAPmMW6UkM7ucIEsY2RZyiK5t+8DKPCtQVFTCc7yVGLJFicuqLsMf//9r+KH3Y/hNRzHwcgJUdyDoX5EQkNSykZCFFnBlIUUKfEYr/gsNrKOzMKRvud02s8KiLJR028KROPqvLl1qd2HIhIGJeFQZHmJRMCyDMy9ZQ12FijuRgiv4hh+fPyP2Nj+/2HZV0txTks1ipnL3Pp+5O8ko8z7pTxBbqdLcYOSH9RYlU9VyIkF3NbiNeNjQEueRsgfy0Yr7lKmHK9Bwe2sfFqK4tYynNtahRXXl6LS82l8c++DeA4HcUjKmoSEtZ84ybBFHQwv3vWUdk/Odt6tNwWr5ql9Oh3PARBlc2qIVU0bt5vwtMSdGmVmjYJgQcaWQW8EVdpLh8TQ/WfsxbY/3Ym1rR/D8q0OLGp2SE2igjY7sltp+1FqvJAspwLRYSu3ERhtrOCqbrllDpjxiX86SoTT/ZuSx6np+dpMpdX3RAgWHUcOmQOkWczz24VwemGjHWfXunFx84fxtd978UT4VbyFk1JhVrKJQP+E4sTQSTV61kqWkQkRVa67GURPbwDlT58VEDW18cQPmQamCU50TJkJdlV1dnYya9wEcBQs7nYCvx54Dtc+3IR3brkUK2qrsbChAkvb1ou9J9erCG/Ng0yyUwz6s2ESajxo34kMEukagGoeqPIc0yC2QMaSMKdzDIhjiLGeaTaCpB6/zCaS8ShJAlTXlRdexquvXKVqNtmx2LcexdvdWFlbJXPkiw/U4r6TrHF6RGp8kdsiLGTJxvwTEGWeu8oyYqC8npepJ/VwwSj1PafH2TkPoqqjVAYUV7nESje8k5jxFI2GpdZ7V6gXRzCAl3EC3zn0O1z2zevwF/VXYEVNFRbUO6VECYGUfIcM8ZB6Sdy3J1JK9bGWPhWAWiA6neBgPWsci00KiTO+aBvXmDElYXsGgJLxTIXv2ZBDDYylov1OKRdNVn4yLC2vqcIFtZdhw84v4o69D+F5HMFh9OJ48KTMoXAoqMpDSyYR1XJ6LaJgKjd5Mfjf6W7rHC/EzwMQ1QDKVFG1JWwtiY4k2IZCYSExYK5ufySAPoTxFvrxHA7j9jcfxMWNH8Pq2nVYxBIOXsVCzsJ52cxokjIHIx1OsoKbgFaBqhr86to4JoIlpVpOq8mOgbhNU5mW9Jgz70USNQBVS6K8ruOgBUC9TknXLG50Y9ltLvxN7ZVo2/1z/Blv4QiGVLXSSFBFwQRD8bkkjl+DXYjzj4LK8Hl4+qvrY4HpPABRqhMaSFNJokrdiIp6QRYpIBQIS15+OBLBYIw1nobwOk7gMbyO659ox/vaPiFqzPLGKixqqZASHaTzUtyezIBySIXC3HanYjP32oTuS4qaSdE8qk96m681wS3wnxeSMEFU5+Rzb2bal3HJPHfD1ikF7zh2FbE37f8shrfQU4VFDRVYVluF93g/imsfacbv8Kp43Tk3BmPkrtARMErAZLi2OHEjFEwMBxGFmAjnlrEZNdXGApnT/fqcB9EJd4BeGI29UPKB/KUhkNPwDRzHb4Mv4Yv3bsP5N1Zh2S12LG2plDowDNan+pPpKZXaMBkNF4sNSZxRXtaR0UW5OGhZodElnk5lDrBAaV6A0mQlwln8nJiStH3eS7umdobq2k/KzsmgeKnz5HUio6kM+R1ukT7zd1TIcVZjOZZ61mHJrU6sur4Cn7n7Fjw0+AJ2o0siWgY4L6IBSJFzoqa2kOk5NGzyGTRtOvZT0pNS3jjsU2fCm9MPRHWvGf1LNT8aSdRpYeYTGbZZE/zbbz6Iv//v63DubVVY1lCBgiYWFSNPYhkyGj+A4p0VyJFsjoQkKkQm9HBy8zmlMqMFotYCMhMLiJY6qZYTSOVvmFOWWdNJ6nMZpMhNa5HnV0XxClqcWN5cjbNurcTl3/o33PHGA3gRx3BE8owYl83Al7Co52DG4Jjkx/yECUjjiKsn3Jm7P01A1FA3TP1odLniPIlGVdkBwxTeNzCAvmgAe4PHsAsHsfOtB/B+z8elnDNL3y7qqEDxThcy6t8jRfMy/KXgJgw43jJh26cUILV1jCqkMzGJrGee2eBsBlFt38w2Chhyz8J5qmw3Kz9cjLx2G4ranFjsrcDSGicuqr0UrW/cjWdwALuHjqKPoYADg6rGO01kQhiiTWWG1GHMIb7Ts0rsovF3+qxKkFHRMaaJdwYengYgau7uRA+aQZRnhYaPnIbhGGKBGMIBxpfG0I0gXsMJ/DL6Er76dAfe4/0IFm+1o6ihXMA0j55PP4twlSDbVwJVR4b7MmT5FD2YjjmVeDzWCo/HlZpAINnLqt+nSz/V1/VeSyLWfs45qbRNctiip/tN70ftN83pqcYLwVMA1PisdhIxmkTKLnvsqnSzz/C8t9lQ1O5EUbMNi2ps+Mvmy/ClPzTgvtCf8CqO4jjtnpEIwkNRRAbCiAkVJfPdlYamfA7pQZRwqTIKEwBKiOU5C0TnQ5xoAhdHOdKQOcotBFKJM2UqqdrC4RiE4ARhnMAgXsdxPNj/LD5zz2asuqkKKxrXYaG3Qhj1s72lyGktQZ6nDLmeMgFT8phmdpQjc4cdGR0OFUPqHx5PGp9YJi+rOQ5V27v0PtX9CpxNgDzqhLTui7fhLLSTBlC9j/9t6W9mxRkRH2m/iwZQvTdiPhma1OFAdqcDqhyHQ5ybDM3LY3hei1Ll831OFLS6scKzActuduDD3/8yftL9KF7FISHrGWD0dDSMcJglNxQRujJ+shyH2tLNGj2rFLya35mP0336zDl/Gkii4+8s3fXhqEqEknpQEVXThfFvtJcexQBexHHcuf9X2PSNf8H5dZdgcY0dC5udKPa6kNeqBi+Z9LM7bcjsKENmh54syvEkJNBG2BRDp2RiWSA65yTIOOClBbixFySCp9jH42FwxmfGCaIafBN79Xm1qBrqeptNYpjpyMzxuZDb4hCP+zJPtfB7nrN1PRwdn4XvjZ/hT9gvNd2ZwReOMdYzKD4BFb0Sk7RNgqjIlrqu0finkHVnihY4o0BU/34hTogy5k1tBFcpXwBVNKsfYVGBWGir84Wf4OJtV+GcWytRXOtEXosbue2VyGxnDj5L4tpFMs3zskQJHQDKc0/vPTcFookgfi2Fcq8lzBFSKCe1vq73U5jo0wEW1jNSAyr7LgGipntMi6bu51RtGP+8JH4oB5I6Z0eBzyFbrmF3z+pwI7ejCkW+dSiuqcCqmyvw3s0fgv/PPxRH6RH0ow8hDECKEktQPFXuCMICqARVZiHxDKVQjnvrNfUWOCNBVIGn8kyqOlBcoZUlnUQnwSDrPQXQE+vHYZzE45FX8a/31+J9nk9gRf0GLGzdgAJ/NfL8bgkxyffake+1Idcgd0hMquEgOgIYCZAWOM7rNtCAN8yDbiyCesEcG0TtoKNIP4MB8zzO89iQ21IulW4L/C4UtVdjkXc9VtRvxF83fATX3HMbftf3HA6hG33RQQQkWD4kFXcpFDBqiSF+IfmPlD0sGhdUGUdmBuWp48gZ/YQzEkSVIV1lPym7kMEFHVVEJ6q4HgdfWAofdGMIe2gvHdiFT3zv/+HsG6tQuNmO3Fob8j1u5LMEiVdNAgY6i6pvOIzoIJCcZ+M9A/k58fRmgej8XkgmC6I6FpSfZ9UFPR60U4njJNNTDhKFsDBcQYMDC26zY8UNTnzozmtxb8/T2I3DOIE+GaNkNqNJinZ/0aoYOx81NiHrYbomi5QTVrU7SBu4zmgMnPKPP0NBNJEFRRCVQceVm9VHIzHJ1AhEQrKyB6JcxyPowRCOYlDKwTY+/31c+p1rseJmNxbVulHsrUKu14WcNpdMCGEP95YiW2L6lKc1kc+swFZLHSOkU5NkqieWBbRzF2hHB1HlbJSMI4YjcfFsp91cjQkBUjHXqNI1EuWhPfMSyuTAAm8FFje4xWm0/s5rUPfMt/EiDuGQlOYYFMU9yDEaCRsZRhEDRJV2JfZ/YWEiSY/KeVcWUfWvcjJNGUfO6AecESA6bL3Vb0wJGly9NSMN96ICxSIg5V4IMVm/KZVSIaJUuh8n8WjoFdz8xE68e9vlKN5sx7L2jSjsqEZWOyuRliOrjQW/jDAopuux/AKvkePUSN2Tuk+cNIb9TKt9epLp0rwirZjA1QLVuQOq0jc+plmqVEv2nfRPnP3LCHnTGUgGSOZ0OJHhKZO6X7pqbYZnrYBs3o5KFLRXYkFrBYpvK8eFWzbg+kc9+EPgBRyQqpqDIHzS8knZkuOSSjoZlqjCS/JRfEwzDlSPbxWhoh1LGkbPaASchh9vgWiKRtTrNaPodP1CHUtHHtOucI/YSl/FEfy09zH8w9034LytG7CiYR0We6uR32JHPoOhPaUqjZQTyFOmVDafqmfDmjasPiqTz3AexSVPfd4AWwtE5w5oJi9gZhBVBRKVaq6BVByL8cB4la4pue0cE14WTaQUWiKJHOT3zG2xieq+rKEK52xdh4/++Cv48clH8BL244QkLg+Ic4i2fK2gE0TpLqJZf7izSEsMyRfUedPVFLPAOjXeFjgjQHS8jWG+Tw8w7uMv2kwZa4qYSAJd6MVb6JIB/vMTf8SlbZ/Hyq+U4ULfFUK5t7CjGrntLtCrmqEnDeNNmfUk8aY8LkW2BO5rCZU2VbUpkDVNSksanZNOKEqfwttJQOQiSXumLIDsR7vYNXM93KsFlJluIrF22JHRzuMyFHdWIr++DO/wX4Zzbq5Cddv/wX8f+CV2xfaK9HksegKDsQFEhOPTGIeG1iS20LidMz5arYNZagELRCfQ0LpkDOs+KUmAJUqGMIBBIYOmob/p6W+jpO5jOL/mEhTXupDX7EReWyVy2t1K6jBAM9dbilwvM59KwED+bGY/+ZR0KvXBpZCYMdks8JyT4KmkTYajacJkO7LaGOqmNma0cYEk/wIBlIunLJhkWaJZx+D5zG9xorjOhfPqNuJ9dR/GTY904BmpqtmFHvQjgEGEIwHEoiFEw2HJx5SxaAiY2hw1gaFs3TqNLWCB6BiNSclTv3hEe9PQUEAcUHwTCgYRCoZA435PrA+H0IXHA6/ia4+044JbL8E5TZegcLsLeR6XSCVSttlII81khUVurEbqo0pXJuq9kmpIgaY2SSO1gHRuAqlh+6QtXEVhmADUR76FEkkZpsqe4V8rx1wsyb5EguSCegdWN16Kd2zehC89UI/fDr2A/ehCF/rQF+pDlE6joUFEg0EgElEgagxIrS1ZIKpn6KnZWyA6RrsngyhrzBBImTIaCUYRC8UQNXLxGX/KEiUn/v/2rgU6jqs8r96y/H7FNukBUgjpKSmHBlvSah9aWbYJSUpI4DQ9BNoDbWla4KS00BJISmL5qbe0q5XkkJBAQoCQpk1CkwB58jAJcQwkJji2wY/YsS0/9Frt7szsfj3ff+furowc2Y5la6O7Ptczmp2dnf3vzDf/vf//fx+GsRNH8EjsRVz331/B29dfjgUt9ZjZWSssUbyJFKmJvrGWoiC6FAW84eiRCmD64SFRtK7FNyA6OUFUyLw5Z6s4PTnH7YlUuYHFKngiy1AoVW2sbKtGUU8NSjt9mN4WxPzm5VjSUI+P3PclPND/PF7BQREl7reHYNlJ2Ikk0glblG7T5Psk9wN5c8UD1TF2NbTPvU7HuaTN22fZAgZExzGoXJyuzpMDaswwWg9oMBX1BBdYBVzdqqdBJHEAA/gN9uG+Q0/CF74eC24LYE5rHco7gyjtDmLaHSGUft2Pgp5l0sRTEW+UAYgsd2mmdNQA6aQDUj7wOMeZafKArISnm31apUqDmanR60fxplqUReswu30F5q6uxWXtf4Pb9z2KF9N7sB/9MnBnzJ1BzFGkSfrBDYjSLYObKt+Tuc5jszCNc1mbt8+iBQyIjmPMXBBl/JNASvkRO5WWZGbqbSfTqgnAEnB5D3CbEJsM4Q84jOfxe9y0OYrK7k/gT1qvwKymWlS0+1HSWSVDegWkHPpVqaBEDgm0AdHJHZ0vFM5ZBo1q1JRMT5WAqKebI4sqIbAhv2d5UwBz1tXhfZ3X4cZnOvAMXsVOHMUREf62YTtJpMl9q6vnXPDkA1tdZykk0iqtiSCqZDoMiI5zC0/42wZExzHx6GES8+1UvT2HVQRSDaDJNNe5zb0JSLnnpCVh/5gziMMYwqs4iCfjL0m5XmX7dVi8Oogl4XqUS/oT58uWQZihGGCK+FDgAinr8U9MrTF/Tw5g5fy1UCJKEImBwWrxQAt6q1DY60VZlx/zqefeEMQla67CZ3+wEU+PvCzXwms4hqPpYYykLJUgbzuKLESi7q5EsahsckRPlU0bljDRq+xl9bTO5oGOcymbtyfIAgZExzHsiSCqQqNqGEUPgUP7bFMZpuJJSJJpGrZF8gcHsXRCqp4OYVBuoG///nF8/J5/x8UNKzFvgx8zOwOoEE1wFaWXFBkCaZc716aJSIRajfRqqjEaLDcyb2a3nFQD7Il/6+1TbTmmHTL2zC3BVXR0ev+sXWsk6q5trpYKxLmvzGNzLtv1SEu6a1AW9WFapx9zGoO4aM0qfPSuf8W3dj6GHTiEPgxiCCNIwELStkTfyKX2lBQ6Ge1IkYcCUuWYsgTEhpNOclIJ6bSt+EDHlS4e5wI3b79pCxgQHceEo0GUO+uYaHZNb+Ey8+J43p1LpXeaFDlnSwJPTIk6igG8mtqPb+54FHXRT2PR6jrMaa7DtE7SnekbOzsvygRtT3c1PD0qQOHhkJGM+0yRirI6StXsZwFA1WQTjOVGZ6RflxROoblV/vZcvoJsRZFPKsVYJaZsph5WmpKOaUqSotRVheIoS3irxMPUdpcsC7Etc0IVyzxBtzhSg+nhIGY3BXFBQwje9o+j9+UH8XJyt6TBDTMhzh5B0kqoBywfspYNps2ROJyUdYy2j27cJnV0CkAFRAmk6mGeuebMynmxgAHRCTa7pJ9IapQ77KJSYooFe3EMIgbSlz2PPfjq5tvxAQaf1i3H/Eg9pkUCKO8JwdNO6QcvSjYF4SGz/u01biBKR/bfCERVKaIB0Szpy9ggqjhBNYByKdwGHKK7IFrMqqJuTrdUoqinWh5eJZtqZcrF01GDsq4gysN+zG4PYV5DEJc2X4svPRvGT23SIw9IX7Nw2HHiDKePfgKPew3y8Ux/VNfQSWjT3Tbq0T3ukcwOZ98CBkTPvk3HPCITUviSaKpU59tIpBOg4iJlaylR8kT8FXz+Ry1YfEsAC5pqUd7iQ3m0FqUi3VyNMpJAhy9DcXQZ5KbuWiaBC+VJMelbDfE9Ueab0jtVOYv0RjPgMYW8UD1tobXY+XfGDno4r+WGdYqSpCyp8kwNpsVRL0qiVSiJVkrzdFyGGXeGpDiCSrAV3XWY1uLHwuaQ9N0/PNSARwd+he0izTGCOIftKZeGLp10RzNyNeSsj3nZ5GzMBVKC6R8XeebsbFbPoQUMiI5h7D8ewo+x0ylvInwyt08RkHHWNJlKSlPrFuJpS8h092MQv8VBfPvwE/jwtz+HxWtqMb+lFrPDQZS2VaK47QMo76ouzYMsAAAVSUlEQVSWSifqPQnBCYHTzSVVUhTMQdUgqob4kruoiTGmIIhq2rlRIOraIdf71A8jXQOvsiLoxfJh5JVhfWlXFcoi1SgPe1HaVo1ZHbWY11SLC9ctxxXfvAF37v0BXsJ+HJB5T8VLaztq6E0qOivNoBABUYPi6YCh/pxenvJFaHacQAsYEJ1A46pDq5slC6JpYd2RVBVXplbo91IsIbUwgBGpevo1duEb+x5GqOd6zL7pMixoDmBBJITi5mUikyveJatlCAZk2Rf2KHqiHMIrEJU5PTfgRA8s44VNQSDVXulYy6LugMvpqYJ0RT3Kqxfw7aFmFivHvJIoX9LlRXHLUswL12JRWwjzb6lETedfI/y77+AFe7twKTDjM84EN85Z5nDU8mFJshD1OD0TEJ3wi9V8wRlYwIDoGRjt9D+iPAd928TpiXJIzwACOUxZ9WSl4Dhq2Md3+zEkxBNPx1/EF59qwvtbrsYFa4KY21KHinAdiqO1KOwJZkpDyVnJm184TKUOXwEpvdCpPCd6Knyt8nAR5ixNXagA09PF4J0XBb2qNr64O4BpkSAWdq7A4nUhXNp4JT73aAOeGtmC3TiI4xiUwCHTkJjvmbZURZttOcL1OZK2EEux55Ufmp0YPf0rynxi8ljAgOi57AuiKFOiHK1z4ybmM7VUWlqis9yNPJFkjTyMo/g9DuHxoS341MOrsfi2FZjfvgrlnSFQQreYlTC9PpT0MkLslch+WW9Q0axJCWL1KA90ynmjJ9E60kN3WXJKpIvBoioZthe6Ne+lm2pQuomkIq5dO4JYFLlC+uCae7+IR/qfxw4cQB+OIZZRNmJWRjYGJJlI9EbdPiXJt3sZnMaVx0+M9amTbT+NQ5td37QFDIi+aROexgEy17xi1tefZDYU3yKQ8qV3Iz20hSQGMSKkFL/CAfTsfQzBOz6DhWuXC+P5jDDF86pR1FElWjyU0FWVMzUQ4t+oV+jZOM+X8cpkOP/WT+DXHnjmdzOY5P52NReq0pvI6ykPI6Y7MSAXrpRW0P4BFLYtxcxIEHPb6rB440osjXwSTdsewFYcxG6QZYn0yAlRMmISEvtOQJRAyso1t0+poMDhfWYf1dWn+L++Ik7c/WTbT9zP/D2RFjAgOpHWPYVj8zZw77fMUtXoMwClJEriKZKhWdifOIp9GMCW1G5Et/8P3rfxGsy71YfF4VUob65BeZsPhS2VMmdazPnSzmUqyJQTtRcwlQoolVg+1hxhvm0T9qQeTUenHg65nianOGSqQ/bJigdqIJX55fZlKO0Noqw7gMK2SpR1ejEzGsSsVj8WNPhx8eoPYsPWb+E5exf2YgD748cRg4MkA4USMCKzvGKXJ25mmvuA5KVgIO8Ubog83MWA6HnutLFA1JZqFZKdpGQuTSSehcM0hZidQD9GsBtH8dP0Dnzuh01495orcOHGVZjfEkJFSw1K22tQGuUwP4ACCZLQC9VRe86RulVQEtUfQ55Zp//kLidrMCr3HE9YzwLp6KouHXXPeKhdNSjfFEJZd1AYlirafZjXVouFjSFc3HQlPvXQ1/D48FbsQp/IwzA0xLlsanNR1DBbYURymtGN77GPzeutawEDopOgb7WHope51So63SplOxgZGpHqFoLrCBwcRAyv4ige6vslPn7fTXj7mnrM3eDHrPYgilqrURCm0iijy7lRe8W2nvHC9Jxhj6rg0XpPuUsBm0kMornnOtY6z3+sEk5hlXdTxIoifrHZ3HAd5jYGsOi2AD50xz/j+30/wza8nklZijsWHMuCk0gKtyfzfnP7a6z1SXCJmVOYQAsYEJ1A457poQmcuvEYacelhdLzbJYSJONM3CBsHEZc8ku7dj6A5Xd+Cm9bSyCoRUVHCMXhgKq+oXieBEx0Er6aDyTACPDkM4hSCDC35f4m/i55z9WzkiKEauH7pHdOb7U4EsSMcD3mt9bjwg318PVej8Zt9+BX2IfXMIhBEYMDElKaScKEFOCk4FhJ0dhWdHTZPtN9p5dneh2Yz+WHBQyI5kM/aRf1hFk1YioLADkvx+DTaziEF1M7sGHL3XjfxmtxwYYVmNlWh4quWnjal2HG18ljWo3CsGLRp3fGKic1X0g5X9V05VN2qQMyk2+ph+zCESBUdPw95Gj1w9Orm6tlxCCbSLEsw/Tb/fCweCEcwPTWOsxduxwXN1yFW37ei+ec7diDwxhAwg0ZZYlA1NBcd4j6Kx8uIXOOE2cBA6ITZ9uzfOQ3unHTQpGWxAiOoR9/wBE8NrQVn3jwFlzScjXmrFV0bOWtVSjtUOJ49Eq1IB51f5RYXjZPkmk9qhFoJx946uCXBlHKUDMrgY0ELqx9z3rZXnh6SODCqQyvVByVNC/FgshyzF4bwEUbr8JHv/ufeGjgl9iBPhxBv0TcbeYnuQEhPrB0D+SuneVONofLQwsYEM2LTtO378k8H9ZD2YjbMRE1G8IwDqT7sAuH8dCRzbj6G5/H22+rx6KmFZjVEUIZ2YZ6OKyvBitwSsPV0qhASjG1YipWasVRt+JJg9akW7rBJIIpAbQkTPmNGpSG1bpIU7OKq9eLwtu9KOnxYWakDgua63Hh6nqs7P0Mvvf6M9iO17EvTe9zSAFoKiFihLw8GBpS/0ZfLLpXRm81f001CxgQzYseH/92dVKMC6eQsEaQSiWRcEZwMNaHgxiQWu7GLffA1/m3WLK2HnPbg6gIeyWNh6k8bKWdSsZZQNQFUAWkmkpPp0TlUsZpGrmJ9lTd76YU8aiW9TYleOSqapZGfChzG9e1PHVpuAoz2wOY3xDCso5PYPULd2ML9mI/juP1kcMYcYZFVdO2VNCI9HR8jQ2hxh/Ni1vnHJykAdFzYORz8RXCrsYyUvJRuryUTO6Oi0TJCPbgGH6R2ImGX9yBd62ux5LGWsxp8mFGmw9l9NxI6MyqnShbFQq6VdlosUS2CWLMrwyg0G1FpIvrcinjJjRyr8GbWQa5zQ+PKG0yMFYjQ3UlrUJ5FZ67W2UU4W+swdwWHxY1BXFRQz2+/HQXnhz8rUhzkIqQTFrke7Udxe3JTAiqErDu3byMBcazgAHR8SyUJ+8rEGXQmFFil7IyrQT1WGRKoOhHAntxHD9MbMEnH/wyLtnwIVywPoTpzX6UR2rB2vCiXkr/MtqtwEiCT5KcPwaIat7NCQdR9d1vBKKMtBf16OaT31LRHcKM1iAWbwjhkvUfxMe+cyO+1/cUduM4jiGJIU6BgNxKShOLdhMuAwOgeXLVT47TNCA6OfrhTZ8F02mYo8jkb+aRUu9JqmnSKVeZVOk9xRBHH/rxW+zF9w/9BNfe+yXMujmA6U11qIjUo7DTDwZpShjZ7lgm+ZUcQhPAdJJ6Jlk/N7l9woA06wWf7PuZXUCGf9a5cwqiOOzDzO4VmNVWh5lf9WJlzz/iO/ufwEsuTciQ0ISQnYDqmUobS+wlOkYqeX50IOlNd485wFvYAgZE3yKdmwFRFwgIoMwjJTjIsJSppklHmKJizjCOYVCi+M+lduPWLd/Esu6/w8L1KzCvfQWmMVm/3Ytpm2oVkYnLVypR+lzglHXOU07knGguiGbnYDNReYJ3VzXKWJ3VvhQVnT7M61iOhevr8N6Wa3DT5m68gD3Yg6M4nDqOYSeWUdV0bKoNMH1JVRkp+TcyFmRLcU8WynuLXDbmZ5wFCxgQPQtGnEyH0CEoLrU3lcnNcYf5BA1yWw4iiSPgfGk/fpbYjn/7cSsuXnM55q0NYnoLa8gpvkZCYhe8OPcYrVb5pMJ8xO26hDQLpLkkyGcazc+yTflR2B10iacVz6fOa9WM9Zy3LQl7MaPDh7nra/DutStx44824KmhrdiLPhwVWTgLMSsOy7bcZKWcnCUXKXNtp9cnU9+ac5mcFjAgOjn75QzOSt/2rOl2Mo2BJk0MzCUZo1gAxblTy0kh4Yjyj5C57cBBGfZ+7L4v4l2NV2Jhy3LM6AigLOyX3MtiKosyf5RzpkyDIrh1UUwvK4JH8NNtLADNgmMWdHP305/N7qfE+gjWBE+dvyqZAxGvpDSx1n1Bay0ualyFD9/zWdy15xH8TnivyLEUw0gyBtuyoAJGOdEibTInJfyfqZSSw87G3bmDeRkLvLEFDIi+sX3y5F3e7AQH1Tirl2lS263A0xUgVSWlrhKp1HqDbPtk1Y/hsCvpfPer/4fL7/gnLFkXwvRGLwpblqKI1T5MWu+qRMnXa+ERAA38EYjmgqJezwVHva7f41Jv41J7srKNKqfM+RQCalWuWbbJJ7mupW1VmNXsw+K1AQQiVNV8AK/gNfkNAxgGeeSddELkhamMKclKnN5wLaXBUqlmUjlTNW1HrUaQJxeBOc3zZAEDoufJ8Gf3azUsjAGiLscl99At97t1fTeXfJF+byjF4FMMz6d24ObNUby/81osaanHjBYfStqrUcqSyki1y0/KOVGly54VxnM5TFlmybp18U4JlGM1JQrHss0TW6GUpPpRSqVTfh8Z+8NVKG6tFIq6xY0hvLf5Knz5J+34WXIb+jAMBo3iac4GExCVNrsCUP2Q0RApkCpwqh84BkRzrwyzfqoWMCB6qpaa9PtpiDxxeQonziG+BFkY4VeQEksncBSD2IMjeHZkGz7/2Eb86drLMWdDELO6QigTYo9KFG3yorCXrPBLlSKmW04qTPGSc0pAJXiqYTmXOudU1qnZzpp3qXsnSYoXBWGWnyqtKJ225AkvlTzWOb31WNhWj4Vf8eHvH/wvPB37Nfa4856s15IgEcmPUwRR9WBQFtB2OfFhorefbHkK9jO7TGkLGBCd0t3v/ng6aZIjmVLyJGk1r8rk82EnjmMYwU4cwX0Hn8Ff3Xsj3rY+hDktPszZVCsSwgWRpRklzOIIyU2qwMR3D/XZWXLJFKlIDTxhBqKyCfsZEKUOVI64XmGYtfxqG+dhp/X4MS1cg3kdtZjf4MfKu2/AXa89ju04iIPp48Itz6oim3OaOtXLcauNcnHU9LWxwARYwIDoBBg1/w6ZhmPbGc+NHpztOEgkkkjaNhKOhWEkcAgD+HXqD7hr3yOoiVyHipv/EtNbvaiIBlDSReKPGgHDwu4qFPRUwiONFVD0Kulx+kHezuKugKwzWKSYorhPpST4M/ovBCIRn+xX2unH9BY/5qyuxqUbrkB05/3Ymt4l5zKEBAZGYkJczfNl0/4kwTRhJaRkM//6w5xxPlnAgGg+9daEnCthR80XCsGwK+PMr7I5xKfImpNGMpkUvae+1DG8hqPYjN/hC8+24i86r8XCjXWY016HsjY/SgmSUTJAaSCtAlUzmddJ8Czq9KFYov30SFXKkqeHXitLTel91qC8K4jyNj9mtS3Hgo0r8GctV+OGx9fiWfslN2WJLEsWRuJU1VQ6RjxXvqgCkLQtGc7LvGg20WtCrGcOaixgQHTKXwNZEJXM8xx7qHQozpMyuk+hNaZDJcDIN73SXTiCJ2LbcMMj6/GOr63CouaVKFpfibJwAFQcLeyuRtEmlVvq6axCYYcXFd11mBYNoaizxg1OeVFEpdJuL0p7AqjoCqF4QzUWNNZj8c3Lcf33bsbjA0qagxxL5E2lphElOuh3Oq6GkfZA9VLNfOpgEreal7HAxFjAgOjE2DXPjupCzwlYo1Oi9DwjgzUE0qEki0ctHHNiOIQYdqEfd+/5MT587xfwzsYrML+xDjPbgygP18DTsRSFUa+UkRZ0eMUTLe0KgussLRWykHAVSgiwrX4JXL1j44ew6s5/QeSV/8UrOIIjiOO4HRPwTNDLJHhKU0EwDZy5S9UBekuedYc53byygAHRvOquc3uySvaCpZFK+oJDZZvibEgjZiXA6vN4OoljqRj2YwBbU/vQ++rDeP+6a7BkdS3mNfsxi/OlFMmLVKKYZaSMzncH1HqkEkVdVZjVG8L8jhAWr63FnzdciY6X7scL9m6R5uhLDSOWsoQTIJm0YFOig8Ejpm5JXqfQh7gJXNnIu4ZPLs3LWGAiLWBAdCKtm6fHVqDphuwlbK9o4ZS6pSsxxCF+ykEyERcKuSGbrPpx7EU/nsNO3PjDjbi0+SosWO/DzHa/8HsWdQVR1B1CYbQWXC/uYKmmH7PXVeM9TZfjMz+4FU/GfyPHGEASw2lS1KkAV8piVVEaKTcViwAvE6LCPq/PVRk8F0ANiObpRZhHp21ANI8663yeKjGLWUO2zfSnLHWcZdmwHFuS9FmPz4h5HwaxHfvx8PGf4/oH/gPzb67GgtblmNYcxPTICtXaQrigfQUW3urDx777BXz38JPYhj04hH4Mp0cQtxKIWxaStiMKpyzZZHMsW4T70jwZBsEkEGag8nxeG1P9uw2ITvUr4DR+P3PXddMf49BaFZlymK3mKC0pIR3GARzHy9iH3r0PY9VdN+A9zR/B29ZeLo3roU2fRufO+0HfkxH/4xgCPyteJtU0UyqoJUnz2r3MTtSqsbs+EbM0FjhPFjAgep4M/1b5WmIbq9E5R8kl/xFKk0gghphwl+5GH7Y6u/GjoZfw/UObcf/Bn8v6C9Yu7MZh9An9yTBskD5a6bjL1IGAsuJJ1fYSQNV/mKWxwCSwgAHRSdAJ+XwKBNEcuhPxRukiMujjSGZpQobn/RjBYagA1AEM4hCGwG1DqWEkUjGkwdxO5YXKMSnvLoBsHM58vj6mwrkbEJ0KvXyOfmN2xE1vUjUK6NmOBcthkMhCgsEiqDlUbuN7IrInkXaVCcDTVdME9GoNiJ6j7jNfc4YWMCB6hoabeh/TEHniMoty+h0NfEyJSiRYVZRC2nKQStpwEpYs+TcYaXdSYOqSzkXVw3WpnmJqVfbwU8/k5hfnhQUMiOZFN53vkySUERrHapLrJOF6AiDBkHvrhHhb85kyPclKwUk6spSUJU0SLfurz/CzajqAXim/T3miGkzHWspO5j9jgfNkAQOi58nw+fW1hK6xAJTbpCZ0FIjqoThLM0leIppFOrJP4HRUlF8C7QASTGNygVdPAwjLPAlFcrzRsQCU28zLWOB8WsCA6Pm0fl599/gQpofk/Fk63YkRe+2VqiU9TiXlLMuc9/l5vvg/P6+H9nllJnOyU84CBkSnXJef/R+s4VWDJb+BQ3FG6FPSVAIUo/j0Thl1574KdFVKE9c1aPJ4+n0Fq2f/nM0RjQXOlgUMiJ4tS07R4yjAU96lBkcxBQXyHNsduyvtIg2hkpLvgiy59lJSfZSWIBM/y0kCHsukOE3RiyrPfrYB0TzrMHO6xgLGApPLAgZEJ1d/mLMxFjAWyDML/D8UjOGMl2WLoAAAAABJRU5ErkJggg==;imageBackground=none;" vertex="1" parent="1">
          <mxGeometry x="385.39" y="243" width="52.22" height="48.82" as="geometry" />
        </mxCell>
        <mxCell id="x-KL9_7zVmia-TlLjwN--20" style="edgeStyle=orthogonalEdgeStyle;rounded=0;orthogonalLoop=1;jettySize=auto;html=1;exitX=0.5;exitY=1;exitDx=0;exitDy=0;entryX=0.5;entryY=0;entryDx=0;entryDy=0;fontFamily=Helvetica;fontSize=12;fontColor=default;" edge="1" parent="1" source="x-KL9_7zVmia-TlLjwN--8">
          <mxGeometry relative="1" as="geometry">
            <mxPoint x="411.155" y="333" as="targetPoint" />
          </mxGeometry>
        </mxCell>
        <mxCell id="x-KL9_7zVmia-TlLjwN--8" value="bcs ingress" style="text;html=1;strokeColor=none;fillColor=none;align=center;verticalAlign=middle;whiteSpace=wrap;rounded=0;fontSize=12;fontFamily=Helvetica;fontColor=default;" vertex="1" parent="1">
          <mxGeometry x="370" y="283" width="83" height="30" as="geometry" />
        </mxCell>
        <mxCell id="x-KL9_7zVmia-TlLjwN--15" style="edgeStyle=orthogonalEdgeStyle;rounded=0;orthogonalLoop=1;jettySize=auto;html=1;entryX=0.5;entryY=0;entryDx=0;entryDy=0;fontFamily=Helvetica;fontSize=12;fontColor=default;" edge="1" parent="1" source="x-KL9_7zVmia-TlLjwN--9">
          <mxGeometry relative="1" as="geometry">
            <mxPoint x="411.5" y="143" as="targetPoint" />
          </mxGeometry>
        </mxCell>
        <mxCell id="x-KL9_7zVmia-TlLjwN--9" value="" style="dashed=0;outlineConnect=0;html=1;align=center;labelPosition=center;verticalLabelPosition=bottom;verticalAlign=top;shape=mxgraph.weblogos.messenger;strokeColor=default;fontFamily=Helvetica;fontSize=12;fontColor=default;fillColor=none;gradientColor=#DFDEDE;" vertex="1" parent="1">
          <mxGeometry x="389.5" y="73" width="44" height="40" as="geometry" />
        </mxCell>
        <mxCell id="x-KL9_7zVmia-TlLjwN--10" value="" style="dashed=0;outlineConnect=0;html=1;align=center;labelPosition=center;verticalLabelPosition=bottom;verticalAlign=top;shape=mxgraph.weblogos.google;strokeColor=default;fontFamily=Helvetica;fontSize=12;fontColor=default;fillColor=none;gradientColor=#DFDEDE;" vertex="1" parent="1">
          <mxGeometry x="322.5" y="157.8" width="35.2" height="40.4" as="geometry" />
        </mxCell>
        <mxCell id="x-KL9_7zVmia-TlLjwN--11" value="" style="image;sketch=0;aspect=fixed;html=1;points=[];align=center;fontSize=12;image=img/lib/mscae/CustomDomain.svg;dashed=0;strokeColor=default;verticalAlign=top;fontFamily=Helvetica;fontColor=default;fillColor=none;gradientColor=#DFDEDE;" vertex="1" parent="1">
          <mxGeometry x="464.5" y="162.2" width="42.86" height="36" as="geometry" />
        </mxCell>
        <mxCell id="x-KL9_7zVmia-TlLjwN--16" style="edgeStyle=orthogonalEdgeStyle;rounded=0;orthogonalLoop=1;jettySize=auto;html=1;exitX=0.5;exitY=1;exitDx=0;exitDy=0;entryX=0.5;entryY=0;entryDx=0;entryDy=0;fontFamily=Helvetica;fontSize=12;fontColor=default;" edge="1" parent="1" target="x-KL9_7zVmia-TlLjwN--6">
          <mxGeometry relative="1" as="geometry">
            <mxPoint x="411.5" y="213" as="sourcePoint" />
          </mxGeometry>
        </mxCell>
        <mxCell id="x-KL9_7zVmia-TlLjwN--14" value="user" style="text;html=1;strokeColor=none;fillColor=none;align=center;verticalAlign=middle;whiteSpace=wrap;rounded=0;fontSize=12;fontFamily=Helvetica;fontColor=default;" vertex="1" parent="1">
          <mxGeometry x="372.5" y="43" width="83" height="30" as="geometry" />
        </mxCell>
        <mxCell id="x-KL9_7zVmia-TlLjwN--17" value="浏览器" style="text;html=1;strokeColor=none;fillColor=none;align=center;verticalAlign=middle;whiteSpace=wrap;rounded=0;fontSize=12;fontFamily=Helvetica;fontColor=default;fontStyle=1" vertex="1" parent="1">
          <mxGeometry x="212.5" y="143" width="83" height="30" as="geometry" />
        </mxCell>
        <mxCell id="x-KL9_7zVmia-TlLjwN--26" value="" style="edgeStyle=orthogonalEdgeStyle;rounded=0;orthogonalLoop=1;jettySize=auto;html=1;fontFamily=Helvetica;fontSize=12;fontColor=default;" edge="1" parent="1">
          <mxGeometry relative="1" as="geometry">
            <mxPoint x="411.0999999999999" y="403" as="sourcePoint" />
            <mxPoint x="411.5" y="433" as="targetPoint" />
          </mxGeometry>
        </mxCell>
        <mxCell id="x-KL9_7zVmia-TlLjwN--21" value="" style="aspect=fixed;sketch=0;html=1;dashed=0;whitespace=wrap;fillColor=#2875E2;strokeColor=#ffffff;points=[[0.005,0.63,0],[0.1,0.2,0],[0.9,0.2,0],[0.5,0,0],[0.995,0.63,0],[0.72,0.99,0],[0.5,1,0],[0.28,0.99,0]];shape=mxgraph.kubernetes.icon2;prIcon=node;align=center;verticalAlign=top;fontFamily=Helvetica;fontSize=12;fontColor=default;" vertex="1" parent="1">
          <mxGeometry x="342.5" y="343" width="40" height="38.4" as="geometry" />
        </mxCell>
        <mxCell id="x-KL9_7zVmia-TlLjwN--22" value="mdm-apphome" style="text;html=1;strokeColor=none;fillColor=none;align=center;verticalAlign=middle;whiteSpace=wrap;rounded=0;fontSize=12;fontFamily=Helvetica;fontColor=default;" vertex="1" parent="1">
          <mxGeometry x="316" y="375" width="83" height="28" as="geometry" />
        </mxCell>
        <mxCell id="x-KL9_7zVmia-TlLjwN--24" value="mdm-apphome" style="text;html=1;strokeColor=none;fillColor=none;align=center;verticalAlign=middle;whiteSpace=wrap;rounded=0;fontSize=12;fontFamily=Helvetica;fontColor=default;" vertex="1" parent="1">
          <mxGeometry x="424.36" y="375" width="83" height="28" as="geometry" />
        </mxCell>
        <mxCell id="x-KL9_7zVmia-TlLjwN--27" value="" style="aspect=fixed;sketch=0;html=1;dashed=0;whitespace=wrap;fillColor=#d5e8d4;strokeColor=#82b366;points=[[0.005,0.63,0],[0.1,0.2,0],[0.9,0.2,0],[0.5,0,0],[0.995,0.63,0],[0.72,0.99,0],[0.5,1,0],[0.28,0.99,0]];shape=mxgraph.kubernetes.icon2;prIcon=node;align=center;verticalAlign=top;fontFamily=Helvetica;fontSize=12;" vertex="1" parent="1">
          <mxGeometry x="390.81" y="433" width="42.31" height="40.62" as="geometry" />
        </mxCell>
        <mxCell id="x-KL9_7zVmia-TlLjwN--39" style="edgeStyle=orthogonalEdgeStyle;rounded=0;orthogonalLoop=1;jettySize=auto;html=1;fontFamily=Helvetica;fontSize=12;fontColor=default;" edge="1" parent="1" source="x-KL9_7zVmia-TlLjwN--28">
          <mxGeometry relative="1" as="geometry">
            <mxPoint x="409.80999999999995" y="533" as="targetPoint" />
          </mxGeometry>
        </mxCell>
        <mxCell id="x-KL9_7zVmia-TlLjwN--28" value="mdm-appzuul" style="text;html=1;strokeColor=none;fillColor=none;align=center;verticalAlign=middle;whiteSpace=wrap;rounded=0;fontSize=12;fontFamily=Helvetica;fontColor=default;" vertex="1" parent="1">
          <mxGeometry x="368.31" y="471" width="83" height="28" as="geometry" />
        </mxCell>
        <mxCell id="x-KL9_7zVmia-TlLjwN--29" value="spring cloud 网关" style="text;html=1;strokeColor=none;fillColor=none;align=center;verticalAlign=middle;whiteSpace=wrap;rounded=0;fontSize=12;fontFamily=Helvetica;fontColor=default;fontStyle=1" vertex="1" parent="1">
          <mxGeometry x="219.81" y="403" width="102.69" height="30" as="geometry" />
        </mxCell>
        <mxCell id="x-KL9_7zVmia-TlLjwN--30" value="" style="aspect=fixed;sketch=0;html=1;dashed=0;whitespace=wrap;fillColor=#2875E2;strokeColor=#ffffff;points=[[0.005,0.63,0],[0.1,0.2,0],[0.9,0.2,0],[0.5,0,0],[0.995,0.63,0],[0.72,0.99,0],[0.5,1,0],[0.28,0.99,0]];shape=mxgraph.kubernetes.icon2;prIcon=node;align=center;verticalAlign=top;fontFamily=Helvetica;fontSize=12;fontColor=default;" vertex="1" parent="1">
          <mxGeometry x="445.86" y="343" width="40" height="38.4" as="geometry" />
        </mxCell>
        <mxCell id="x-KL9_7zVmia-TlLjwN--32" value="" style="endArrow=none;dashed=1;html=1;rounded=0;fontFamily=Helvetica;fontSize=12;fontColor=default;" edge="1" parent="1">
          <mxGeometry width="50" height="50" relative="1" as="geometry">
            <mxPoint x="226.15" y="143" as="sourcePoint" />
            <mxPoint x="606.15" y="143" as="targetPoint" />
          </mxGeometry>
        </mxCell>
        <mxCell id="x-KL9_7zVmia-TlLjwN--33" value="" style="endArrow=none;dashed=1;html=1;rounded=0;fontFamily=Helvetica;fontSize=12;fontColor=default;" edge="1" parent="1">
          <mxGeometry width="50" height="50" relative="1" as="geometry">
            <mxPoint x="224" y="203" as="sourcePoint" />
            <mxPoint x="604" y="203" as="targetPoint" />
          </mxGeometry>
        </mxCell>
        <mxCell id="x-KL9_7zVmia-TlLjwN--34" value="" style="endArrow=none;dashed=1;html=1;rounded=0;fontFamily=Helvetica;fontSize=12;fontColor=default;" edge="1" parent="1">
          <mxGeometry width="50" height="50" relative="1" as="geometry">
            <mxPoint x="221.5" y="333" as="sourcePoint" />
            <mxPoint x="601.5" y="333" as="targetPoint" />
          </mxGeometry>
        </mxCell>
        <mxCell id="x-KL9_7zVmia-TlLjwN--35" value="" style="endArrow=none;dashed=1;html=1;rounded=0;fontFamily=Helvetica;fontSize=12;fontColor=default;" edge="1" parent="1">
          <mxGeometry width="50" height="50" relative="1" as="geometry">
            <mxPoint x="221.5" y="403" as="sourcePoint" />
            <mxPoint x="601.5" y="403" as="targetPoint" />
          </mxGeometry>
        </mxCell>
        <mxCell id="x-KL9_7zVmia-TlLjwN--36" value="容器云 ELB负载" style="text;html=1;strokeColor=none;fillColor=none;align=center;verticalAlign=middle;whiteSpace=wrap;rounded=0;fontSize=12;fontFamily=Helvetica;fontColor=default;fontStyle=1" vertex="1" parent="1">
          <mxGeometry x="219.81" y="203" width="90" height="30" as="geometry" />
        </mxCell>
        <mxCell id="x-KL9_7zVmia-TlLjwN--37" value="mdm nginx" style="text;html=1;strokeColor=none;fillColor=none;align=center;verticalAlign=middle;whiteSpace=wrap;rounded=0;fontSize=12;fontFamily=Helvetica;fontColor=default;fontStyle=1" vertex="1" parent="1">
          <mxGeometry x="212.5" y="333" width="90" height="30" as="geometry" />
        </mxCell>
        <mxCell id="x-KL9_7zVmia-TlLjwN--38" value="" style="endArrow=none;dashed=1;html=1;rounded=0;fontFamily=Helvetica;fontSize=12;fontColor=default;" edge="1" parent="1">
          <mxGeometry width="50" height="50" relative="1" as="geometry">
            <mxPoint x="221.96" y="499" as="sourcePoint" />
            <mxPoint x="601.96" y="499" as="targetPoint" />
          </mxGeometry>
        </mxCell>
        <mxCell id="x-KL9_7zVmia-TlLjwN--40" value="" style="aspect=fixed;sketch=0;html=1;dashed=0;whitespace=wrap;fillColor=#2875E2;strokeColor=#ffffff;points=[[0.005,0.63,0],[0.1,0.2,0],[0.9,0.2,0],[0.5,0,0],[0.995,0.63,0],[0.72,0.99,0],[0.5,1,0],[0.28,0.99,0]];shape=mxgraph.kubernetes.icon2;prIcon=node;align=center;verticalAlign=top;fontFamily=Helvetica;fontSize=12;fontColor=default;" vertex="1" parent="1">
          <mxGeometry x="342.95" y="541.5" width="40" height="38.4" as="geometry" />
        </mxCell>
        <mxCell id="x-KL9_7zVmia-TlLjwN--41" value="mdm-query" style="text;html=1;strokeColor=none;fillColor=none;align=center;verticalAlign=middle;whiteSpace=wrap;rounded=0;fontSize=12;fontFamily=Helvetica;fontColor=default;" vertex="1" parent="1">
          <mxGeometry x="316.45" y="573.5" width="83" height="28" as="geometry" />
        </mxCell>
        <mxCell id="x-KL9_7zVmia-TlLjwN--42" value="" style="aspect=fixed;sketch=0;html=1;dashed=0;whitespace=wrap;fillColor=#2875E2;strokeColor=#ffffff;points=[[0.005,0.63,0],[0.1,0.2,0],[0.9,0.2,0],[0.5,0,0],[0.995,0.63,0],[0.72,0.99,0],[0.5,1,0],[0.28,0.99,0]];shape=mxgraph.kubernetes.icon2;prIcon=node;align=center;verticalAlign=top;fontFamily=Helvetica;fontSize=12;fontColor=default;" vertex="1" parent="1">
          <mxGeometry x="410.35" y="541.5" width="40" height="38.4" as="geometry" />
        </mxCell>
        <mxCell id="x-KL9_7zVmia-TlLjwN--43" value="mdm-esb" style="text;html=1;strokeColor=none;fillColor=none;align=center;verticalAlign=middle;whiteSpace=wrap;rounded=0;fontSize=12;fontFamily=Helvetica;fontColor=default;" vertex="1" parent="1">
          <mxGeometry x="388.85" y="573.5" width="83" height="28" as="geometry" />
        </mxCell>
        <mxCell id="x-KL9_7zVmia-TlLjwN--48" value="" style="aspect=fixed;sketch=0;html=1;dashed=0;whitespace=wrap;fillColor=#2875E2;strokeColor=#ffffff;points=[[0.005,0.63,0],[0.1,0.2,0],[0.9,0.2,0],[0.5,0,0],[0.995,0.63,0],[0.72,0.99,0],[0.5,1,0],[0.28,0.99,0]];shape=mxgraph.kubernetes.icon2;prIcon=node;align=center;verticalAlign=top;fontFamily=Helvetica;fontSize=12;fontColor=default;" vertex="1" parent="1">
          <mxGeometry x="477.92" y="541.5" width="40" height="38.4" as="geometry" />
        </mxCell>
        <mxCell id="x-KL9_7zVmia-TlLjwN--49" value="mdm-code" style="text;html=1;strokeColor=none;fillColor=none;align=center;verticalAlign=middle;whiteSpace=wrap;rounded=0;fontSize=12;fontFamily=Helvetica;fontColor=default;" vertex="1" parent="1">
          <mxGeometry x="455.48" y="573.5" width="83" height="28" as="geometry" />
        </mxCell>
        <mxCell id="x-KL9_7zVmia-TlLjwN--50" value="" style="aspect=fixed;sketch=0;html=1;dashed=0;whitespace=wrap;fillColor=#2875E2;strokeColor=#ffffff;points=[[0.005,0.63,0],[0.1,0.2,0],[0.9,0.2,0],[0.5,0,0],[0.995,0.63,0],[0.72,0.99,0],[0.5,1,0],[0.28,0.99,0]];shape=mxgraph.kubernetes.icon2;prIcon=node;align=center;verticalAlign=top;fontFamily=Helvetica;fontSize=12;fontColor=default;" vertex="1" parent="1">
          <mxGeometry x="544.42" y="541.5" width="40" height="38.4" as="geometry" />
        </mxCell>
        <mxCell id="x-KL9_7zVmia-TlLjwN--51" value="mdm-core" style="text;html=1;strokeColor=none;fillColor=none;align=center;verticalAlign=middle;whiteSpace=wrap;rounded=0;fontSize=12;fontFamily=Helvetica;fontColor=default;" vertex="1" parent="1">
          <mxGeometry x="522.92" y="572" width="83" height="28" as="geometry" />
        </mxCell>
        <mxCell id="x-KL9_7zVmia-TlLjwN--60" value="&lt;b&gt;&lt;font style=&quot;font-size: 14px;&quot;&gt;X4&lt;/font&gt;&lt;/b&gt;" style="text;html=1;strokeColor=none;fillColor=none;align=center;verticalAlign=middle;whiteSpace=wrap;rounded=0;fontSize=12;fontFamily=Helvetica;fontColor=default;" vertex="1" parent="1">
          <mxGeometry x="379.51000000000005" y="531.5" width="25.69" height="28" as="geometry" />
        </mxCell>
        <mxCell id="x-KL9_7zVmia-TlLjwN--62" value="&lt;b&gt;&lt;font style=&quot;font-size: 14px;&quot;&gt;X4&lt;/font&gt;&lt;/b&gt;" style="text;html=1;strokeColor=none;fillColor=none;align=center;verticalAlign=middle;whiteSpace=wrap;rounded=0;fontSize=12;fontFamily=Helvetica;fontColor=default;" vertex="1" parent="1">
          <mxGeometry x="446.98" y="531.5" width="25.69" height="28" as="geometry" />
        </mxCell>
        <mxCell id="x-KL9_7zVmia-TlLjwN--63" value="&lt;b&gt;&lt;font style=&quot;font-size: 14px;&quot;&gt;X4&lt;/font&gt;&lt;/b&gt;" style="text;html=1;strokeColor=none;fillColor=none;align=center;verticalAlign=middle;whiteSpace=wrap;rounded=0;fontSize=12;fontFamily=Helvetica;fontColor=default;" vertex="1" parent="1">
          <mxGeometry x="516.03" y="531.5" width="25.69" height="28" as="geometry" />
        </mxCell>
        <mxCell id="x-KL9_7zVmia-TlLjwN--64" value="&lt;b&gt;&lt;font style=&quot;font-size: 14px;&quot;&gt;X4&lt;/font&gt;&lt;/b&gt;" style="text;html=1;strokeColor=none;fillColor=none;align=center;verticalAlign=middle;whiteSpace=wrap;rounded=0;fontSize=12;fontFamily=Helvetica;fontColor=default;" vertex="1" parent="1">
          <mxGeometry x="575.23" y="531.5" width="25.69" height="28" as="geometry" />
        </mxCell>
        <mxCell id="x-KL9_7zVmia-TlLjwN--65" value="" style="aspect=fixed;sketch=0;html=1;dashed=0;whitespace=wrap;fillColor=#2875E2;strokeColor=#ffffff;points=[[0.005,0.63,0],[0.1,0.2,0],[0.9,0.2,0],[0.5,0,0],[0.995,0.63,0],[0.72,0.99,0],[0.5,1,0],[0.28,0.99,0]];shape=mxgraph.kubernetes.icon2;prIcon=node;align=center;verticalAlign=top;fontFamily=Helvetica;fontSize=12;fontColor=default;" vertex="1" parent="1">
          <mxGeometry x="266.40999999999997" y="613" width="40" height="38.4" as="geometry" />
        </mxCell>
        <mxCell id="x-KL9_7zVmia-TlLjwN--66" value="mdm-bpm" style="text;html=1;strokeColor=none;fillColor=none;align=center;verticalAlign=middle;whiteSpace=wrap;rounded=0;fontSize=12;fontFamily=Helvetica;fontColor=default;" vertex="1" parent="1">
          <mxGeometry x="244.63" y="643" width="83" height="30" as="geometry" />
        </mxCell>
        <mxCell id="x-KL9_7zVmia-TlLjwN--67" value="" style="aspect=fixed;sketch=0;html=1;dashed=0;whitespace=wrap;fillColor=#2875E2;strokeColor=#ffffff;points=[[0.005,0.63,0],[0.1,0.2,0],[0.9,0.2,0],[0.5,0,0],[0.995,0.63,0],[0.72,0.99,0],[0.5,1,0],[0.28,0.99,0]];shape=mxgraph.kubernetes.icon2;prIcon=node;align=center;verticalAlign=top;fontFamily=Helvetica;fontSize=12;fontColor=default;" vertex="1" parent="1">
          <mxGeometry x="344.19" y="611.5" width="40" height="38.4" as="geometry" />
        </mxCell>
        <mxCell id="x-KL9_7zVmia-TlLjwN--68" value="mdm-console" style="text;html=1;strokeColor=none;fillColor=none;align=center;verticalAlign=middle;whiteSpace=wrap;rounded=0;fontSize=12;fontFamily=Helvetica;fontColor=default;" vertex="1" parent="1">
          <mxGeometry x="317.69" y="643.5" width="83" height="28" as="geometry" />
        </mxCell>
        <mxCell id="x-KL9_7zVmia-TlLjwN--69" value="" style="aspect=fixed;sketch=0;html=1;dashed=0;whitespace=wrap;fillColor=#2875E2;strokeColor=#ffffff;points=[[0.005,0.63,0],[0.1,0.2,0],[0.9,0.2,0],[0.5,0,0],[0.995,0.63,0],[0.72,0.99,0],[0.5,1,0],[0.28,0.99,0]];shape=mxgraph.kubernetes.icon2;prIcon=node;align=center;verticalAlign=top;fontFamily=Helvetica;fontSize=12;fontColor=default;" vertex="1" parent="1">
          <mxGeometry x="271.71" y="541.5" width="40" height="38.4" as="geometry" />
        </mxCell>
        <mxCell id="x-KL9_7zVmia-TlLjwN--70" value="mdm-engine" style="text;html=1;strokeColor=none;fillColor=none;align=center;verticalAlign=middle;whiteSpace=wrap;rounded=0;fontSize=12;fontFamily=Helvetica;fontColor=default;" vertex="1" parent="1">
          <mxGeometry x="249" y="575" width="83" height="28" as="geometry" />
        </mxCell>
        <mxCell id="x-KL9_7zVmia-TlLjwN--71" value="" style="aspect=fixed;sketch=0;html=1;dashed=0;whitespace=wrap;fillColor=#2875E2;strokeColor=#ffffff;points=[[0.005,0.63,0],[0.1,0.2,0],[0.9,0.2,0],[0.5,0,0],[0.995,0.63,0],[0.72,0.99,0],[0.5,1,0],[0.28,0.99,0]];shape=mxgraph.kubernetes.icon2;prIcon=node;align=center;verticalAlign=top;fontFamily=Helvetica;fontSize=12;fontColor=default;" vertex="1" parent="1">
          <mxGeometry x="416" y="611.5" width="40" height="38.4" as="geometry" />
        </mxCell>
        <mxCell id="x-KL9_7zVmia-TlLjwN--72" value="mdm-c" style="text;html=1;strokeColor=none;fillColor=none;align=center;verticalAlign=middle;whiteSpace=wrap;rounded=0;fontSize=12;fontFamily=Helvetica;fontColor=default;" vertex="1" parent="1">
          <mxGeometry x="389.5" y="643.5" width="83" height="28" as="geometry" />
        </mxCell>
        <mxCell id="x-KL9_7zVmia-TlLjwN--73" value="&lt;b&gt;&lt;font style=&quot;font-size: 14px;&quot;&gt;X2&lt;/font&gt;&lt;/b&gt;" style="text;html=1;strokeColor=none;fillColor=none;align=center;verticalAlign=middle;whiteSpace=wrap;rounded=0;fontSize=12;fontFamily=Helvetica;fontColor=default;" vertex="1" parent="1">
          <mxGeometry x="296.81" y="603" width="25.69" height="28" as="geometry" />
        </mxCell>
        <mxCell id="x-KL9_7zVmia-TlLjwN--74" value="&lt;b&gt;&lt;font style=&quot;font-size: 14px;&quot;&gt;X1&lt;/font&gt;&lt;/b&gt;" style="text;html=1;strokeColor=none;fillColor=none;align=center;verticalAlign=middle;whiteSpace=wrap;rounded=0;fontSize=12;fontFamily=Helvetica;fontColor=default;" vertex="1" parent="1">
          <mxGeometry x="384.75" y="601.5" width="25.69" height="28" as="geometry" />
        </mxCell>
        <mxCell id="x-KL9_7zVmia-TlLjwN--75" value="&lt;b&gt;&lt;font style=&quot;font-size: 14px;&quot;&gt;X4&lt;/font&gt;&lt;/b&gt;" style="text;html=1;strokeColor=none;fillColor=none;align=center;verticalAlign=middle;whiteSpace=wrap;rounded=0;fontSize=12;fontFamily=Helvetica;fontColor=default;" vertex="1" parent="1">
          <mxGeometry x="309.82" y="531.5" width="25.69" height="28" as="geometry" />
        </mxCell>
        <mxCell id="x-KL9_7zVmia-TlLjwN--76" value="&lt;b&gt;&lt;font style=&quot;font-size: 14px;&quot;&gt;X1&lt;/font&gt;&lt;/b&gt;" style="text;html=1;strokeColor=none;fillColor=none;align=center;verticalAlign=middle;whiteSpace=wrap;rounded=0;fontSize=12;fontFamily=Helvetica;fontColor=default;" vertex="1" parent="1">
          <mxGeometry x="446.80999999999995" y="601.5" width="25.69" height="28" as="geometry" />
        </mxCell>
        <mxCell id="x-KL9_7zVmia-TlLjwN--77" value="" style="aspect=fixed;sketch=0;html=1;dashed=0;whitespace=wrap;fillColor=#2875E2;strokeColor=#ffffff;points=[[0.005,0.63,0],[0.1,0.2,0],[0.9,0.2,0],[0.5,0,0],[0.995,0.63,0],[0.72,0.99,0],[0.5,1,0],[0.28,0.99,0]];shape=mxgraph.kubernetes.icon2;prIcon=node;align=center;verticalAlign=top;fontFamily=Helvetica;fontSize=12;fontColor=default;" vertex="1" parent="1">
          <mxGeometry x="486.38" y="613" width="40" height="38.4" as="geometry" />
        </mxCell>
        <mxCell id="x-KL9_7zVmia-TlLjwN--78" value="mdm-module" style="text;html=1;strokeColor=none;fillColor=none;align=center;verticalAlign=middle;whiteSpace=wrap;rounded=0;fontSize=12;fontFamily=Helvetica;fontColor=default;" vertex="1" parent="1">
          <mxGeometry x="461.25" y="645" width="83" height="28" as="geometry" />
        </mxCell>
        <mxCell id="x-KL9_7zVmia-TlLjwN--79" value="" style="aspect=fixed;sketch=0;html=1;dashed=0;whitespace=wrap;fillColor=#2875E2;strokeColor=#ffffff;points=[[0.005,0.63,0],[0.1,0.2,0],[0.9,0.2,0],[0.5,0,0],[0.995,0.63,0],[0.72,0.99,0],[0.5,1,0],[0.28,0.99,0]];shape=mxgraph.kubernetes.icon2;prIcon=node;align=center;verticalAlign=top;fontFamily=Helvetica;fontSize=12;fontColor=default;" vertex="1" parent="1">
          <mxGeometry x="614.04" y="541.5" width="40" height="38.4" as="geometry" />
        </mxCell>
        <mxCell id="x-KL9_7zVmia-TlLjwN--80" value="mdm-clean" style="text;html=1;strokeColor=none;fillColor=none;align=center;verticalAlign=middle;whiteSpace=wrap;rounded=0;fontSize=12;fontFamily=Helvetica;fontColor=default;" vertex="1" parent="1">
          <mxGeometry x="592.54" y="573.5" width="83" height="28" as="geometry" />
        </mxCell>
        <mxCell id="x-KL9_7zVmia-TlLjwN--81" value="" style="aspect=fixed;sketch=0;html=1;dashed=0;whitespace=wrap;fillColor=#2875E2;strokeColor=#ffffff;points=[[0.005,0.63,0],[0.1,0.2,0],[0.9,0.2,0],[0.5,0,0],[0.995,0.63,0],[0.72,0.99,0],[0.5,1,0],[0.28,0.99,0]];shape=mxgraph.kubernetes.icon2;prIcon=node;align=center;verticalAlign=top;fontFamily=Helvetica;fontSize=12;fontColor=default;" vertex="1" parent="1">
          <mxGeometry x="561.81" y="613" width="40" height="38.4" as="geometry" />
        </mxCell>
        <mxCell id="x-KL9_7zVmia-TlLjwN--82" value="mdm-timer" style="text;html=1;strokeColor=none;fillColor=none;align=center;verticalAlign=middle;whiteSpace=wrap;rounded=0;fontSize=12;fontFamily=Helvetica;fontColor=default;" vertex="1" parent="1">
          <mxGeometry x="535.31" y="645" width="83" height="28" as="geometry" />
        </mxCell>
        <mxCell id="x-KL9_7zVmia-TlLjwN--83" value="" style="aspect=fixed;sketch=0;html=1;dashed=0;whitespace=wrap;fillColor=#2875E2;strokeColor=#ffffff;points=[[0.005,0.63,0],[0.1,0.2,0],[0.9,0.2,0],[0.5,0,0],[0.995,0.63,0],[0.72,0.99,0],[0.5,1,0],[0.28,0.99,0]];shape=mxgraph.kubernetes.icon2;prIcon=node;align=center;verticalAlign=top;fontFamily=Helvetica;fontSize=12;fontColor=default;" vertex="1" parent="1">
          <mxGeometry x="192.5" y="611.5" width="40" height="38.4" as="geometry" />
        </mxCell>
        <mxCell id="x-KL9_7zVmia-TlLjwN--84" value="mdm-taskcenter" style="text;html=1;strokeColor=none;fillColor=none;align=center;verticalAlign=middle;whiteSpace=wrap;rounded=0;fontSize=12;fontFamily=Helvetica;fontColor=default;" vertex="1" parent="1">
          <mxGeometry x="152.5" y="643.5" width="102.19" height="28" as="geometry" />
        </mxCell>
        <mxCell id="x-KL9_7zVmia-TlLjwN--85" value="&lt;b&gt;&lt;font style=&quot;font-size: 14px;&quot;&gt;X1&lt;/font&gt;&lt;/b&gt;" style="text;html=1;strokeColor=none;fillColor=none;align=center;verticalAlign=middle;whiteSpace=wrap;rounded=0;fontSize=12;fontFamily=Helvetica;fontColor=default;" vertex="1" parent="1">
          <mxGeometry x="518.56" y="603" width="25.69" height="28" as="geometry" />
        </mxCell>
        <mxCell id="x-KL9_7zVmia-TlLjwN--86" value="&lt;b&gt;&lt;font style=&quot;font-size: 14px;&quot;&gt;X4&lt;/font&gt;&lt;/b&gt;" style="text;html=1;strokeColor=none;fillColor=none;align=center;verticalAlign=middle;whiteSpace=wrap;rounded=0;fontSize=12;fontFamily=Helvetica;fontColor=default;" vertex="1" parent="1">
          <mxGeometry x="642.67" y="531.5" width="25.69" height="28" as="geometry" />
        </mxCell>
        <mxCell id="x-KL9_7zVmia-TlLjwN--87" value="&lt;b&gt;&lt;font style=&quot;font-size: 14px;&quot;&gt;X1&lt;/font&gt;&lt;/b&gt;" style="text;html=1;strokeColor=none;fillColor=none;align=center;verticalAlign=middle;whiteSpace=wrap;rounded=0;fontSize=12;fontFamily=Helvetica;fontColor=default;" vertex="1" parent="1">
          <mxGeometry x="599.9200000000001" y="603" width="25.69" height="28" as="geometry" />
        </mxCell>
        <mxCell id="x-KL9_7zVmia-TlLjwN--88" value="&lt;b&gt;&lt;font style=&quot;font-size: 14px;&quot;&gt;X1&lt;/font&gt;&lt;/b&gt;" style="text;html=1;strokeColor=none;fillColor=none;align=center;verticalAlign=middle;whiteSpace=wrap;rounded=0;fontSize=12;fontFamily=Helvetica;fontColor=default;" vertex="1" parent="1">
          <mxGeometry x="223.30999999999995" y="601.5" width="25.69" height="28" as="geometry" />
        </mxCell>
        <mxCell id="x-KL9_7zVmia-TlLjwN--89" value="" style="aspect=fixed;sketch=0;html=1;dashed=0;whitespace=wrap;fillColor=#2875E2;strokeColor=#ffffff;points=[[0.005,0.63,0],[0.1,0.2,0],[0.9,0.2,0],[0.5,0,0],[0.995,0.63,0],[0.72,0.99,0],[0.5,1,0],[0.28,0.99,0]];shape=mxgraph.kubernetes.icon2;prIcon=node;align=center;verticalAlign=top;fontFamily=Helvetica;fontSize=12;fontColor=default;" vertex="1" parent="1">
          <mxGeometry x="632.63" y="613" width="40" height="38.4" as="geometry" />
        </mxCell>
        <mxCell id="x-KL9_7zVmia-TlLjwN--90" value="mdm-taskcenter" style="text;html=1;strokeColor=none;fillColor=none;align=center;verticalAlign=middle;whiteSpace=wrap;rounded=0;fontSize=12;fontFamily=Helvetica;fontColor=default;" vertex="1" parent="1">
          <mxGeometry x="606.13" y="645" width="102.19" height="28" as="geometry" />
        </mxCell>
        <mxCell id="x-KL9_7zVmia-TlLjwN--91" value="&lt;b&gt;&lt;font style=&quot;font-size: 14px;&quot;&gt;X1&lt;/font&gt;&lt;/b&gt;" style="text;html=1;strokeColor=none;fillColor=none;align=center;verticalAlign=middle;whiteSpace=wrap;rounded=0;fontSize=12;fontFamily=Helvetica;fontColor=default;" vertex="1" parent="1">
          <mxGeometry x="663.4399999999999" y="603" width="25.69" height="28" as="geometry" />
        </mxCell>
        <mxCell id="x-KL9_7zVmia-TlLjwN--93" value="" style="endArrow=none;dashed=1;html=1;rounded=0;fontFamily=Helvetica;fontSize=12;fontColor=default;" edge="1" parent="1">
          <mxGeometry width="50" height="50" relative="1" as="geometry">
            <mxPoint x="155.31" y="683" as="sourcePoint" />
            <mxPoint x="712.5" y="683" as="targetPoint" />
            <Array as="points">
              <mxPoint x="432.5" y="683" />
            </Array>
          </mxGeometry>
        </mxCell>
        <mxCell id="x-KL9_7zVmia-TlLjwN--94" value="MDM 应用层" style="text;html=1;strokeColor=none;fillColor=none;align=center;verticalAlign=middle;whiteSpace=wrap;rounded=0;fontSize=12;fontFamily=Helvetica;fontColor=default;fontStyle=1" vertex="1" parent="1">
          <mxGeometry x="215" y="499" width="102.69" height="30" as="geometry" />
        </mxCell>
        <mxCell id="x-KL9_7zVmia-TlLjwN--95" value="数据持久层" style="text;html=1;strokeColor=none;fillColor=none;align=center;verticalAlign=middle;whiteSpace=wrap;rounded=0;fontSize=12;fontFamily=Helvetica;fontColor=default;fontStyle=1" vertex="1" parent="1">
          <mxGeometry x="208.67000000000002" y="683" width="102.69" height="30" as="geometry" />
        </mxCell>
        <mxCell id="x-KL9_7zVmia-TlLjwN--96" value="" style="image;sketch=0;aspect=fixed;html=1;points=[];align=center;fontSize=12;image=img/lib/mscae/Cache_Redis_Product.svg;dashed=0;strokeColor=default;verticalAlign=top;fontFamily=Helvetica;fontColor=default;fillColor=none;gradientColor=#DFDEDE;" vertex="1" parent="1">
          <mxGeometry x="289.8" y="733" width="50" height="42" as="geometry" />
        </mxCell>
        <mxCell id="x-KL9_7zVmia-TlLjwN--97" value="" style="image;sketch=0;aspect=fixed;html=1;points=[];align=center;fontSize=12;image=img/lib/mscae/Cache_Redis_Product.svg;dashed=0;strokeColor=default;verticalAlign=top;fontFamily=Helvetica;fontColor=default;fillColor=none;gradientColor=#DFDEDE;" vertex="1" parent="1">
          <mxGeometry x="354.3" y="733" width="50" height="42" as="geometry" />
        </mxCell>
        <mxCell id="x-KL9_7zVmia-TlLjwN--98" value="" style="image;sketch=0;aspect=fixed;html=1;points=[];align=center;fontSize=12;image=img/lib/mscae/Cache_Redis_Product.svg;dashed=0;strokeColor=default;verticalAlign=top;fontFamily=Helvetica;fontColor=default;fillColor=none;gradientColor=#DFDEDE;" vertex="1" parent="1">
          <mxGeometry x="221.71" y="733" width="50" height="42" as="geometry" />
        </mxCell>
        <mxCell id="x-KL9_7zVmia-TlLjwN--99" value="" style="image;sketch=0;aspect=fixed;html=1;points=[];align=center;fontSize=12;image=img/lib/mscae/Cache_Redis_Product.svg;dashed=0;strokeColor=default;verticalAlign=top;fontFamily=Helvetica;fontColor=default;fillColor=none;gradientColor=#DFDEDE;" vertex="1" parent="1">
          <mxGeometry x="289.8" y="783" width="50" height="42" as="geometry" />
        </mxCell>
        <mxCell id="x-KL9_7zVmia-TlLjwN--100" value="" style="image;sketch=0;aspect=fixed;html=1;points=[];align=center;fontSize=12;image=img/lib/mscae/Cache_Redis_Product.svg;dashed=0;strokeColor=default;verticalAlign=top;fontFamily=Helvetica;fontColor=default;fillColor=none;gradientColor=#DFDEDE;" vertex="1" parent="1">
          <mxGeometry x="354.3" y="783" width="50" height="42" as="geometry" />
        </mxCell>
        <mxCell id="x-KL9_7zVmia-TlLjwN--101" value="" style="image;sketch=0;aspect=fixed;html=1;points=[];align=center;fontSize=12;image=img/lib/mscae/Cache_Redis_Product.svg;dashed=0;strokeColor=default;verticalAlign=top;fontFamily=Helvetica;fontColor=default;fillColor=none;gradientColor=#DFDEDE;" vertex="1" parent="1">
          <mxGeometry x="221.71" y="783" width="50" height="42" as="geometry" />
        </mxCell>
        <mxCell id="x-KL9_7zVmia-TlLjwN--102" value="3主" style="text;html=1;strokeColor=none;fillColor=none;align=center;verticalAlign=middle;whiteSpace=wrap;rounded=0;fontSize=12;fontFamily=Helvetica;fontColor=default;fontStyle=1" vertex="1" parent="1">
          <mxGeometry x="161.49" y="713" width="102.69" height="30" as="geometry" />
        </mxCell>
        <mxCell id="x-KL9_7zVmia-TlLjwN--103" value="3从" style="text;html=1;strokeColor=none;fillColor=none;align=center;verticalAlign=middle;whiteSpace=wrap;rounded=0;fontSize=12;fontFamily=Helvetica;fontColor=default;fontStyle=1" vertex="1" parent="1">
          <mxGeometry x="161.49" y="763" width="102.69" height="30" as="geometry" />
        </mxCell>
        <mxCell id="x-KL9_7zVmia-TlLjwN--106" value="B4生产集群" style="text;html=1;strokeColor=none;fillColor=none;align=center;verticalAlign=middle;whiteSpace=wrap;rounded=0;fontSize=12;fontFamily=Helvetica;fontColor=default;fontStyle=1" vertex="1" parent="1">
          <mxGeometry x="62.5" y="283.13" width="90" height="30" as="geometry" />
        </mxCell>
        <mxCell id="x-KL9_7zVmia-TlLjwN--107" value="" style="image;sketch=0;aspect=fixed;html=1;points=[];align=center;fontSize=12;image=img/lib/mscae/Docker.svg;dashed=0;strokeColor=default;verticalAlign=top;fontFamily=Helvetica;fontColor=default;fillColor=none;gradientColor=#DFDEDE;" vertex="1" parent="1">
          <mxGeometry x="81" y="233.31" width="50" height="41" as="geometry" />
        </mxCell>
        <mxCell id="x-KL9_7zVmia-TlLjwN--113" value="" style="image;sketch=0;aspect=fixed;html=1;points=[];align=center;fontSize=12;image=img/lib/mscae/Database_General.svg;dashed=0;strokeColor=default;verticalAlign=top;fontFamily=Helvetica;fontColor=default;fillColor=none;gradientColor=#DFDEDE;" vertex="1" parent="1">
          <mxGeometry x="456.5" y="725" width="51.68" height="68" as="geometry" />
        </mxCell>
        <mxCell id="x-KL9_7zVmia-TlLjwN--114" value="" style="image;sketch=0;aspect=fixed;html=1;points=[];align=center;fontSize=12;image=img/lib/mscae/Database_General.svg;dashed=0;strokeColor=default;verticalAlign=top;fontFamily=Helvetica;fontColor=default;fillColor=none;gradientColor=#DFDEDE;" vertex="1" parent="1">
          <mxGeometry x="558.76" y="725" width="51.68" height="68" as="geometry" />
        </mxCell>
        <mxCell id="x-KL9_7zVmia-TlLjwN--115" value="Oracle&lt;br&gt;10.252.76.40" style="text;html=1;strokeColor=none;fillColor=none;align=center;verticalAlign=middle;whiteSpace=wrap;rounded=0;fontSize=12;fontFamily=Helvetica;fontColor=default;fontStyle=1" vertex="1" parent="1">
          <mxGeometry x="433.50000000000006" y="795" width="102.69" height="30" as="geometry" />
        </mxCell>
        <mxCell id="x-KL9_7zVmia-TlLjwN--116" value="Oracle&lt;br&gt;10.252.76.41" style="text;html=1;strokeColor=none;fillColor=none;align=center;verticalAlign=middle;whiteSpace=wrap;rounded=0;fontSize=12;fontFamily=Helvetica;fontColor=default;fontStyle=1" vertex="1" parent="1">
          <mxGeometry x="533.44" y="795" width="102.69" height="30" as="geometry" />
        </mxCell>
        <mxCell id="x-KL9_7zVmia-TlLjwN--117" value="" style="endArrow=classic;html=1;rounded=0;fontFamily=Helvetica;fontSize=12;fontColor=default;" edge="1" parent="1">
          <mxGeometry width="50" height="50" relative="1" as="geometry">
            <mxPoint x="412.5" y="683" as="sourcePoint" />
            <mxPoint x="412.5" y="713" as="targetPoint" />
          </mxGeometry>
        </mxCell>
        <mxCell id="x-KL9_7zVmia-TlLjwN--118" value="" style="endArrow=classic;html=1;rounded=0;fontFamily=Helvetica;fontSize=12;fontColor=default;" edge="1" parent="1">
          <mxGeometry width="50" height="50" relative="1" as="geometry">
            <mxPoint x="422.5" y="713" as="sourcePoint" />
            <mxPoint x="422.5" y="683" as="targetPoint" />
          </mxGeometry>
        </mxCell>
        <mxCell id="x-KL9_7zVmia-TlLjwN--122" style="edgeStyle=orthogonalEdgeStyle;rounded=0;orthogonalLoop=1;jettySize=auto;html=1;fontFamily=Helvetica;fontSize=12;fontColor=default;" edge="1" parent="1">
          <mxGeometry relative="1" as="geometry">
            <mxPoint x="373.80999999999995" y="533" as="targetPoint" />
            <mxPoint x="374" y="499" as="sourcePoint" />
          </mxGeometry>
        </mxCell>
        <mxCell id="x-KL9_7zVmia-TlLjwN--124" style="edgeStyle=orthogonalEdgeStyle;rounded=0;orthogonalLoop=1;jettySize=auto;html=1;fontFamily=Helvetica;fontSize=12;fontColor=default;" edge="1" parent="1">
          <mxGeometry relative="1" as="geometry">
            <mxPoint x="448" y="535" as="targetPoint" />
            <mxPoint x="437.8" y="499" as="sourcePoint" />
          </mxGeometry>
        </mxCell>
        <mxCell id="x-KL9_7zVmia-TlLjwN--128" value="" style="aspect=fixed;sketch=0;html=1;dashed=0;whitespace=wrap;fillColor=#d5e8d4;strokeColor=#82b366;points=[[0.005,0.63,0],[0.1,0.2,0],[0.9,0.2,0],[0.5,0,0],[0.995,0.63,0],[0.72,0.99,0],[0.5,1,0],[0.28,0.99,0]];shape=mxgraph.kubernetes.icon2;prIcon=node;align=center;verticalAlign=top;fontFamily=Helvetica;fontSize=12;" vertex="1" parent="1">
          <mxGeometry x="96" y="334.6" width="40" height="38.4" as="geometry" />
        </mxCell>
        <mxCell id="x-KL9_7zVmia-TlLjwN--129" value="&lt;p style=&quot;margin-top: 0pt; margin-bottom: 0pt; margin-left: 0in; direction: ltr; unicode-bidi: embed; word-break: normal;&quot;&gt;Apollo &lt;span style=&quot;font-size: 10pt; font-family: 微软雅黑;&quot;&gt;配置中心&lt;/span&gt;&lt;/p&gt;" style="text;html=1;strokeColor=none;fillColor=none;align=center;verticalAlign=middle;whiteSpace=wrap;rounded=0;fontSize=12;fontFamily=Helvetica;fontColor=default;" vertex="1" parent="1">
          <mxGeometry x="69.5" y="373" width="93" height="28" as="geometry" />
        </mxCell>
        <mxCell id="x-KL9_7zVmia-TlLjwN--130" value="" style="aspect=fixed;sketch=0;html=1;dashed=0;whitespace=wrap;fillColor=#d5e8d4;strokeColor=#82b366;points=[[0.005,0.63,0],[0.1,0.2,0],[0.9,0.2,0],[0.5,0,0],[0.995,0.63,0],[0.72,0.99,0],[0.5,1,0],[0.28,0.99,0]];shape=mxgraph.kubernetes.icon2;prIcon=node;align=center;verticalAlign=top;fontFamily=Helvetica;fontSize=12;" vertex="1" parent="1">
          <mxGeometry x="96" y="398.6" width="40" height="38.4" as="geometry" />
        </mxCell>
        <mxCell id="x-KL9_7zVmia-TlLjwN--131" value="&lt;p style=&quot;margin-top: 0pt; margin-bottom: 0pt; margin-left: 0in; direction: ltr; unicode-bidi: embed; word-break: normal;&quot;&gt;Eureka &lt;span style=&quot;font-size: 10pt; font-family: 微软雅黑;&quot;&gt;注册中心&lt;/span&gt;&lt;/p&gt;" style="text;html=1;strokeColor=none;fillColor=none;align=center;verticalAlign=middle;whiteSpace=wrap;rounded=0;fontSize=12;fontFamily=Helvetica;fontColor=default;" vertex="1" parent="1">
          <mxGeometry x="65.5" y="439.31" width="97" height="28" as="geometry" />
        </mxCell>
        <mxCell id="x-KL9_7zVmia-TlLjwN--132" value="" style="aspect=fixed;sketch=0;html=1;dashed=0;whitespace=wrap;fillColor=#d5e8d4;strokeColor=#82b366;points=[[0.005,0.63,0],[0.1,0.2,0],[0.9,0.2,0],[0.5,0,0],[0.995,0.63,0],[0.72,0.99,0],[0.5,1,0],[0.28,0.99,0]];shape=mxgraph.kubernetes.icon2;prIcon=node;align=center;verticalAlign=top;fontFamily=Helvetica;fontSize=12;" vertex="1" parent="1">
          <mxGeometry x="96" y="466.6" width="40" height="38.4" as="geometry" />
        </mxCell>
        <mxCell id="x-KL9_7zVmia-TlLjwN--133" value="&lt;p style=&quot;margin-top: 0pt; margin-bottom: 0pt; margin-left: 0in; direction: ltr; unicode-bidi: embed; word-break: normal;&quot;&gt;SBA &lt;span style=&quot;font-size: 10pt; font-family: 微软雅黑;&quot;&gt;服务监控&lt;/span&gt;&lt;/p&gt;" style="text;html=1;strokeColor=none;fillColor=none;align=center;verticalAlign=middle;whiteSpace=wrap;rounded=0;fontSize=12;fontFamily=Helvetica;fontColor=default;" vertex="1" parent="1">
          <mxGeometry x="71.5" y="505" width="83" height="28" as="geometry" />
        </mxCell>
        <mxCell id="x-KL9_7zVmia-TlLjwN--139" value="" style="endArrow=classic;startArrow=classic;html=1;rounded=0;fontFamily=Helvetica;fontSize=12;fontColor=default;entryX=0;entryY=1;entryDx=0;entryDy=0;" edge="1" parent="1">
          <mxGeometry width="50" height="50" relative="1" as="geometry">
            <mxPoint x="161.49" y="347.5" as="sourcePoint" />
            <mxPoint x="210.99" y="347.5" as="targetPoint" />
          </mxGeometry>
        </mxCell>
        <mxCell id="x-KL9_7zVmia-TlLjwN--140" value="" style="endArrow=classic;startArrow=classic;html=1;rounded=0;fontFamily=Helvetica;fontSize=12;fontColor=default;entryX=0;entryY=1;entryDx=0;entryDy=0;" edge="1" parent="1">
          <mxGeometry width="50" height="50" relative="1" as="geometry">
            <mxPoint x="158.67" y="404.4" as="sourcePoint" />
            <mxPoint x="208.67" y="404.4" as="targetPoint" />
          </mxGeometry>
        </mxCell>
        <mxCell id="x-KL9_7zVmia-TlLjwN--141" value="" style="endArrow=classic;startArrow=classic;html=1;rounded=0;fontFamily=Helvetica;fontSize=12;fontColor=default;entryX=0;entryY=1;entryDx=0;entryDy=0;" edge="1" parent="1">
          <mxGeometry width="50" height="50" relative="1" as="geometry">
            <mxPoint x="158.66999999999996" y="509.4" as="sourcePoint" />
            <mxPoint x="208.66999999999996" y="509.4" as="targetPoint" />
          </mxGeometry>
        </mxCell>
        <mxCell id="x-KL9_7zVmia-TlLjwN--142" value="" style="endArrow=classic;startArrow=classic;html=1;rounded=0;fontFamily=Helvetica;fontSize=12;fontColor=default;entryX=0;entryY=1;entryDx=0;entryDy=0;" edge="1" parent="1">
          <mxGeometry width="50" height="50" relative="1" as="geometry">
            <mxPoint x="158.67000000000002" y="466" as="sourcePoint" />
            <mxPoint x="208.67000000000002" y="466" as="targetPoint" />
          </mxGeometry>
        </mxCell>
        <mxCell id="x-KL9_7zVmia-TlLjwN--143" value="" style="aspect=fixed;sketch=0;html=1;dashed=0;whitespace=wrap;fillColor=#2875E2;strokeColor=#ffffff;points=[[0.005,0.63,0],[0.1,0.2,0],[0.9,0.2,0],[0.5,0,0],[0.995,0.63,0],[0.72,0.99,0],[0.5,1,0],[0.28,0.99,0]];shape=mxgraph.kubernetes.icon2;prIcon=node;align=center;verticalAlign=top;fontFamily=Helvetica;fontSize=12;fontColor=default;" vertex="1" parent="1">
          <mxGeometry x="204.91" y="541.5" width="40" height="38.4" as="geometry" />
        </mxCell>
        <mxCell id="x-KL9_7zVmia-TlLjwN--144" value="mdm-ui" style="text;html=1;strokeColor=none;fillColor=none;align=center;verticalAlign=middle;whiteSpace=wrap;rounded=0;fontSize=12;fontFamily=Helvetica;fontColor=default;" vertex="1" parent="1">
          <mxGeometry x="184" y="575" width="83" height="28" as="geometry" />
        </mxCell>
        <mxCell id="x-KL9_7zVmia-TlLjwN--145" value="&lt;b&gt;&lt;font style=&quot;font-size: 14px;&quot;&gt;X1&lt;/font&gt;&lt;/b&gt;" style="text;html=1;strokeColor=none;fillColor=none;align=center;verticalAlign=middle;whiteSpace=wrap;rounded=0;fontSize=12;fontFamily=Helvetica;fontColor=default;" vertex="1" parent="1">
          <mxGeometry x="238.48999999999995" y="531.5" width="25.69" height="28" as="geometry" />
        </mxCell>
        <mxCell id="x-KL9_7zVmia-TlLjwN--146" value="" style="sketch=0;pointerEvents=1;shadow=0;dashed=0;html=1;strokeColor=#6c8ebf;labelPosition=center;verticalLabelPosition=bottom;verticalAlign=top;align=center;fillColor=#dae8fc;shape=mxgraph.mscae.oms.assessments;fontFamily=Helvetica;fontSize=12;" vertex="1" parent="1">
          <mxGeometry x="740.5" y="390" width="36" height="41" as="geometry" />
        </mxCell>
        <mxCell id="x-KL9_7zVmia-TlLjwN--147" value="FTP&lt;br&gt;10.1.8.199" style="text;html=1;strokeColor=none;fillColor=none;align=center;verticalAlign=middle;whiteSpace=wrap;rounded=0;fontSize=12;fontFamily=Helvetica;fontColor=default;" vertex="1" parent="1">
          <mxGeometry x="717" y="437" width="83" height="28" as="geometry" />
        </mxCell>
      </root>
    </mxGraphModel>
  </diagram>
</mxfile>
